<?xml version="1.0" encoding="utf-8" standalone="no"?>
<!DOCTYPE svg PUBLIC "-//W3C//DTD SVG 1.1//EN"
  "http://www.w3.org/Graphics/SVG/1.1/DTD/svg11.dtd">
<svg xmlns:xlink="http://www.w3.org/1999/xlink" width="712.673125pt" height="711.960625pt" viewBox="0 0 712.673125 711.960625" xmlns="http://www.w3.org/2000/svg" version="1.1">
 <metadata>
  <rdf:RDF xmlns:dc="http://purl.org/dc/elements/1.1/" xmlns:cc="http://creativecommons.org/ns#" xmlns:rdf="http://www.w3.org/1999/02/22-rdf-syntax-ns#">
   <cc:Work>
    <dc:type rdf:resource="http://purl.org/dc/dcmitype/StillImage"/>
    <dc:date>2025-06-10T18:48:40.659834</dc:date>
    <dc:format>image/svg+xml</dc:format>
    <dc:creator>
     <cc:Agent>
      <dc:title>Matplotlib v3.10.3, https://matplotlib.org/</dc:title>
     </cc:Agent>
    </dc:creator>
   </cc:Work>
  </rdf:RDF>
 </metadata>
 <defs>
  <style type="text/css">*{stroke-linejoin: round; stroke-linecap: butt}</style>
 </defs>
 <g id="figure_1">
  <g id="patch_1">
   <path d="M 0 711.960625 
L 712.673125 711.960625 
L 712.673125 0 
L 0 0 
z
" style="fill: #ffffff"/>
  </g>
  <g id="axes_1">
   <g id="patch_2">
    <path d="M 55.333125 664.0975 
L 705.473125 664.0975 
L 705.473125 25.3575 
L 55.333125 25.3575 
z
" style="fill: #ffffff"/>
   </g>
   <g id="matplotlib.axis_1">
    <g id="xtick_1">
     <g id="line2d_1">
      <defs>
       <path id="mc467718ce5" d="M 0 0 
L 0 8 
" style="stroke: #000000; stroke-width: 1.5"/>
      </defs>
      <g>
       <use xlink:href="#mc467718ce5" x="154.247027" y="664.0975" style="stroke: #000000; stroke-width: 1.5"/>
      </g>
     </g>
     <g id="text_1">
      <!-- 15 -->
      <g transform="translate(146.612027 684.715625) scale(0.12 -0.12)">
       <defs>
        <path id="DejaVuSans-31" d="M 794 531 
L 1825 531 
L 1825 4091 
L 703 3866 
L 703 4441 
L 1819 4666 
L 2450 4666 
L 2450 531 
L 3481 531 
L 3481 0 
L 794 0 
L 794 531 
z
" transform="scale(0.015625)"/>
        <path id="DejaVuSans-35" d="M 691 4666 
L 3169 4666 
L 3169 4134 
L 1269 4134 
L 1269 2991 
Q 1406 3038 1543 3061 
Q 1681 3084 1819 3084 
Q 2600 3084 3056 2656 
Q 3513 2228 3513 1497 
Q 3513 744 3044 326 
Q 2575 -91 1722 -91 
Q 1428 -91 1123 -41 
Q 819 9 494 109 
L 494 744 
Q 775 591 1075 516 
Q 1375 441 1709 441 
Q 2250 441 2565 725 
Q 2881 1009 2881 1497 
Q 2881 1984 2565 2268 
Q 2250 2553 1709 2553 
Q 1456 2553 1204 2497 
Q 953 2441 691 2322 
L 691 4666 
z
" transform="scale(0.015625)"/>
       </defs>
       <use xlink:href="#DejaVuSans-31"/>
       <use xlink:href="#DejaVuSans-35" transform="translate(63.623047 0)"/>
      </g>
     </g>
    </g>
    <g id="xtick_2">
     <g id="line2d_2">
      <g>
       <use xlink:href="#mc467718ce5" x="253.162909" y="664.0975" style="stroke: #000000; stroke-width: 1.5"/>
      </g>
     </g>
     <g id="text_2">
      <!-- 20 -->
      <g transform="translate(245.527909 684.715625) scale(0.12 -0.12)">
       <defs>
        <path id="DejaVuSans-32" d="M 1228 531 
L 3431 531 
L 3431 0 
L 469 0 
L 469 531 
Q 828 903 1448 1529 
Q 2069 2156 2228 2338 
Q 2531 2678 2651 2914 
Q 2772 3150 2772 3378 
Q 2772 3750 2511 3984 
Q 2250 4219 1831 4219 
Q 1534 4219 1204 4116 
Q 875 4013 500 3803 
L 500 4441 
Q 881 4594 1212 4672 
Q 1544 4750 1819 4750 
Q 2544 4750 2975 4387 
Q 3406 4025 3406 3419 
Q 3406 3131 3298 2873 
Q 3191 2616 2906 2266 
Q 2828 2175 2409 1742 
Q 1991 1309 1228 531 
z
" transform="scale(0.015625)"/>
        <path id="DejaVuSans-30" d="M 2034 4250 
Q 1547 4250 1301 3770 
Q 1056 3291 1056 2328 
Q 1056 1369 1301 889 
Q 1547 409 2034 409 
Q 2525 409 2770 889 
Q 3016 1369 3016 2328 
Q 3016 3291 2770 3770 
Q 2525 4250 2034 4250 
z
M 2034 4750 
Q 2819 4750 3233 4129 
Q 3647 3509 3647 2328 
Q 3647 1150 3233 529 
Q 2819 -91 2034 -91 
Q 1250 -91 836 529 
Q 422 1150 422 2328 
Q 422 3509 836 4129 
Q 1250 4750 2034 4750 
z
" transform="scale(0.015625)"/>
       </defs>
       <use xlink:href="#DejaVuSans-32"/>
       <use xlink:href="#DejaVuSans-30" transform="translate(63.623047 0)"/>
      </g>
     </g>
    </g>
    <g id="xtick_3">
     <g id="line2d_3">
      <g>
       <use xlink:href="#mc467718ce5" x="352.078792" y="664.0975" style="stroke: #000000; stroke-width: 1.5"/>
      </g>
     </g>
     <g id="text_3">
      <!-- 25 -->
      <g transform="translate(344.443792 684.715625) scale(0.12 -0.12)">
       <use xlink:href="#DejaVuSans-32"/>
       <use xlink:href="#DejaVuSans-35" transform="translate(63.623047 0)"/>
      </g>
     </g>
    </g>
    <g id="xtick_4">
     <g id="line2d_4">
      <g>
       <use xlink:href="#mc467718ce5" x="450.994675" y="664.0975" style="stroke: #000000; stroke-width: 1.5"/>
      </g>
     </g>
     <g id="text_4">
      <!-- 30 -->
      <g transform="translate(443.359675 684.715625) scale(0.12 -0.12)">
       <defs>
        <path id="DejaVuSans-33" d="M 2597 2516 
Q 3050 2419 3304 2112 
Q 3559 1806 3559 1356 
Q 3559 666 3084 287 
Q 2609 -91 1734 -91 
Q 1441 -91 1130 -33 
Q 819 25 488 141 
L 488 750 
Q 750 597 1062 519 
Q 1375 441 1716 441 
Q 2309 441 2620 675 
Q 2931 909 2931 1356 
Q 2931 1769 2642 2001 
Q 2353 2234 1838 2234 
L 1294 2234 
L 1294 2753 
L 1863 2753 
Q 2328 2753 2575 2939 
Q 2822 3125 2822 3475 
Q 2822 3834 2567 4026 
Q 2313 4219 1838 4219 
Q 1578 4219 1281 4162 
Q 984 4106 628 3988 
L 628 4550 
Q 988 4650 1302 4700 
Q 1616 4750 1894 4750 
Q 2613 4750 3031 4423 
Q 3450 4097 3450 3541 
Q 3450 3153 3228 2886 
Q 3006 2619 2597 2516 
z
" transform="scale(0.015625)"/>
       </defs>
       <use xlink:href="#DejaVuSans-33"/>
       <use xlink:href="#DejaVuSans-30" transform="translate(63.623047 0)"/>
      </g>
     </g>
    </g>
    <g id="xtick_5">
     <g id="line2d_5">
      <g>
       <use xlink:href="#mc467718ce5" x="549.910557" y="664.0975" style="stroke: #000000; stroke-width: 1.5"/>
      </g>
     </g>
     <g id="text_5">
      <!-- 35 -->
      <g transform="translate(542.275557 684.715625) scale(0.12 -0.12)">
       <use xlink:href="#DejaVuSans-33"/>
       <use xlink:href="#DejaVuSans-35" transform="translate(63.623047 0)"/>
      </g>
     </g>
    </g>
    <g id="xtick_6">
     <g id="line2d_6">
      <g>
       <use xlink:href="#mc467718ce5" x="648.82644" y="664.0975" style="stroke: #000000; stroke-width: 1.5"/>
      </g>
     </g>
     <g id="text_6">
      <!-- 40 -->
      <g transform="translate(641.19144 684.715625) scale(0.12 -0.12)">
       <defs>
        <path id="DejaVuSans-34" d="M 2419 4116 
L 825 1625 
L 2419 1625 
L 2419 4116 
z
M 2253 4666 
L 3047 4666 
L 3047 1625 
L 3713 1625 
L 3713 1100 
L 3047 1100 
L 3047 0 
L 2419 0 
L 2419 1100 
L 313 1100 
L 313 1709 
L 2253 4666 
z
" transform="scale(0.015625)"/>
       </defs>
       <use xlink:href="#DejaVuSans-34"/>
       <use xlink:href="#DejaVuSans-30" transform="translate(63.623047 0)"/>
      </g>
     </g>
    </g>
    <g id="text_7">
     <!-- Время (минуты) -->
     <g transform="translate(321.517812 701.849062) scale(0.14 -0.14)">
      <defs>
       <path id="DejaVuSans-412" d="M 1259 2228 
L 1259 519 
L 2272 519 
Q 2781 519 3026 730 
Q 3272 941 3272 1375 
Q 3272 1813 3026 2020 
Q 2781 2228 2272 2228 
L 1259 2228 
z
M 1259 4147 
L 1259 2741 
L 2194 2741 
Q 2656 2741 2882 2914 
Q 3109 3088 3109 3444 
Q 3109 3797 2882 3972 
Q 2656 4147 2194 4147 
L 1259 4147 
z
M 628 4666 
L 2241 4666 
Q 2963 4666 3353 4366 
Q 3744 4066 3744 3513 
Q 3744 3084 3544 2831 
Q 3344 2578 2956 2516 
Q 3422 2416 3680 2098 
Q 3938 1781 3938 1306 
Q 3938 681 3513 340 
Q 3088 0 2303 0 
L 628 0 
L 628 4666 
z
" transform="scale(0.015625)"/>
       <path id="DejaVuSans-440" d="M 1159 525 
L 1159 -1331 
L 581 -1331 
L 581 3500 
L 1159 3500 
L 1159 2969 
Q 1341 3281 1617 3432 
Q 1894 3584 2278 3584 
Q 2916 3584 3314 3078 
Q 3713 2572 3713 1747 
Q 3713 922 3314 415 
Q 2916 -91 2278 -91 
Q 1894 -91 1617 61 
Q 1341 213 1159 525 
z
M 3116 1747 
Q 3116 2381 2855 2742 
Q 2594 3103 2138 3103 
Q 1681 3103 1420 2742 
Q 1159 2381 1159 1747 
Q 1159 1113 1420 752 
Q 1681 391 2138 391 
Q 2594 391 2855 752 
Q 3116 1113 3116 1747 
z
" transform="scale(0.015625)"/>
       <path id="DejaVuSans-435" d="M 3597 1894 
L 3597 1613 
L 953 1613 
Q 991 1019 1311 708 
Q 1631 397 2203 397 
Q 2534 397 2845 478 
Q 3156 559 3463 722 
L 3463 178 
Q 3153 47 2828 -22 
Q 2503 -91 2169 -91 
Q 1331 -91 842 396 
Q 353 884 353 1716 
Q 353 2575 817 3079 
Q 1281 3584 2069 3584 
Q 2775 3584 3186 3129 
Q 3597 2675 3597 1894 
z
M 3022 2063 
Q 3016 2534 2758 2815 
Q 2500 3097 2075 3097 
Q 1594 3097 1305 2825 
Q 1016 2553 972 2059 
L 3022 2063 
z
" transform="scale(0.015625)"/>
       <path id="DejaVuSans-43c" d="M 581 3500 
L 1422 3500 
L 2416 1156 
L 3413 3500 
L 4247 3500 
L 4247 0 
L 3669 0 
L 3669 2950 
L 2703 672 
L 2128 672 
L 1159 2950 
L 1159 0 
L 581 0 
L 581 3500 
z
" transform="scale(0.015625)"/>
       <path id="DejaVuSans-44f" d="M 1181 2491 
Q 1181 2231 1381 2084 
Q 1581 1938 1953 1938 
L 2728 1938 
L 2728 3041 
L 1953 3041 
Q 1581 3041 1381 2897 
Q 1181 2753 1181 2491 
z
M 363 0 
L 1431 1534 
Q 1069 1616 828 1830 
Q 588 2044 588 2491 
Q 588 2997 923 3248 
Q 1259 3500 1938 3500 
L 3306 3500 
L 3306 0 
L 2728 0 
L 2728 1478 
L 2013 1478 
L 981 0 
L 363 0 
z
" transform="scale(0.015625)"/>
       <path id="DejaVuSans-20" transform="scale(0.015625)"/>
       <path id="DejaVuSans-28" d="M 1984 4856 
Q 1566 4138 1362 3434 
Q 1159 2731 1159 2009 
Q 1159 1288 1364 580 
Q 1569 -128 1984 -844 
L 1484 -844 
Q 1016 -109 783 600 
Q 550 1309 550 2009 
Q 550 2706 781 3412 
Q 1013 4119 1484 4856 
L 1984 4856 
z
" transform="scale(0.015625)"/>
       <path id="DejaVuSans-438" d="M 3578 3500 
L 3578 0 
L 3006 0 
L 3006 2809 
L 1319 0 
L 581 0 
L 581 3500 
L 1153 3500 
L 1153 697 
L 2838 3500 
L 3578 3500 
z
" transform="scale(0.015625)"/>
       <path id="DejaVuSans-43d" d="M 581 3500 
L 1159 3500 
L 1159 2072 
L 3025 2072 
L 3025 3500 
L 3603 3500 
L 3603 0 
L 3025 0 
L 3025 1613 
L 1159 1613 
L 1159 0 
L 581 0 
L 581 3500 
z
" transform="scale(0.015625)"/>
       <path id="DejaVuSans-443" d="M 2059 -325 
Q 1816 -950 1584 -1140 
Q 1353 -1331 966 -1331 
L 506 -1331 
L 506 -850 
L 844 -850 
Q 1081 -850 1212 -737 
Q 1344 -625 1503 -206 
L 1606 56 
L 191 3500 
L 800 3500 
L 1894 763 
L 2988 3500 
L 3597 3500 
L 2059 -325 
z
" transform="scale(0.015625)"/>
       <path id="DejaVuSans-442" d="M 188 3500 
L 3541 3500 
L 3541 3041 
L 2147 3041 
L 2147 0 
L 1581 0 
L 1581 3041 
L 188 3041 
L 188 3500 
z
" transform="scale(0.015625)"/>
       <path id="DejaVuSans-44b" d="M 3907 3500 
L 4482 3500 
L 4482 0 
L 3907 0 
L 3907 3500 
z
M 4195 3584 
L 4195 3584 
z
M 2781 1038 
Q 2781 1319 2576 1466 
Q 2372 1613 1978 1613 
L 1159 1613 
L 1159 459 
L 1978 459 
Q 2372 459 2576 607 
Q 2781 756 2781 1038 
z
M 581 3500 
L 1159 3500 
L 1159 2072 
L 2003 2072 
Q 2672 2072 3033 1817 
Q 3394 1563 3394 1038 
Q 3394 513 3033 256 
Q 2672 0 2003 0 
L 581 0 
L 581 3500 
z
" transform="scale(0.015625)"/>
       <path id="DejaVuSans-29" d="M 513 4856 
L 1013 4856 
Q 1481 4119 1714 3412 
Q 1947 2706 1947 2009 
Q 1947 1309 1714 600 
Q 1481 -109 1013 -844 
L 513 -844 
Q 928 -128 1133 580 
Q 1338 1288 1338 2009 
Q 1338 2731 1133 3434 
Q 928 4138 513 4856 
z
" transform="scale(0.015625)"/>
      </defs>
      <use xlink:href="#DejaVuSans-412"/>
      <use xlink:href="#DejaVuSans-440" transform="translate(68.603516 0)"/>
      <use xlink:href="#DejaVuSans-435" transform="translate(132.080078 0)"/>
      <use xlink:href="#DejaVuSans-43c" transform="translate(193.603516 0)"/>
      <use xlink:href="#DejaVuSans-44f" transform="translate(269.042969 0)"/>
      <use xlink:href="#DejaVuSans-20" transform="translate(329.199219 0)"/>
      <use xlink:href="#DejaVuSans-28" transform="translate(360.986328 0)"/>
      <use xlink:href="#DejaVuSans-43c" transform="translate(400 0)"/>
      <use xlink:href="#DejaVuSans-438" transform="translate(475.439453 0)"/>
      <use xlink:href="#DejaVuSans-43d" transform="translate(540.429688 0)"/>
      <use xlink:href="#DejaVuSans-443" transform="translate(605.810547 0)"/>
      <use xlink:href="#DejaVuSans-442" transform="translate(664.990234 0)"/>
      <use xlink:href="#DejaVuSans-44b" transform="translate(723.242188 0)"/>
      <use xlink:href="#DejaVuSans-29" transform="translate(802.197266 0)"/>
     </g>
    </g>
   </g>
   <g id="matplotlib.axis_2">
    <g id="ytick_1">
     <g id="line2d_7">
      <defs>
       <path id="m0f02495d52" d="M 0 0 
L -8 0 
" style="stroke: #000000; stroke-width: 1.5"/>
      </defs>
      <g>
       <use xlink:href="#m0f02495d52" x="55.333125" y="658.591121" style="stroke: #000000; stroke-width: 1.5"/>
      </g>
     </g>
     <g id="text_8">
      <!-- 0.0 -->
      <g transform="translate(24.749375 663.150183) scale(0.12 -0.12)">
       <defs>
        <path id="DejaVuSans-2e" d="M 684 794 
L 1344 794 
L 1344 0 
L 684 0 
L 684 794 
z
" transform="scale(0.015625)"/>
       </defs>
       <use xlink:href="#DejaVuSans-30"/>
       <use xlink:href="#DejaVuSans-2e" transform="translate(63.623047 0)"/>
       <use xlink:href="#DejaVuSans-30" transform="translate(95.410156 0)"/>
      </g>
     </g>
    </g>
    <g id="ytick_2">
     <g id="line2d_8">
      <g>
       <use xlink:href="#m0f02495d52" x="55.333125" y="577.781008" style="stroke: #000000; stroke-width: 1.5"/>
      </g>
     </g>
     <g id="text_9">
      <!-- 0.6 -->
      <g transform="translate(24.749375 582.340071) scale(0.12 -0.12)">
       <defs>
        <path id="DejaVuSans-36" d="M 2113 2584 
Q 1688 2584 1439 2293 
Q 1191 2003 1191 1497 
Q 1191 994 1439 701 
Q 1688 409 2113 409 
Q 2538 409 2786 701 
Q 3034 994 3034 1497 
Q 3034 2003 2786 2293 
Q 2538 2584 2113 2584 
z
M 3366 4563 
L 3366 3988 
Q 3128 4100 2886 4159 
Q 2644 4219 2406 4219 
Q 1781 4219 1451 3797 
Q 1122 3375 1075 2522 
Q 1259 2794 1537 2939 
Q 1816 3084 2150 3084 
Q 2853 3084 3261 2657 
Q 3669 2231 3669 1497 
Q 3669 778 3244 343 
Q 2819 -91 2113 -91 
Q 1303 -91 875 529 
Q 447 1150 447 2328 
Q 447 3434 972 4092 
Q 1497 4750 2381 4750 
Q 2619 4750 2861 4703 
Q 3103 4656 3366 4563 
z
" transform="scale(0.015625)"/>
       </defs>
       <use xlink:href="#DejaVuSans-30"/>
       <use xlink:href="#DejaVuSans-2e" transform="translate(63.623047 0)"/>
       <use xlink:href="#DejaVuSans-36" transform="translate(95.410156 0)"/>
      </g>
     </g>
    </g>
    <g id="ytick_3">
     <g id="line2d_9">
      <g>
       <use xlink:href="#m0f02495d52" x="55.333125" y="496.970896" style="stroke: #000000; stroke-width: 1.5"/>
      </g>
     </g>
     <g id="text_10">
      <!-- 1.2 -->
      <g transform="translate(24.749375 501.529958) scale(0.12 -0.12)">
       <use xlink:href="#DejaVuSans-31"/>
       <use xlink:href="#DejaVuSans-2e" transform="translate(63.623047 0)"/>
       <use xlink:href="#DejaVuSans-32" transform="translate(95.410156 0)"/>
      </g>
     </g>
    </g>
    <g id="ytick_4">
     <g id="line2d_10">
      <g>
       <use xlink:href="#m0f02495d52" x="55.333125" y="416.160783" style="stroke: #000000; stroke-width: 1.5"/>
      </g>
     </g>
     <g id="text_11">
      <!-- 1.8 -->
      <g transform="translate(24.749375 420.719846) scale(0.12 -0.12)">
       <defs>
        <path id="DejaVuSans-38" d="M 2034 2216 
Q 1584 2216 1326 1975 
Q 1069 1734 1069 1313 
Q 1069 891 1326 650 
Q 1584 409 2034 409 
Q 2484 409 2743 651 
Q 3003 894 3003 1313 
Q 3003 1734 2745 1975 
Q 2488 2216 2034 2216 
z
M 1403 2484 
Q 997 2584 770 2862 
Q 544 3141 544 3541 
Q 544 4100 942 4425 
Q 1341 4750 2034 4750 
Q 2731 4750 3128 4425 
Q 3525 4100 3525 3541 
Q 3525 3141 3298 2862 
Q 3072 2584 2669 2484 
Q 3125 2378 3379 2068 
Q 3634 1759 3634 1313 
Q 3634 634 3220 271 
Q 2806 -91 2034 -91 
Q 1263 -91 848 271 
Q 434 634 434 1313 
Q 434 1759 690 2068 
Q 947 2378 1403 2484 
z
M 1172 3481 
Q 1172 3119 1398 2916 
Q 1625 2713 2034 2713 
Q 2441 2713 2670 2916 
Q 2900 3119 2900 3481 
Q 2900 3844 2670 4047 
Q 2441 4250 2034 4250 
Q 1625 4250 1398 4047 
Q 1172 3844 1172 3481 
z
" transform="scale(0.015625)"/>
       </defs>
       <use xlink:href="#DejaVuSans-31"/>
       <use xlink:href="#DejaVuSans-2e" transform="translate(63.623047 0)"/>
       <use xlink:href="#DejaVuSans-38" transform="translate(95.410156 0)"/>
      </g>
     </g>
    </g>
    <g id="ytick_5">
     <g id="line2d_11">
      <g>
       <use xlink:href="#m0f02495d52" x="55.333125" y="335.350671" style="stroke: #000000; stroke-width: 1.5"/>
      </g>
     </g>
     <g id="text_12">
      <!-- 2.4 -->
      <g transform="translate(24.749375 339.909733) scale(0.12 -0.12)">
       <use xlink:href="#DejaVuSans-32"/>
       <use xlink:href="#DejaVuSans-2e" transform="translate(63.623047 0)"/>
       <use xlink:href="#DejaVuSans-34" transform="translate(95.410156 0)"/>
      </g>
     </g>
    </g>
    <g id="ytick_6">
     <g id="line2d_12">
      <g>
       <use xlink:href="#m0f02495d52" x="55.333125" y="254.540558" style="stroke: #000000; stroke-width: 1.5"/>
      </g>
     </g>
     <g id="text_13">
      <!-- 3.0 -->
      <g transform="translate(24.749375 259.099621) scale(0.12 -0.12)">
       <use xlink:href="#DejaVuSans-33"/>
       <use xlink:href="#DejaVuSans-2e" transform="translate(63.623047 0)"/>
       <use xlink:href="#DejaVuSans-30" transform="translate(95.410156 0)"/>
      </g>
     </g>
    </g>
    <g id="ytick_7">
     <g id="line2d_13">
      <g>
       <use xlink:href="#m0f02495d52" x="55.333125" y="173.730446" style="stroke: #000000; stroke-width: 1.5"/>
      </g>
     </g>
     <g id="text_14">
      <!-- 3.6 -->
      <g transform="translate(24.749375 178.289508) scale(0.12 -0.12)">
       <use xlink:href="#DejaVuSans-33"/>
       <use xlink:href="#DejaVuSans-2e" transform="translate(63.623047 0)"/>
       <use xlink:href="#DejaVuSans-36" transform="translate(95.410156 0)"/>
      </g>
     </g>
    </g>
    <g id="ytick_8">
     <g id="line2d_14">
      <g>
       <use xlink:href="#m0f02495d52" x="55.333125" y="92.920333" style="stroke: #000000; stroke-width: 1.5"/>
      </g>
     </g>
     <g id="text_15">
      <!-- 4.2 -->
      <g transform="translate(24.749375 97.479396) scale(0.12 -0.12)">
       <use xlink:href="#DejaVuSans-34"/>
       <use xlink:href="#DejaVuSans-2e" transform="translate(63.623047 0)"/>
       <use xlink:href="#DejaVuSans-32" transform="translate(95.410156 0)"/>
      </g>
     </g>
    </g>
    <g id="text_16">
     <!-- Интенсивность (мВ*с) -->
     <g transform="translate(17.837812 426.055469) rotate(-90) scale(0.14 -0.14)">
      <defs>
       <path id="DejaVuSans-418" d="M 4159 4666 
L 4159 0 
L 3547 0 
L 3547 3903 
L 1478 0 
L 628 0 
L 628 4666 
L 1241 4666 
L 1241 763 
L 3309 4666 
L 4159 4666 
z
" transform="scale(0.015625)"/>
       <path id="DejaVuSans-441" d="M 3122 3366 
L 3122 2828 
Q 2878 2963 2633 3030 
Q 2388 3097 2138 3097 
Q 1578 3097 1268 2742 
Q 959 2388 959 1747 
Q 959 1106 1268 751 
Q 1578 397 2138 397 
Q 2388 397 2633 464 
Q 2878 531 3122 666 
L 3122 134 
Q 2881 22 2623 -34 
Q 2366 -91 2075 -91 
Q 1284 -91 818 406 
Q 353 903 353 1747 
Q 353 2603 823 3093 
Q 1294 3584 2113 3584 
Q 2378 3584 2631 3529 
Q 2884 3475 3122 3366 
z
" transform="scale(0.015625)"/>
       <path id="DejaVuSans-432" d="M 1156 1613 
L 1156 459 
L 1975 459 
Q 2369 459 2575 607 
Q 2781 756 2781 1038 
Q 2781 1319 2575 1466 
Q 2369 1613 1975 1613 
L 1156 1613 
z
M 1156 3041 
L 1156 2072 
L 1913 2072 
Q 2238 2072 2444 2201 
Q 2650 2331 2650 2563 
Q 2650 2794 2444 2917 
Q 2238 3041 1913 3041 
L 1156 3041 
z
M 581 3500 
L 1950 3500 
Q 2566 3500 2897 3275 
Q 3228 3050 3228 2634 
Q 3228 2313 3059 2123 
Q 2891 1934 2559 1888 
Q 2956 1813 3175 1575 
Q 3394 1338 3394 981 
Q 3394 513 3033 256 
Q 2672 0 2003 0 
L 581 0 
L 581 3500 
z
" transform="scale(0.015625)"/>
       <path id="DejaVuSans-43e" d="M 1959 3097 
Q 1497 3097 1228 2736 
Q 959 2375 959 1747 
Q 959 1119 1226 758 
Q 1494 397 1959 397 
Q 2419 397 2687 759 
Q 2956 1122 2956 1747 
Q 2956 2369 2687 2733 
Q 2419 3097 1959 3097 
z
M 1959 3584 
Q 2709 3584 3137 3096 
Q 3566 2609 3566 1747 
Q 3566 888 3137 398 
Q 2709 -91 1959 -91 
Q 1206 -91 779 398 
Q 353 888 353 1747 
Q 353 2609 779 3096 
Q 1206 3584 1959 3584 
z
" transform="scale(0.015625)"/>
       <path id="DejaVuSans-44c" d="M 2781 1038 
Q 2781 1319 2576 1466 
Q 2372 1613 1978 1613 
L 1159 1613 
L 1159 459 
L 1978 459 
Q 2372 459 2576 607 
Q 2781 756 2781 1038 
z
M 581 3500 
L 1159 3500 
L 1159 2072 
L 2003 2072 
Q 2672 2072 3033 1817 
Q 3394 1563 3394 1038 
Q 3394 513 3033 256 
Q 2672 0 2003 0 
L 581 0 
L 581 3500 
z
" transform="scale(0.015625)"/>
       <path id="DejaVuSans-2a" d="M 3009 3897 
L 1888 3291 
L 3009 2681 
L 2828 2375 
L 1778 3009 
L 1778 1831 
L 1422 1831 
L 1422 3009 
L 372 2375 
L 191 2681 
L 1313 3291 
L 191 3897 
L 372 4206 
L 1422 3572 
L 1422 4750 
L 1778 4750 
L 1778 3572 
L 2828 4206 
L 3009 3897 
z
" transform="scale(0.015625)"/>
      </defs>
      <use xlink:href="#DejaVuSans-418"/>
      <use xlink:href="#DejaVuSans-43d" transform="translate(74.804688 0)"/>
      <use xlink:href="#DejaVuSans-442" transform="translate(140.185547 0)"/>
      <use xlink:href="#DejaVuSans-435" transform="translate(198.4375 0)"/>
      <use xlink:href="#DejaVuSans-43d" transform="translate(259.960938 0)"/>
      <use xlink:href="#DejaVuSans-441" transform="translate(325.341797 0)"/>
      <use xlink:href="#DejaVuSans-438" transform="translate(380.322266 0)"/>
      <use xlink:href="#DejaVuSans-432" transform="translate(445.3125 0)"/>
      <use xlink:href="#DejaVuSans-43d" transform="translate(504.248047 0)"/>
      <use xlink:href="#DejaVuSans-43e" transform="translate(569.628906 0)"/>
      <use xlink:href="#DejaVuSans-441" transform="translate(630.810547 0)"/>
      <use xlink:href="#DejaVuSans-442" transform="translate(685.791016 0)"/>
      <use xlink:href="#DejaVuSans-44c" transform="translate(744.042969 0)"/>
      <use xlink:href="#DejaVuSans-20" transform="translate(802.978516 0)"/>
      <use xlink:href="#DejaVuSans-28" transform="translate(834.765625 0)"/>
      <use xlink:href="#DejaVuSans-43c" transform="translate(873.779297 0)"/>
      <use xlink:href="#DejaVuSans-412" transform="translate(949.21875 0)"/>
      <use xlink:href="#DejaVuSans-2a" transform="translate(1017.822266 0)"/>
      <use xlink:href="#DejaVuSans-441" transform="translate(1067.822266 0)"/>
      <use xlink:href="#DejaVuSans-29" transform="translate(1122.802734 0)"/>
     </g>
    </g>
    <g id="text_17">
     <!-- 1e8 -->
     <g transform="translate(55.333125 22.3575) scale(0.1 -0.1)">
      <defs>
       <path id="DejaVuSans-65" d="M 3597 1894 
L 3597 1613 
L 953 1613 
Q 991 1019 1311 708 
Q 1631 397 2203 397 
Q 2534 397 2845 478 
Q 3156 559 3463 722 
L 3463 178 
Q 3153 47 2828 -22 
Q 2503 -91 2169 -91 
Q 1331 -91 842 396 
Q 353 884 353 1716 
Q 353 2575 817 3079 
Q 1281 3584 2069 3584 
Q 2775 3584 3186 3129 
Q 3597 2675 3597 1894 
z
M 3022 2063 
Q 3016 2534 2758 2815 
Q 2500 3097 2075 3097 
Q 1594 3097 1305 2825 
Q 1016 2553 972 2059 
L 3022 2063 
z
" transform="scale(0.015625)"/>
      </defs>
      <use xlink:href="#DejaVuSans-31"/>
      <use xlink:href="#DejaVuSans-65" transform="translate(63.623047 0)"/>
      <use xlink:href="#DejaVuSans-38" transform="translate(125.146484 0)"/>
     </g>
    </g>
   </g>
   <g id="line2d_15">
    <path d="M 55.333125 658.591121 
L 55.616657 658.573044 
L 55.687541 658.34724 
L 55.758424 658.381273 
L 56.112839 658.418459 
L 57.672268 658.226003 
L 57.814034 658.202154 
L 58.381099 658.108382 
L 58.522866 658.122025 
L 59.798762 658.156114 
L 60.082294 658.160073 
L 60.43671 658.147584 
L 60.649359 658.118827 
L 60.791125 658.154922 
L 79.50427 658.495788 
L 80.354867 658.49586 
L 80.992815 658.493979 
L 89.144374 658.49219 
L 89.49879 658.503999 
L 92.617647 658.517881 
L 93.326479 658.530387 
L 93.680894 658.503128 
L 94.03531 658.521411 
L 96.020037 658.522025 
L 96.728869 658.530818 
L 97.083284 658.499919 
L 97.4377 658.516015 
L 99.989492 658.529337 
L 100.414791 658.523339 
L 101.407155 658.508895 
L 101.690687 658.521171 
L 103.462765 658.497804 
L 103.817181 658.516231 
L 104.596895 658.53168 
L 105.37661 658.504828 
L 105.801908 658.521147 
L 107.006921 658.521179 
L 113.882584 658.531629 
L 115.15848 658.525748 
L 118.844403 658.522007 
L 119.198818 658.517148 
L 120.191182 658.519955 
L 120.900013 658.530788 
L 121.396195 658.526422 
L 121.821494 658.520693 
L 122.17591 658.521536 
L 124.444169 658.377538 
L 124.585936 657.936283 
L 124.727702 656.793066 
L 124.940351 650.627071 
L 125.153001 636.477313 
L 125.790949 575.353381 
L 126.074481 617.741876 
L 126.358014 652.481809 
L 126.570663 657.30937 
L 126.783313 658.188105 
L 126.995962 658.344265 
L 127.421261 658.413085 
L 127.988326 658.443799 
L 128.271858 658.484726 
L 128.697157 658.471848 
L 129.760404 658.513401 
L 130.398352 658.497067 
L 131.178066 658.516386 
L 131.745131 658.511895 
L 136.636067 658.53095 
L 136.848716 658.513239 
L 137.274015 658.542462 
L 137.84108 658.494164 
L 138.053729 658.516864 
L 138.76256 658.509818 
L 140.463755 658.518786 
L 140.818171 658.543943 
L 141.172586 658.530373 
L 143.086431 658.520259 
L 143.795262 658.530935 
L 147.126769 658.533054 
L 150.458275 658.369328 
L 150.954457 657.869778 
L 151.167107 657.977417 
L 151.379756 658.177895 
L 151.663289 658.452628 
L 153.718899 658.53405 
L 154.073315 658.533507 
L 155.278328 658.53952 
L 155.77451 658.508326 
L 156.199808 658.544616 
L 156.979523 658.540207 
L 159.673081 658.533044 
L 160.240146 658.546779 
L 160.452796 658.536443 
L 161.303393 658.532355 
L 162.012224 658.440722 
L 162.153991 658.26 
L 162.36664 657.692989 
L 162.791939 655.999896 
L 162.933705 656.052448 
L 163.359004 657.870234 
L 163.571653 658.33642 
L 163.855186 658.481384 
L 164.209601 658.505911 
L 165.131082 658.530598 
L 165.343731 658.498016 
L 165.76903 658.517669 
L 167.682874 658.518763 
L 168.179056 658.531231 
L 168.675238 658.522977 
L 184.340408 658.53064 
L 184.83659 658.53181 
L 185.332772 658.454759 
L 185.75807 658.338667 
L 186.041603 658.340775 
L 186.325135 658.475893 
L 186.750434 658.523189 
L 187.175733 658.544757 
L 187.530149 658.537635 
L 199.934695 658.463527 
L 200.147344 658.056339 
L 200.359994 656.744855 
L 200.572643 653.463745 
L 200.856176 644.861272 
L 201.281474 617.725093 
L 201.990306 537.00588 
L 202.486487 461.811648 
L 202.557371 468.885479 
L 202.77002 447.202066 
L 202.911786 512.957201 
L 203.195319 638.167812 
L 203.407968 655.392512 
L 203.620617 657.42621 
L 203.90415 657.918165 
L 204.116799 658.099959 
L 204.329449 658.192035 
L 204.896514 658.307603 
L 206.597709 658.447959 
L 214.182203 658.517066 
L 214.749268 658.507734 
L 216.379579 658.530997 
L 216.804878 658.53135 
L 219.073138 658.499489 
L 219.356671 658.480739 
L 219.852852 658.378944 
L 221.128749 658.38096 
L 221.483164 658.465485 
L 221.83758 658.495184 
L 222.191995 658.520489 
L 222.75906 658.248188 
L 222.97171 657.228605 
L 223.113476 655.375155 
L 223.397009 646.567732 
L 223.680541 628.997534 
L 224.318489 554.591507 
L 225.452619 353.766177 
L 225.948801 247.318495 
L 226.019684 249.313975 
L 226.3741 142.02835 
L 226.444983 144.180874 
L 226.586749 107.95319 
L 226.728515 216.166457 
L 227.082931 641.320252 
L 227.29558 655.240922 
L 227.50823 656.634237 
L 227.791762 657.185433 
L 228.64236 658.007206 
L 228.784126 658.03355 
L 229.138541 658.155222 
L 229.56384 657.847591 
L 229.77649 657.168566 
L 230.272671 655.168288 
L 230.414438 655.230959 
L 230.69797 656.248737 
L 231.052386 657.777686 
L 231.477685 658.280895 
L 231.761217 658.36261 
L 232.399165 658.402646 
L 233.037113 658.412284 
L 236.085087 658.46002 
L 236.793919 658.210844 
L 237.006568 657.899521 
L 237.360984 657.227515 
L 237.644516 657.001645 
L 237.857166 657.277287 
L 238.424231 658.188523 
L 238.707763 658.386742 
L 238.991296 658.453717 
L 239.345711 658.508696 
L 240.196309 658.48059 
L 242.96075 658.506374 
L 243.882231 658.364086 
L 244.449296 658.091477 
L 244.874595 658.239346 
L 245.22901 658.449364 
L 246.008725 658.518155 
L 246.292257 658.511222 
L 246.717556 658.504083 
L 248.489634 658.521359 
L 250.616128 658.522121 
L 251.466725 658.496199 
L 252.03379 658.3633 
L 252.459089 658.13927 
L 252.813504 658.127913 
L 253.16792 658.302896 
L 253.876751 658.486174 
L 255.081764 658.491827 
L 255.43618 658.447469 
L 256.145011 658.442135 
L 256.853842 658.514846 
L 257.562674 658.515999 
L 258.129739 658.525333 
L 259.405635 658.539556 
L 259.9727 658.537035 
L 260.681531 658.525702 
L 261.035947 658.534226 
L 261.603012 658.52956 
L 263.587739 658.525891 
L 263.942155 658.523347 
L 264.721869 658.530063 
L 266.210415 658.491438 
L 267.557194 658.374923 
L 267.769843 658.407093 
L 269.187506 658.339394 
L 269.400155 658.173864 
L 269.754571 658.04175 
L 269.96722 658.156336 
L 270.321636 658.328588 
L 270.605168 658.433044 
L 271.030467 658.514491 
L 272.731662 658.499698 
L 273.36961 658.540401 
L 274.361974 658.532183 
L 274.787272 658.489577 
L 274.999922 658.500743 
L 275.283454 658.471014 
L 279.890857 658.55873 
L 280.316156 658.537003 
L 281.662935 658.541042 
L 284.71091 658.54077 
L 285.207091 658.552389 
L 287.050053 658.531641 
L 287.404468 658.550327 
L 287.829767 658.537269 
L 288.680364 658.549395 
L 289.176546 658.534022 
L 290.027144 658.544059 
L 294.351014 658.540108 
L 294.988962 658.54316 
L 295.768677 658.320384 
L 296.052209 657.725288 
L 296.335742 656.14726 
L 296.619274 654.023745 
L 296.902807 651.91213 
L 297.115456 651.527773 
L 297.186339 651.67286 
L 297.824287 656.949463 
L 298.249586 658.188724 
L 298.533118 658.416652 
L 298.816651 658.436052 
L 299.596365 658.500108 
L 300.517846 658.529647 
L 301.368443 658.531154 
L 301.793742 658.52367 
L 303.140521 658.524982 
L 303.494937 658.534822 
L 308.385872 658.53625 
L 309.023821 658.546932 
L 310.512366 658.535097 
L 311.008548 658.543376 
L 313.418574 658.547871 
L 314.056522 658.53938 
L 314.410938 658.552057 
L 314.69447 658.524385 
L 316.112133 658.553536 
L 316.608315 658.529122 
L 318.30951 658.545839 
L 319.939821 658.288657 
L 320.081588 658.021797 
L 320.36512 656.511706 
L 320.648653 652.996704 
L 321.003068 643.309582 
L 321.286601 631.960697 
L 321.7119 607.251301 
L 322.278965 571.341233 
L 322.349848 572.113346 
L 322.420731 570.630476 
L 322.63338 586.443998 
L 323.200445 652.246295 
L 323.413094 656.229166 
L 323.625744 657.48102 
L 323.909276 657.935844 
L 324.334575 658.163033 
L 324.618108 658.256594 
L 324.90164 658.024618 
L 325.043406 657.726281 
L 325.397822 655.314189 
L 326.177536 646.741745 
L 326.248419 647.073399 
L 327.240783 657.704413 
L 327.524316 658.192848 
L 327.878731 658.390599 
L 328.020497 658.396788 
L 329.296394 658.478398 
L 330.855822 658.48957 
L 331.210238 658.496313 
L 333.478498 658.387221 
L 334.116446 658.473918 
L 334.89616 658.520854 
L 340.070628 658.525461 
L 340.637693 658.527766 
L 342.480654 658.546756 
L 343.898317 658.53623 
L 346.733642 658.544334 
L 347.300707 658.538929 
L 347.796889 658.537257 
L 348.50572 658.529971 
L 351.128395 658.525881 
L 353.821954 658.53123 
L 354.743435 658.521706 
L 355.594032 658.539936 
L 356.373746 658.532764 
L 357.436993 658.516352 
L 360.626734 658.394467 
L 360.839383 658.143443 
L 361.122916 657.248615 
L 361.760864 653.733642 
L 361.831747 653.775985 
L 361.90263 653.766973 
L 362.115279 654.067601 
L 362.469695 656.523996 
L 362.753227 657.806202 
L 363.03676 658.27607 
L 363.816474 658.51138 
L 365.517669 658.530645 
L 366.155617 658.535423 
L 367.36063 658.542665 
L 368.140345 658.545671 
L 374.023644 658.542724 
L 374.803358 658.556657 
L 375.724839 658.543048 
L 379.268995 658.535647 
L 379.83606 658.533294 
L 380.97019 658.553038 
L 381.324606 658.538612 
L 382.10432 658.540604 
L 382.884034 658.525604 
L 383.23845 658.54483 
L 384.018164 658.555137 
L 387.349671 658.54414 
L 387.916736 658.561985 
L 388.9091 658.214251 
L 389.547048 657.360225 
L 390.04323 657.752064 
L 390.397645 658.243852 
L 390.752061 658.464088 
L 391.106477 658.525896 
L 391.531775 658.522299 
L 392.453256 658.538634 
L 393.516503 658.539473 
L 394.012685 658.537067 
L 395.926529 658.536642 
L 396.493594 658.546421 
L 398.620087 658.532787 
L 399.470685 658.531068 
L 400.179516 658.43109 
L 400.817464 658.24379 
L 402.589542 658.527325 
L 404.57427 658.553837 
L 405.070452 658.545172 
L 405.779283 658.551032 
L 406.558997 658.533873 
L 406.913413 658.523393 
L 408.118426 658.117866 
L 408.401958 658.238022 
L 408.685491 658.387587 
L 409.039907 658.500952 
L 411.1664 658.545 
L 414.143491 658.549387 
L 415.490271 658.528595 
L 420.593855 658.52187 
L 420.877388 658.537647 
L 422.29505 658.509227 
L 423.925362 658.54753 
L 424.350661 658.54316 
L 425.201258 658.543469 
L 425.626557 658.526745 
L 426.689804 658.524057 
L 432.785753 658.54588 
L 433.423701 658.546415 
L 433.778116 658.555067 
L 436.400792 658.505322 
L 436.684324 658.525307 
L 454.192456 658.550826 
L 454.475988 658.536858 
L 455.893651 658.550578 
L 457.311313 658.543187 
L 458.658092 658.536205 
L 459.154274 658.543198 
L 461.635183 658.54182 
L 462.769313 658.54829 
L 463.336378 658.545768 
L 468.014664 658.527567 
L 468.510846 658.544529 
L 471.984119 658.549299 
L 473.047366 658.525821 
L 473.472665 658.524944 
L 474.181496 658.529952 
L 482.049523 658.385988 
L 482.333055 657.832543 
L 483.11277 654.415296 
L 483.183653 654.478734 
L 483.538068 655.931482 
L 483.892484 657.510839 
L 484.176016 658.127823 
L 484.459549 658.358031 
L 485.593679 658.502725 
L 485.877211 658.508884 
L 486.444276 658.508096 
L 488.003705 658.530036 
L 490.555497 658.521974 
L 490.909913 658.523736 
L 491.902277 658.522607 
L 492.327576 658.52502 
L 493.957887 658.376334 
L 494.312303 658.31572 
L 494.808485 658.419629 
L 496.367913 658.516608 
L 497.147628 658.535985 
L 498.494407 658.513747 
L 498.990589 658.533996 
L 499.415888 658.509034 
L 499.841186 658.364759 
L 500.124719 657.860755 
L 500.904433 655.152626 
L 501.0462 655.461455 
L 501.329732 656.671071 
L 501.684148 657.782996 
L 501.896797 658.21499 
L 502.038563 658.320634 
L 502.322096 658.420322 
L 503.527109 658.398779 
L 504.023291 657.993786 
L 505.015654 657.106432 
L 505.228304 657.156241 
L 505.299187 657.097194 
L 505.511836 657.191875 
L 505.653603 657.244152 
L 505.866252 657.399858 
L 506.078901 657.496265 
L 506.149784 657.651632 
L 506.220668 657.581084 
L 507.496564 658.172141 
L 508.559811 658.345672 
L 508.77246 658.346035 
L 509.055992 658.382443 
L 509.552174 658.397205 
L 510.119239 658.449403 
L 510.331889 658.437846 
L 514.868408 658.510337 
L 515.57724 658.506594 
L 520.680825 658.389766 
L 520.893474 658.342933 
L 521.24789 658.276478 
L 521.460539 658.356398 
L 521.885838 658.49034 
L 523.3035 658.524962 
L 524.154098 658.439167 
L 524.650279 658.367024 
L 525.429994 658.510944 
L 527.627371 658.519559 
L 528.123552 658.532242 
L 537.196592 658.530694 
L 537.905423 658.542849 
L 538.330722 658.528796 
L 540.740748 658.53122 
L 541.166047 658.527212 
L 541.520463 658.323942 
L 541.733112 657.815387 
L 542.016644 655.90498 
L 542.796359 643.816698 
L 542.938125 644.572354 
L 543.079891 646.449529 
L 543.50519 654.74544 
L 543.859606 657.469689 
L 544.143138 658.042603 
L 544.426671 658.257231 
L 546.624047 658.490819 
L 548.821424 658.506959 
L 549.317606 658.508841 
L 553.641477 658.507303 
L 553.925009 658.522678 
L 558.107113 658.498197 
L 559.808308 658.486938 
L 560.658906 658.509429 
L 561.580386 658.518846 
L 568.881348 658.547156 
L 569.16488 658.528639 
L 571.787556 658.532507 
L 572.992569 658.536369 
L 573.559634 658.533554 
L 575.827894 658.525519 
L 577.387323 658.490085 
L 577.954388 658.436854 
L 580.577063 658.52213 
L 581.64031 658.524544 
L 584.050336 658.518459 
L 585.680648 658.514724 
L 586.531245 658.532519 
L 588.23244 658.529682 
L 588.799505 658.505055 
L 589.153921 658.524852 
L 592.272778 658.517016 
L 593.265142 658.490035 
L 593.761324 658.501022 
L 595.887818 658.518047 
L 596.242233 658.492009 
L 596.738415 658.50955 
L 597.589012 658.522945 
L 605.527922 658.515608 
L 605.953221 658.526145 
L 629.202885 658.517845 
L 629.699067 658.527069 
L 630.195249 658.521442 
L 632.534392 658.518455 
L 632.959691 658.520725 
L 633.314106 658.515627 
L 633.668522 658.541885 
L 633.881171 658.504258 
L 639.268289 658.523621 
L 639.480938 658.517352 
L 642.316263 658.522348 
L 643.804808 658.52076 
L 644.655406 658.515622 
L 645.506003 658.53306 
L 646.002185 658.521022 
L 647.065432 658.515853 
L 648.412211 658.519647 
L 649.121043 658.51483 
L 651.460186 658.511428 
L 651.814601 658.509728 
L 652.594316 658.487374 
L 653.090497 658.443196 
L 653.799329 658.318972 
L 655.42964 658.487067 
L 655.854939 658.484118 
L 659.96616 658.528195 
L 660.17881 658.507881 
L 660.462342 658.499444 
L 661.029407 658.49145 
L 663.935615 658.504895 
L 664.219148 658.503732 
L 664.786213 658.494555 
L 665.069745 658.508055 
L 666.274758 658.508728 
L 666.983589 658.498349 
L 669.889797 658.493827 
L 670.527746 658.51003 
L 672.937772 658.496307 
L 673.504837 658.518452 
L 674.001019 658.512071 
L 675.206032 658.510343 
L 675.773097 658.51048 
L 676.623694 658.49708 
L 677.686941 658.497741 
L 680.593149 658.491149 
L 681.231097 658.499799 
L 682.152578 658.495648 
L 682.43611 658.46809 
L 682.64876 658.498716 
L 683.357591 658.501722 
L 683.641123 658.48415 
L 683.995539 658.491923 
L 684.775253 658.509011 
L 685.342318 658.482393 
L 685.625851 658.501447 
L 686.122033 658.498876 
L 687.327046 658.492622 
L 688.390292 658.48664 
L 689.311773 658.489346 
L 690.304137 658.498701 
L 691.083851 658.497018 
L 691.863565 658.477636 
L 692.076215 658.481816 
L 693.210345 658.498584 
L 693.77741 658.471997 
L 694.131825 658.504616 
L 695.83302 658.49076 
L 696.683618 658.476034 
L 696.896267 658.493594 
L 697.605098 658.475791 
L 698.10128 658.483611 
L 699.377176 658.479255 
L 704.480761 658.508951 
L 704.764294 658.463303 
L 705.189593 658.481061 
L 705.473125 658.491666 
L 705.473125 658.491666 
" clip-path="url(#pa53e132100)" style="fill: none; stroke: #0000ff; stroke-width: 1.5; stroke-linecap: square"/>
   </g>
   <g id="patch_3">
    <path d="M 55.333125 664.0975 
L 55.333125 25.3575 
" style="fill: none; stroke: #000000; stroke-width: 1.5; stroke-linejoin: miter; stroke-linecap: square"/>
   </g>
   <g id="patch_4">
    <path d="M 55.333125 664.0975 
L 705.473125 664.0975 
" style="fill: none; stroke: #000000; stroke-width: 1.5; stroke-linejoin: miter; stroke-linecap: square"/>
   </g>
   <g id="patch_5">
    <path d="M 125.790949 564.353672 
Q 125.790949 568.853187 125.790949 573.352701 
" style="fill: none; stroke: #ff0000; stroke-width: 0.5; stroke-linecap: round"/>
   </g>
   <g id="text_18">
    <!-- 14:0 -->
    <g transform="translate(123.519324 557.884631) rotate(-90) scale(0.08 -0.08)">
     <defs>
      <path id="DejaVuSans-3a" d="M 750 794 
L 1409 794 
L 1409 0 
L 750 0 
L 750 794 
z
M 750 3309 
L 1409 3309 
L 1409 2516 
L 750 2516 
L 750 3309 
z
" transform="scale(0.015625)"/>
     </defs>
     <use xlink:href="#DejaVuSans-31"/>
     <use xlink:href="#DejaVuSans-34" transform="translate(63.623047 0)"/>
     <use xlink:href="#DejaVuSans-3a" transform="translate(127.246094 0)"/>
     <use xlink:href="#DejaVuSans-30" transform="translate(160.9375 0)"/>
    </g>
    <!-- 13.56 -->
    <g transform="translate(132.477574 560.353381) rotate(-90) scale(0.08 -0.08)">
     <use xlink:href="#DejaVuSans-31"/>
     <use xlink:href="#DejaVuSans-33" transform="translate(63.623047 0)"/>
     <use xlink:href="#DejaVuSans-2e" transform="translate(127.246094 0)"/>
     <use xlink:href="#DejaVuSans-35" transform="translate(159.033203 0)"/>
     <use xlink:href="#DejaVuSans-36" transform="translate(222.65625 0)"/>
    </g>
   </g>
   <g id="patch_6">
    <path d="M 202.77002 436.202358 
Q 202.77002 440.701872 202.77002 445.201387 
" style="fill: none; stroke: #ff0000; stroke-width: 0.5; stroke-linecap: round"/>
   </g>
   <g id="text_19">
    <!-- 16:0 -->
    <g transform="translate(200.498395 429.733316) rotate(-90) scale(0.08 -0.08)">
     <use xlink:href="#DejaVuSans-31"/>
     <use xlink:href="#DejaVuSans-36" transform="translate(63.623047 0)"/>
     <use xlink:href="#DejaVuSans-3a" transform="translate(127.246094 0)"/>
     <use xlink:href="#DejaVuSans-30" transform="translate(160.9375 0)"/>
    </g>
    <!-- 17.45 -->
    <g transform="translate(209.456645 432.202066) rotate(-90) scale(0.08 -0.08)">
     <defs>
      <path id="DejaVuSans-37" d="M 525 4666 
L 3525 4666 
L 3525 4397 
L 1831 0 
L 1172 0 
L 2766 4134 
L 525 4134 
L 525 4666 
z
" transform="scale(0.015625)"/>
     </defs>
     <use xlink:href="#DejaVuSans-31"/>
     <use xlink:href="#DejaVuSans-37" transform="translate(63.623047 0)"/>
     <use xlink:href="#DejaVuSans-2e" transform="translate(127.246094 0)"/>
     <use xlink:href="#DejaVuSans-34" transform="translate(159.033203 0)"/>
     <use xlink:href="#DejaVuSans-35" transform="translate(222.65625 0)"/>
    </g>
   </g>
   <g id="patch_7">
    <path d="M 226.586749 96.957097 
Q 226.586749 101.455132 226.586749 105.953168 
" style="fill: none; stroke: #ff0000; stroke-width: 0.5; stroke-linecap: round"/>
   </g>
   <g id="text_20">
    <!-- 16:1-9 -->
    <g transform="translate(224.315124 92.95319) rotate(-90) scale(0.08 -0.08)">
     <defs>
      <path id="DejaVuSans-2d" d="M 313 2009 
L 1997 2009 
L 1997 1497 
L 313 1497 
L 313 2009 
z
" transform="scale(0.015625)"/>
      <path id="DejaVuSans-39" d="M 703 97 
L 703 672 
Q 941 559 1184 500 
Q 1428 441 1663 441 
Q 2288 441 2617 861 
Q 2947 1281 2994 2138 
Q 2813 1869 2534 1725 
Q 2256 1581 1919 1581 
Q 1219 1581 811 2004 
Q 403 2428 403 3163 
Q 403 3881 828 4315 
Q 1253 4750 1959 4750 
Q 2769 4750 3195 4129 
Q 3622 3509 3622 2328 
Q 3622 1225 3098 567 
Q 2575 -91 1691 -91 
Q 1453 -91 1209 -44 
Q 966 3 703 97 
z
M 1959 2075 
Q 2384 2075 2632 2365 
Q 2881 2656 2881 3163 
Q 2881 3666 2632 3958 
Q 2384 4250 1959 4250 
Q 1534 4250 1286 3958 
Q 1038 3666 1038 3163 
Q 1038 2656 1286 2365 
Q 1534 2075 1959 2075 
z
" transform="scale(0.015625)"/>
     </defs>
     <use xlink:href="#DejaVuSans-31"/>
     <use xlink:href="#DejaVuSans-36" transform="translate(63.623047 0)"/>
     <use xlink:href="#DejaVuSans-3a" transform="translate(127.246094 0)"/>
     <use xlink:href="#DejaVuSans-31" transform="translate(160.9375 0)"/>
     <use xlink:href="#DejaVuSans-2d" transform="translate(224.560547 0)"/>
     <use xlink:href="#DejaVuSans-39" transform="translate(260.644531 0)"/>
    </g>
    <!-- 18.66 -->
    <g transform="translate(233.273374 91.433815) rotate(-90) scale(0.08 -0.08)">
     <use xlink:href="#DejaVuSans-31"/>
     <use xlink:href="#DejaVuSans-38" transform="translate(63.623047 0)"/>
     <use xlink:href="#DejaVuSans-2e" transform="translate(127.246094 0)"/>
     <use xlink:href="#DejaVuSans-36" transform="translate(159.033203 0)"/>
     <use xlink:href="#DejaVuSans-36" transform="translate(222.65625 0)"/>
    </g>
   </g>
   <g id="patch_8">
    <path d="M 233.908863 644.072223 
Q 232.401921 648.670751 230.894979 653.269278 
" style="fill: none; stroke: #ff0000; stroke-width: 0.5; stroke-linecap: round"/>
   </g>
   <g id="text_21">
    <!-- 16:1-11 -->
    <g transform="translate(238.001046 640.168288) rotate(-90) scale(0.08 -0.08)">
     <use xlink:href="#DejaVuSans-31"/>
     <use xlink:href="#DejaVuSans-36" transform="translate(63.623047 0)"/>
     <use xlink:href="#DejaVuSans-3a" transform="translate(127.246094 0)"/>
     <use xlink:href="#DejaVuSans-31" transform="translate(160.9375 0)"/>
     <use xlink:href="#DejaVuSans-2d" transform="translate(224.560547 0)"/>
     <use xlink:href="#DejaVuSans-31" transform="translate(260.644531 0)"/>
     <use xlink:href="#DejaVuSans-31" transform="translate(324.267578 0)"/>
    </g>
    <!-- 18.84 -->
    <g transform="translate(246.959296 636.103913) rotate(-90) scale(0.08 -0.08)">
     <use xlink:href="#DejaVuSans-31"/>
     <use xlink:href="#DejaVuSans-38" transform="translate(63.623047 0)"/>
     <use xlink:href="#DejaVuSans-2e" transform="translate(127.246094 0)"/>
     <use xlink:href="#DejaVuSans-38" transform="translate(159.033203 0)"/>
     <use xlink:href="#DejaVuSans-34" transform="translate(222.65625 0)"/>
    </g>
   </g>
   <g id="patch_9">
    <path d="M 297.115456 640.528065 
Q 297.115456 645.027579 297.115456 649.527094 
" style="fill: none; stroke: #ff0000; stroke-width: 0.5; stroke-linecap: round"/>
   </g>
   <g id="text_22">
    <!-- 18:0 -->
    <g transform="translate(294.843831 634.059023) rotate(-90) scale(0.08 -0.08)">
     <use xlink:href="#DejaVuSans-31"/>
     <use xlink:href="#DejaVuSans-38" transform="translate(63.623047 0)"/>
     <use xlink:href="#DejaVuSans-3a" transform="translate(127.246094 0)"/>
     <use xlink:href="#DejaVuSans-30" transform="translate(160.9375 0)"/>
    </g>
    <!-- 22.22 -->
    <g transform="translate(303.802081 636.527773) rotate(-90) scale(0.08 -0.08)">
     <use xlink:href="#DejaVuSans-32"/>
     <use xlink:href="#DejaVuSans-32" transform="translate(63.623047 0)"/>
     <use xlink:href="#DejaVuSans-2e" transform="translate(127.246094 0)"/>
     <use xlink:href="#DejaVuSans-32" transform="translate(159.033203 0)"/>
     <use xlink:href="#DejaVuSans-32" transform="translate(222.65625 0)"/>
    </g>
   </g>
   <g id="patch_10">
    <path d="M 322.420731 559.634383 
Q 322.420731 564.132419 322.420731 568.630454 
" style="fill: none; stroke: #ff0000; stroke-width: 0.5; stroke-linecap: round"/>
   </g>
   <g id="text_23">
    <!-- 18:1-9 -->
    <g transform="translate(320.149106 555.630476) rotate(-90) scale(0.08 -0.08)">
     <use xlink:href="#DejaVuSans-31"/>
     <use xlink:href="#DejaVuSans-38" transform="translate(63.623047 0)"/>
     <use xlink:href="#DejaVuSans-3a" transform="translate(127.246094 0)"/>
     <use xlink:href="#DejaVuSans-31" transform="translate(160.9375 0)"/>
     <use xlink:href="#DejaVuSans-2d" transform="translate(224.560547 0)"/>
     <use xlink:href="#DejaVuSans-39" transform="translate(260.644531 0)"/>
    </g>
    <!-- 23.50 -->
    <g transform="translate(329.107356 554.111101) rotate(-90) scale(0.08 -0.08)">
     <use xlink:href="#DejaVuSans-32"/>
     <use xlink:href="#DejaVuSans-33" transform="translate(63.623047 0)"/>
     <use xlink:href="#DejaVuSans-2e" transform="translate(127.246094 0)"/>
     <use xlink:href="#DejaVuSans-35" transform="translate(159.033203 0)"/>
     <use xlink:href="#DejaVuSans-30" transform="translate(222.65625 0)"/>
    </g>
   </g>
   <g id="patch_11">
    <path d="M 329.813727 635.64568 
Q 328.306785 640.244208 326.799843 644.842735 
" style="fill: none; stroke: #ff0000; stroke-width: 0.5; stroke-linecap: round"/>
   </g>
   <g id="text_24">
    <!-- 18:1-11 -->
    <g transform="translate(333.905911 631.741745) rotate(-90) scale(0.08 -0.08)">
     <use xlink:href="#DejaVuSans-31"/>
     <use xlink:href="#DejaVuSans-38" transform="translate(63.623047 0)"/>
     <use xlink:href="#DejaVuSans-3a" transform="translate(127.246094 0)"/>
     <use xlink:href="#DejaVuSans-31" transform="translate(160.9375 0)"/>
     <use xlink:href="#DejaVuSans-2d" transform="translate(224.560547 0)"/>
     <use xlink:href="#DejaVuSans-31" transform="translate(260.644531 0)"/>
     <use xlink:href="#DejaVuSans-31" transform="translate(324.267578 0)"/>
    </g>
    <!-- 23.69 -->
    <g transform="translate(342.864161 627.67737) rotate(-90) scale(0.08 -0.08)">
     <use xlink:href="#DejaVuSans-32"/>
     <use xlink:href="#DejaVuSans-33" transform="translate(63.623047 0)"/>
     <use xlink:href="#DejaVuSans-2e" transform="translate(127.246094 0)"/>
     <use xlink:href="#DejaVuSans-36" transform="translate(159.033203 0)"/>
     <use xlink:href="#DejaVuSans-39" transform="translate(222.65625 0)"/>
    </g>
   </g>
   <g id="patch_12">
    <path d="M 361.760864 642.73972 
Q 361.760864 647.236867 361.760864 651.734015 
" style="fill: none; stroke: #ff0000; stroke-width: 0.5; stroke-linecap: round"/>
   </g>
   <g id="text_25">
    <!-- 18:2-9,12 -->
    <g transform="translate(359.489239 638.733642) rotate(-90) scale(0.08 -0.08)">
     <defs>
      <path id="DejaVuSans-2c" d="M 750 794 
L 1409 794 
L 1409 256 
L 897 -744 
L 494 -744 
L 750 256 
L 750 794 
z
" transform="scale(0.015625)"/>
     </defs>
     <use xlink:href="#DejaVuSans-31"/>
     <use xlink:href="#DejaVuSans-38" transform="translate(63.623047 0)"/>
     <use xlink:href="#DejaVuSans-3a" transform="translate(127.246094 0)"/>
     <use xlink:href="#DejaVuSans-32" transform="translate(160.9375 0)"/>
     <use xlink:href="#DejaVuSans-2d" transform="translate(224.560547 0)"/>
     <use xlink:href="#DejaVuSans-39" transform="translate(260.644531 0)"/>
     <use xlink:href="#DejaVuSans-2c" transform="translate(324.267578 0)"/>
     <use xlink:href="#DejaVuSans-31" transform="translate(356.054688 0)"/>
     <use xlink:href="#DejaVuSans-32" transform="translate(419.677734 0)"/>
    </g>
    <!-- 25.49 -->
    <g transform="translate(368.447489 630.853017) rotate(-90) scale(0.08 -0.08)">
     <use xlink:href="#DejaVuSans-32"/>
     <use xlink:href="#DejaVuSans-35" transform="translate(63.623047 0)"/>
     <use xlink:href="#DejaVuSans-2e" transform="translate(127.246094 0)"/>
     <use xlink:href="#DejaVuSans-34" transform="translate(159.033203 0)"/>
     <use xlink:href="#DejaVuSans-39" transform="translate(222.65625 0)"/>
    </g>
   </g>
   <g id="patch_13">
    <path d="M 483.11277 643.418197 
Q 483.11277 647.916644 483.11277 652.415091 
" style="fill: none; stroke: #ff0000; stroke-width: 0.5; stroke-linecap: round"/>
   </g>
   <g id="text_26">
    <!-- 20:3-8,11,14 -->
    <g transform="translate(480.841145 639.415296) rotate(-90) scale(0.08 -0.08)">
     <use xlink:href="#DejaVuSans-32"/>
     <use xlink:href="#DejaVuSans-30" transform="translate(63.623047 0)"/>
     <use xlink:href="#DejaVuSans-3a" transform="translate(127.246094 0)"/>
     <use xlink:href="#DejaVuSans-33" transform="translate(160.9375 0)"/>
     <use xlink:href="#DejaVuSans-2d" transform="translate(224.560547 0)"/>
     <use xlink:href="#DejaVuSans-38" transform="translate(260.644531 0)"/>
     <use xlink:href="#DejaVuSans-2c" transform="translate(324.267578 0)"/>
     <use xlink:href="#DejaVuSans-31" transform="translate(356.054688 0)"/>
     <use xlink:href="#DejaVuSans-31" transform="translate(419.677734 0)"/>
     <use xlink:href="#DejaVuSans-2c" transform="translate(483.300781 0)"/>
     <use xlink:href="#DejaVuSans-31" transform="translate(515.087891 0)"/>
     <use xlink:href="#DejaVuSans-34" transform="translate(578.710938 0)"/>
    </g>
    <!-- 31.62 -->
    <g transform="translate(489.799395 625.173421) rotate(-90) scale(0.08 -0.08)">
     <use xlink:href="#DejaVuSans-33"/>
     <use xlink:href="#DejaVuSans-31" transform="translate(63.623047 0)"/>
     <use xlink:href="#DejaVuSans-2e" transform="translate(127.246094 0)"/>
     <use xlink:href="#DejaVuSans-36" transform="translate(159.033203 0)"/>
     <use xlink:href="#DejaVuSans-32" transform="translate(222.65625 0)"/>
    </g>
   </g>
   <g id="patch_14">
    <path d="M 500.904433 644.156067 
Q 500.904433 648.654293 500.904433 653.152519 
" style="fill: none; stroke: #ff0000; stroke-width: 0.5; stroke-linecap: round"/>
   </g>
   <g id="text_27">
    <!-- 20:4-5,8,11,14 -->
    <g transform="translate(498.632808 640.152626) rotate(-90) scale(0.08 -0.08)">
     <use xlink:href="#DejaVuSans-32"/>
     <use xlink:href="#DejaVuSans-30" transform="translate(63.623047 0)"/>
     <use xlink:href="#DejaVuSans-3a" transform="translate(127.246094 0)"/>
     <use xlink:href="#DejaVuSans-34" transform="translate(160.9375 0)"/>
     <use xlink:href="#DejaVuSans-2d" transform="translate(224.560547 0)"/>
     <use xlink:href="#DejaVuSans-35" transform="translate(260.644531 0)"/>
     <use xlink:href="#DejaVuSans-2c" transform="translate(324.267578 0)"/>
     <use xlink:href="#DejaVuSans-38" transform="translate(356.054688 0)"/>
     <use xlink:href="#DejaVuSans-2c" transform="translate(419.677734 0)"/>
     <use xlink:href="#DejaVuSans-31" transform="translate(451.464844 0)"/>
     <use xlink:href="#DejaVuSans-31" transform="translate(515.087891 0)"/>
     <use xlink:href="#DejaVuSans-2c" transform="translate(578.710938 0)"/>
     <use xlink:href="#DejaVuSans-31" transform="translate(610.498047 0)"/>
     <use xlink:href="#DejaVuSans-34" transform="translate(674.121094 0)"/>
    </g>
    <!-- 32.52 -->
    <g transform="translate(507.591058 622.094501) rotate(-90) scale(0.08 -0.08)">
     <use xlink:href="#DejaVuSans-33"/>
     <use xlink:href="#DejaVuSans-32" transform="translate(63.623047 0)"/>
     <use xlink:href="#DejaVuSans-2e" transform="translate(127.246094 0)"/>
     <use xlink:href="#DejaVuSans-35" transform="translate(159.033203 0)"/>
     <use xlink:href="#DejaVuSans-32" transform="translate(222.65625 0)"/>
    </g>
   </g>
   <g id="patch_15">
    <path d="M 542.796359 632.819213 
Q 542.796359 637.317818 542.796359 641.816423 
" style="fill: none; stroke: #ff0000; stroke-width: 0.5; stroke-linecap: round"/>
   </g>
   <g id="text_28">
    <!-- 20:5-5,8,11,14,17 -->
    <g transform="translate(540.524734 628.816698) rotate(-90) scale(0.08 -0.08)">
     <use xlink:href="#DejaVuSans-32"/>
     <use xlink:href="#DejaVuSans-30" transform="translate(63.623047 0)"/>
     <use xlink:href="#DejaVuSans-3a" transform="translate(127.246094 0)"/>
     <use xlink:href="#DejaVuSans-35" transform="translate(160.9375 0)"/>
     <use xlink:href="#DejaVuSans-2d" transform="translate(224.560547 0)"/>
     <use xlink:href="#DejaVuSans-35" transform="translate(260.644531 0)"/>
     <use xlink:href="#DejaVuSans-2c" transform="translate(324.267578 0)"/>
     <use xlink:href="#DejaVuSans-38" transform="translate(356.054688 0)"/>
     <use xlink:href="#DejaVuSans-2c" transform="translate(419.677734 0)"/>
     <use xlink:href="#DejaVuSans-31" transform="translate(451.464844 0)"/>
     <use xlink:href="#DejaVuSans-31" transform="translate(515.087891 0)"/>
     <use xlink:href="#DejaVuSans-2c" transform="translate(578.710938 0)"/>
     <use xlink:href="#DejaVuSans-31" transform="translate(610.498047 0)"/>
     <use xlink:href="#DejaVuSans-34" transform="translate(674.121094 0)"/>
     <use xlink:href="#DejaVuSans-2c" transform="translate(737.744141 0)"/>
     <use xlink:href="#DejaVuSans-31" transform="translate(769.53125 0)"/>
     <use xlink:href="#DejaVuSans-37" transform="translate(833.154297 0)"/>
    </g>
    <!-- 34.64 -->
    <g transform="translate(549.482984 604.397323) rotate(-90) scale(0.08 -0.08)">
     <use xlink:href="#DejaVuSans-33"/>
     <use xlink:href="#DejaVuSans-34" transform="translate(63.623047 0)"/>
     <use xlink:href="#DejaVuSans-2e" transform="translate(127.246094 0)"/>
     <use xlink:href="#DejaVuSans-36" transform="translate(159.033203 0)"/>
     <use xlink:href="#DejaVuSans-34" transform="translate(222.65625 0)"/>
    </g>
   </g>
   <g id="text_29">
    <!-- Хроматограмма МСД-1 : TIC -->
    <g transform="translate(263.429375 19.3575) scale(0.16 -0.16)">
     <defs>
      <path id="DejaVuSans-425" d="M 403 4666 
L 1081 4666 
L 2241 2931 
L 3406 4666 
L 4084 4666 
L 2584 2425 
L 4184 0 
L 3506 0 
L 2194 1984 
L 872 0 
L 191 0 
L 1856 2491 
L 403 4666 
z
" transform="scale(0.015625)"/>
      <path id="DejaVuSans-430" d="M 2194 1759 
Q 1497 1759 1228 1600 
Q 959 1441 959 1056 
Q 959 750 1161 570 
Q 1363 391 1709 391 
Q 2188 391 2477 730 
Q 2766 1069 2766 1631 
L 2766 1759 
L 2194 1759 
z
M 3341 1997 
L 3341 0 
L 2766 0 
L 2766 531 
Q 2569 213 2275 61 
Q 1981 -91 1556 -91 
Q 1019 -91 701 211 
Q 384 513 384 1019 
Q 384 1609 779 1909 
Q 1175 2209 1959 2209 
L 2766 2209 
L 2766 2266 
Q 2766 2663 2505 2880 
Q 2244 3097 1772 3097 
Q 1472 3097 1187 3025 
Q 903 2953 641 2809 
L 641 3341 
Q 956 3463 1253 3523 
Q 1550 3584 1831 3584 
Q 2591 3584 2966 3190 
Q 3341 2797 3341 1997 
z
" transform="scale(0.015625)"/>
      <path id="DejaVuSans-433" d="M 581 0 
L 581 3500 
L 3050 3500 
L 3050 3041 
L 1159 3041 
L 1159 0 
L 581 0 
z
" transform="scale(0.015625)"/>
      <path id="DejaVuSans-41c" d="M 628 4666 
L 1569 4666 
L 2759 1491 
L 3956 4666 
L 4897 4666 
L 4897 0 
L 4281 0 
L 4281 4097 
L 3078 897 
L 2444 897 
L 1241 4097 
L 1241 0 
L 628 0 
L 628 4666 
z
" transform="scale(0.015625)"/>
      <path id="DejaVuSans-421" d="M 4122 4306 
L 4122 3641 
Q 3803 3938 3442 4084 
Q 3081 4231 2675 4231 
Q 1875 4231 1450 3742 
Q 1025 3253 1025 2328 
Q 1025 1406 1450 917 
Q 1875 428 2675 428 
Q 3081 428 3442 575 
Q 3803 722 4122 1019 
L 4122 359 
Q 3791 134 3420 21 
Q 3050 -91 2638 -91 
Q 1578 -91 968 557 
Q 359 1206 359 2328 
Q 359 3453 968 4101 
Q 1578 4750 2638 4750 
Q 3056 4750 3426 4639 
Q 3797 4528 4122 4306 
z
" transform="scale(0.015625)"/>
      <path id="DejaVuSans-414" d="M 1459 531 
L 3522 531 
L 3522 4134 
L 2006 4134 
L 2006 3472 
Q 2006 1913 1656 878 
Q 1584 666 1459 531 
z
M 538 531 
Q 956 728 1075 1103 
Q 1378 2066 1378 3784 
L 1378 4666 
L 4153 4666 
L 4153 531 
L 4684 531 
L 4684 -1003 
L 4153 -1003 
L 4153 0 
L 847 0 
L 847 -1003 
L 316 -1003 
L 316 531 
L 538 531 
z
" transform="scale(0.015625)"/>
      <path id="DejaVuSans-54" d="M -19 4666 
L 3928 4666 
L 3928 4134 
L 2272 4134 
L 2272 0 
L 1638 0 
L 1638 4134 
L -19 4134 
L -19 4666 
z
" transform="scale(0.015625)"/>
      <path id="DejaVuSans-49" d="M 628 4666 
L 1259 4666 
L 1259 0 
L 628 0 
L 628 4666 
z
" transform="scale(0.015625)"/>
      <path id="DejaVuSans-43" d="M 4122 4306 
L 4122 3641 
Q 3803 3938 3442 4084 
Q 3081 4231 2675 4231 
Q 1875 4231 1450 3742 
Q 1025 3253 1025 2328 
Q 1025 1406 1450 917 
Q 1875 428 2675 428 
Q 3081 428 3442 575 
Q 3803 722 4122 1019 
L 4122 359 
Q 3791 134 3420 21 
Q 3050 -91 2638 -91 
Q 1578 -91 968 557 
Q 359 1206 359 2328 
Q 359 3453 968 4101 
Q 1578 4750 2638 4750 
Q 3056 4750 3426 4639 
Q 3797 4528 4122 4306 
z
" transform="scale(0.015625)"/>
     </defs>
     <use xlink:href="#DejaVuSans-425"/>
     <use xlink:href="#DejaVuSans-440" transform="translate(68.505859 0)"/>
     <use xlink:href="#DejaVuSans-43e" transform="translate(131.982422 0)"/>
     <use xlink:href="#DejaVuSans-43c" transform="translate(193.164062 0)"/>
     <use xlink:href="#DejaVuSans-430" transform="translate(268.603516 0)"/>
     <use xlink:href="#DejaVuSans-442" transform="translate(329.882812 0)"/>
     <use xlink:href="#DejaVuSans-43e" transform="translate(388.134766 0)"/>
     <use xlink:href="#DejaVuSans-433" transform="translate(449.316406 0)"/>
     <use xlink:href="#DejaVuSans-440" transform="translate(501.855469 0)"/>
     <use xlink:href="#DejaVuSans-430" transform="translate(565.332031 0)"/>
     <use xlink:href="#DejaVuSans-43c" transform="translate(626.611328 0)"/>
     <use xlink:href="#DejaVuSans-43c" transform="translate(702.050781 0)"/>
     <use xlink:href="#DejaVuSans-430" transform="translate(777.490234 0)"/>
     <use xlink:href="#DejaVuSans-20" transform="translate(838.769531 0)"/>
     <use xlink:href="#DejaVuSans-41c" transform="translate(870.556641 0)"/>
     <use xlink:href="#DejaVuSans-421" transform="translate(956.835938 0)"/>
     <use xlink:href="#DejaVuSans-414" transform="translate(1026.660156 0)"/>
     <use xlink:href="#DejaVuSans-2d" transform="translate(1104.785156 0)"/>
     <use xlink:href="#DejaVuSans-31" transform="translate(1140.869141 0)"/>
     <use xlink:href="#DejaVuSans-20" transform="translate(1204.492188 0)"/>
     <use xlink:href="#DejaVuSans-3a" transform="translate(1236.279297 0)"/>
     <use xlink:href="#DejaVuSans-20" transform="translate(1269.970703 0)"/>
     <use xlink:href="#DejaVuSans-54" transform="translate(1301.757812 0)"/>
     <use xlink:href="#DejaVuSans-49" transform="translate(1362.841797 0)"/>
     <use xlink:href="#DejaVuSans-43" transform="translate(1392.333984 0)"/>
    </g>
   </g>
  </g>
 </g>
 <defs>
  <clipPath id="pa53e132100">
   <rect x="55.333125" y="25.3575" width="650.14" height="638.74"/>
  </clipPath>
 </defs>
</svg>
