<?xml version="1.0" encoding="utf-8" standalone="no"?>
<!DOCTYPE svg PUBLIC "-//W3C//DTD SVG 1.1//EN"
  "http://www.w3.org/Graphics/SVG/1.1/DTD/svg11.dtd">
<svg xmlns:xlink="http://www.w3.org/1999/xlink" width="712.839375pt" height="713.17625pt" viewBox="0 0 712.839375 713.17625" xmlns="http://www.w3.org/2000/svg" version="1.1">
 <metadata>
  <rdf:RDF xmlns:dc="http://purl.org/dc/elements/1.1/" xmlns:cc="http://creativecommons.org/ns#" xmlns:rdf="http://www.w3.org/1999/02/22-rdf-syntax-ns#">
   <cc:Work>
    <dc:type rdf:resource="http://purl.org/dc/dcmitype/StillImage"/>
    <dc:date>2025-06-10T18:48:41.208028</dc:date>
    <dc:format>image/svg+xml</dc:format>
    <dc:creator>
     <cc:Agent>
      <dc:title>Matplotlib v3.10.3, https://matplotlib.org/</dc:title>
     </cc:Agent>
    </dc:creator>
   </cc:Work>
  </rdf:RDF>
 </metadata>
 <defs>
  <style type="text/css">*{stroke-linejoin: round; stroke-linecap: butt}</style>
 </defs>
 <g id="figure_1">
  <g id="patch_1">
   <path d="M 0 713.17625 
L 712.839375 713.17625 
L 712.839375 0 
L 0 0 
z
" style="fill: #ffffff"/>
  </g>
  <g id="axes_1">
   <g id="patch_2">
    <path d="M 62.971875 663.3775 
L 696.731875 663.3775 
L 696.731875 25.3575 
L 62.971875 25.3575 
z
" style="fill: #ffffff"/>
   </g>
   <g id="matplotlib.axis_1">
    <g id="xtick_1">
     <g id="line2d_1">
      <defs>
       <path id="mce6d3c7c59" d="M 0 0 
L 0 8 
" style="stroke: #000000; stroke-width: 1.5"/>
      </defs>
      <g>
       <use xlink:href="#mce6d3c7c59" x="62.971875" y="663.3775" style="stroke: #000000; stroke-width: 1.5"/>
      </g>
     </g>
     <g id="text_1">
      <!-- 25 -->
      <g transform="translate(54.064375 685.515312) scale(0.14 -0.14)">
       <defs>
        <path id="DejaVuSans-32" d="M 1228 531 
L 3431 531 
L 3431 0 
L 469 0 
L 469 531 
Q 828 903 1448 1529 
Q 2069 2156 2228 2338 
Q 2531 2678 2651 2914 
Q 2772 3150 2772 3378 
Q 2772 3750 2511 3984 
Q 2250 4219 1831 4219 
Q 1534 4219 1204 4116 
Q 875 4013 500 3803 
L 500 4441 
Q 881 4594 1212 4672 
Q 1544 4750 1819 4750 
Q 2544 4750 2975 4387 
Q 3406 4025 3406 3419 
Q 3406 3131 3298 2873 
Q 3191 2616 2906 2266 
Q 2828 2175 2409 1742 
Q 1991 1309 1228 531 
z
" transform="scale(0.015625)"/>
        <path id="DejaVuSans-35" d="M 691 4666 
L 3169 4666 
L 3169 4134 
L 1269 4134 
L 1269 2991 
Q 1406 3038 1543 3061 
Q 1681 3084 1819 3084 
Q 2600 3084 3056 2656 
Q 3513 2228 3513 1497 
Q 3513 744 3044 326 
Q 2575 -91 1722 -91 
Q 1428 -91 1123 -41 
Q 819 9 494 109 
L 494 744 
Q 775 591 1075 516 
Q 1375 441 1709 441 
Q 2250 441 2565 725 
Q 2881 1009 2881 1497 
Q 2881 1984 2565 2268 
Q 2250 2553 1709 2553 
Q 1456 2553 1204 2497 
Q 953 2441 691 2322 
L 691 4666 
z
" transform="scale(0.015625)"/>
       </defs>
       <use xlink:href="#DejaVuSans-32"/>
       <use xlink:href="#DejaVuSans-35" transform="translate(63.623047 0)"/>
      </g>
     </g>
    </g>
    <g id="xtick_2">
     <g id="line2d_2">
      <g>
       <use xlink:href="#mce6d3c7c59" x="133.389653" y="663.3775" style="stroke: #000000; stroke-width: 1.5"/>
      </g>
     </g>
     <g id="text_2">
      <!-- 26 -->
      <g transform="translate(124.482153 685.515312) scale(0.14 -0.14)">
       <defs>
        <path id="DejaVuSans-36" d="M 2113 2584 
Q 1688 2584 1439 2293 
Q 1191 2003 1191 1497 
Q 1191 994 1439 701 
Q 1688 409 2113 409 
Q 2538 409 2786 701 
Q 3034 994 3034 1497 
Q 3034 2003 2786 2293 
Q 2538 2584 2113 2584 
z
M 3366 4563 
L 3366 3988 
Q 3128 4100 2886 4159 
Q 2644 4219 2406 4219 
Q 1781 4219 1451 3797 
Q 1122 3375 1075 2522 
Q 1259 2794 1537 2939 
Q 1816 3084 2150 3084 
Q 2853 3084 3261 2657 
Q 3669 2231 3669 1497 
Q 3669 778 3244 343 
Q 2819 -91 2113 -91 
Q 1303 -91 875 529 
Q 447 1150 447 2328 
Q 447 3434 972 4092 
Q 1497 4750 2381 4750 
Q 2619 4750 2861 4703 
Q 3103 4656 3366 4563 
z
" transform="scale(0.015625)"/>
       </defs>
       <use xlink:href="#DejaVuSans-32"/>
       <use xlink:href="#DejaVuSans-36" transform="translate(63.623047 0)"/>
      </g>
     </g>
    </g>
    <g id="xtick_3">
     <g id="line2d_3">
      <g>
       <use xlink:href="#mce6d3c7c59" x="203.807431" y="663.3775" style="stroke: #000000; stroke-width: 1.5"/>
      </g>
     </g>
     <g id="text_3">
      <!-- 27 -->
      <g transform="translate(194.899931 685.515312) scale(0.14 -0.14)">
       <defs>
        <path id="DejaVuSans-37" d="M 525 4666 
L 3525 4666 
L 3525 4397 
L 1831 0 
L 1172 0 
L 2766 4134 
L 525 4134 
L 525 4666 
z
" transform="scale(0.015625)"/>
       </defs>
       <use xlink:href="#DejaVuSans-32"/>
       <use xlink:href="#DejaVuSans-37" transform="translate(63.623047 0)"/>
      </g>
     </g>
    </g>
    <g id="xtick_4">
     <g id="line2d_4">
      <g>
       <use xlink:href="#mce6d3c7c59" x="274.225208" y="663.3775" style="stroke: #000000; stroke-width: 1.5"/>
      </g>
     </g>
     <g id="text_4">
      <!-- 28 -->
      <g transform="translate(265.317708 685.515312) scale(0.14 -0.14)">
       <defs>
        <path id="DejaVuSans-38" d="M 2034 2216 
Q 1584 2216 1326 1975 
Q 1069 1734 1069 1313 
Q 1069 891 1326 650 
Q 1584 409 2034 409 
Q 2484 409 2743 651 
Q 3003 894 3003 1313 
Q 3003 1734 2745 1975 
Q 2488 2216 2034 2216 
z
M 1403 2484 
Q 997 2584 770 2862 
Q 544 3141 544 3541 
Q 544 4100 942 4425 
Q 1341 4750 2034 4750 
Q 2731 4750 3128 4425 
Q 3525 4100 3525 3541 
Q 3525 3141 3298 2862 
Q 3072 2584 2669 2484 
Q 3125 2378 3379 2068 
Q 3634 1759 3634 1313 
Q 3634 634 3220 271 
Q 2806 -91 2034 -91 
Q 1263 -91 848 271 
Q 434 634 434 1313 
Q 434 1759 690 2068 
Q 947 2378 1403 2484 
z
M 1172 3481 
Q 1172 3119 1398 2916 
Q 1625 2713 2034 2713 
Q 2441 2713 2670 2916 
Q 2900 3119 2900 3481 
Q 2900 3844 2670 4047 
Q 2441 4250 2034 4250 
Q 1625 4250 1398 4047 
Q 1172 3844 1172 3481 
z
" transform="scale(0.015625)"/>
       </defs>
       <use xlink:href="#DejaVuSans-32"/>
       <use xlink:href="#DejaVuSans-38" transform="translate(63.623047 0)"/>
      </g>
     </g>
    </g>
    <g id="xtick_5">
     <g id="line2d_5">
      <g>
       <use xlink:href="#mce6d3c7c59" x="344.642986" y="663.3775" style="stroke: #000000; stroke-width: 1.5"/>
      </g>
     </g>
     <g id="text_5">
      <!-- 29 -->
      <g transform="translate(335.735486 685.515312) scale(0.14 -0.14)">
       <defs>
        <path id="DejaVuSans-39" d="M 703 97 
L 703 672 
Q 941 559 1184 500 
Q 1428 441 1663 441 
Q 2288 441 2617 861 
Q 2947 1281 2994 2138 
Q 2813 1869 2534 1725 
Q 2256 1581 1919 1581 
Q 1219 1581 811 2004 
Q 403 2428 403 3163 
Q 403 3881 828 4315 
Q 1253 4750 1959 4750 
Q 2769 4750 3195 4129 
Q 3622 3509 3622 2328 
Q 3622 1225 3098 567 
Q 2575 -91 1691 -91 
Q 1453 -91 1209 -44 
Q 966 3 703 97 
z
M 1959 2075 
Q 2384 2075 2632 2365 
Q 2881 2656 2881 3163 
Q 2881 3666 2632 3958 
Q 2384 4250 1959 4250 
Q 1534 4250 1286 3958 
Q 1038 3666 1038 3163 
Q 1038 2656 1286 2365 
Q 1534 2075 1959 2075 
z
" transform="scale(0.015625)"/>
       </defs>
       <use xlink:href="#DejaVuSans-32"/>
       <use xlink:href="#DejaVuSans-39" transform="translate(63.623047 0)"/>
      </g>
     </g>
    </g>
    <g id="xtick_6">
     <g id="line2d_6">
      <g>
       <use xlink:href="#mce6d3c7c59" x="415.060764" y="663.3775" style="stroke: #000000; stroke-width: 1.5"/>
      </g>
     </g>
     <g id="text_6">
      <!-- 30 -->
      <g transform="translate(406.153264 685.515312) scale(0.14 -0.14)">
       <defs>
        <path id="DejaVuSans-33" d="M 2597 2516 
Q 3050 2419 3304 2112 
Q 3559 1806 3559 1356 
Q 3559 666 3084 287 
Q 2609 -91 1734 -91 
Q 1441 -91 1130 -33 
Q 819 25 488 141 
L 488 750 
Q 750 597 1062 519 
Q 1375 441 1716 441 
Q 2309 441 2620 675 
Q 2931 909 2931 1356 
Q 2931 1769 2642 2001 
Q 2353 2234 1838 2234 
L 1294 2234 
L 1294 2753 
L 1863 2753 
Q 2328 2753 2575 2939 
Q 2822 3125 2822 3475 
Q 2822 3834 2567 4026 
Q 2313 4219 1838 4219 
Q 1578 4219 1281 4162 
Q 984 4106 628 3988 
L 628 4550 
Q 988 4650 1302 4700 
Q 1616 4750 1894 4750 
Q 2613 4750 3031 4423 
Q 3450 4097 3450 3541 
Q 3450 3153 3228 2886 
Q 3006 2619 2597 2516 
z
" transform="scale(0.015625)"/>
        <path id="DejaVuSans-30" d="M 2034 4250 
Q 1547 4250 1301 3770 
Q 1056 3291 1056 2328 
Q 1056 1369 1301 889 
Q 1547 409 2034 409 
Q 2525 409 2770 889 
Q 3016 1369 3016 2328 
Q 3016 3291 2770 3770 
Q 2525 4250 2034 4250 
z
M 2034 4750 
Q 2819 4750 3233 4129 
Q 3647 3509 3647 2328 
Q 3647 1150 3233 529 
Q 2819 -91 2034 -91 
Q 1250 -91 836 529 
Q 422 1150 422 2328 
Q 422 3509 836 4129 
Q 1250 4750 2034 4750 
z
" transform="scale(0.015625)"/>
       </defs>
       <use xlink:href="#DejaVuSans-33"/>
       <use xlink:href="#DejaVuSans-30" transform="translate(63.623047 0)"/>
      </g>
     </g>
    </g>
    <g id="xtick_7">
     <g id="line2d_7">
      <g>
       <use xlink:href="#mce6d3c7c59" x="485.478542" y="663.3775" style="stroke: #000000; stroke-width: 1.5"/>
      </g>
     </g>
     <g id="text_7">
      <!-- 31 -->
      <g transform="translate(476.571042 685.515312) scale(0.14 -0.14)">
       <defs>
        <path id="DejaVuSans-31" d="M 794 531 
L 1825 531 
L 1825 4091 
L 703 3866 
L 703 4441 
L 1819 4666 
L 2450 4666 
L 2450 531 
L 3481 531 
L 3481 0 
L 794 0 
L 794 531 
z
" transform="scale(0.015625)"/>
       </defs>
       <use xlink:href="#DejaVuSans-33"/>
       <use xlink:href="#DejaVuSans-31" transform="translate(63.623047 0)"/>
      </g>
     </g>
    </g>
    <g id="xtick_8">
     <g id="line2d_8">
      <g>
       <use xlink:href="#mce6d3c7c59" x="555.896319" y="663.3775" style="stroke: #000000; stroke-width: 1.5"/>
      </g>
     </g>
     <g id="text_8">
      <!-- 32 -->
      <g transform="translate(546.988819 685.515312) scale(0.14 -0.14)">
       <use xlink:href="#DejaVuSans-33"/>
       <use xlink:href="#DejaVuSans-32" transform="translate(63.623047 0)"/>
      </g>
     </g>
    </g>
    <g id="xtick_9">
     <g id="line2d_9">
      <g>
       <use xlink:href="#mce6d3c7c59" x="626.314097" y="663.3775" style="stroke: #000000; stroke-width: 1.5"/>
      </g>
     </g>
     <g id="text_9">
      <!-- 33 -->
      <g transform="translate(617.406597 685.515312) scale(0.14 -0.14)">
       <use xlink:href="#DejaVuSans-33"/>
       <use xlink:href="#DejaVuSans-33" transform="translate(63.623047 0)"/>
      </g>
     </g>
    </g>
    <g id="xtick_10">
     <g id="line2d_10">
      <g>
       <use xlink:href="#mce6d3c7c59" x="696.731875" y="663.3775" style="stroke: #000000; stroke-width: 1.5"/>
      </g>
     </g>
     <g id="text_10">
      <!-- 34 -->
      <g transform="translate(687.824375 685.515312) scale(0.14 -0.14)">
       <defs>
        <path id="DejaVuSans-34" d="M 2419 4116 
L 825 1625 
L 2419 1625 
L 2419 4116 
z
M 2253 4666 
L 3047 4666 
L 3047 1625 
L 3713 1625 
L 3713 1100 
L 3047 1100 
L 3047 0 
L 2419 0 
L 2419 1100 
L 313 1100 
L 313 1709 
L 2253 4666 
z
" transform="scale(0.015625)"/>
       </defs>
       <use xlink:href="#DejaVuSans-33"/>
       <use xlink:href="#DejaVuSans-34" transform="translate(63.623047 0)"/>
      </g>
     </g>
    </g>
    <g id="text_11">
     <!-- Время (минуты) -->
     <g transform="translate(320.966563 703.064687) scale(0.14 -0.14)">
      <defs>
       <path id="DejaVuSans-412" d="M 1259 2228 
L 1259 519 
L 2272 519 
Q 2781 519 3026 730 
Q 3272 941 3272 1375 
Q 3272 1813 3026 2020 
Q 2781 2228 2272 2228 
L 1259 2228 
z
M 1259 4147 
L 1259 2741 
L 2194 2741 
Q 2656 2741 2882 2914 
Q 3109 3088 3109 3444 
Q 3109 3797 2882 3972 
Q 2656 4147 2194 4147 
L 1259 4147 
z
M 628 4666 
L 2241 4666 
Q 2963 4666 3353 4366 
Q 3744 4066 3744 3513 
Q 3744 3084 3544 2831 
Q 3344 2578 2956 2516 
Q 3422 2416 3680 2098 
Q 3938 1781 3938 1306 
Q 3938 681 3513 340 
Q 3088 0 2303 0 
L 628 0 
L 628 4666 
z
" transform="scale(0.015625)"/>
       <path id="DejaVuSans-440" d="M 1159 525 
L 1159 -1331 
L 581 -1331 
L 581 3500 
L 1159 3500 
L 1159 2969 
Q 1341 3281 1617 3432 
Q 1894 3584 2278 3584 
Q 2916 3584 3314 3078 
Q 3713 2572 3713 1747 
Q 3713 922 3314 415 
Q 2916 -91 2278 -91 
Q 1894 -91 1617 61 
Q 1341 213 1159 525 
z
M 3116 1747 
Q 3116 2381 2855 2742 
Q 2594 3103 2138 3103 
Q 1681 3103 1420 2742 
Q 1159 2381 1159 1747 
Q 1159 1113 1420 752 
Q 1681 391 2138 391 
Q 2594 391 2855 752 
Q 3116 1113 3116 1747 
z
" transform="scale(0.015625)"/>
       <path id="DejaVuSans-435" d="M 3597 1894 
L 3597 1613 
L 953 1613 
Q 991 1019 1311 708 
Q 1631 397 2203 397 
Q 2534 397 2845 478 
Q 3156 559 3463 722 
L 3463 178 
Q 3153 47 2828 -22 
Q 2503 -91 2169 -91 
Q 1331 -91 842 396 
Q 353 884 353 1716 
Q 353 2575 817 3079 
Q 1281 3584 2069 3584 
Q 2775 3584 3186 3129 
Q 3597 2675 3597 1894 
z
M 3022 2063 
Q 3016 2534 2758 2815 
Q 2500 3097 2075 3097 
Q 1594 3097 1305 2825 
Q 1016 2553 972 2059 
L 3022 2063 
z
" transform="scale(0.015625)"/>
       <path id="DejaVuSans-43c" d="M 581 3500 
L 1422 3500 
L 2416 1156 
L 3413 3500 
L 4247 3500 
L 4247 0 
L 3669 0 
L 3669 2950 
L 2703 672 
L 2128 672 
L 1159 2950 
L 1159 0 
L 581 0 
L 581 3500 
z
" transform="scale(0.015625)"/>
       <path id="DejaVuSans-44f" d="M 1181 2491 
Q 1181 2231 1381 2084 
Q 1581 1938 1953 1938 
L 2728 1938 
L 2728 3041 
L 1953 3041 
Q 1581 3041 1381 2897 
Q 1181 2753 1181 2491 
z
M 363 0 
L 1431 1534 
Q 1069 1616 828 1830 
Q 588 2044 588 2491 
Q 588 2997 923 3248 
Q 1259 3500 1938 3500 
L 3306 3500 
L 3306 0 
L 2728 0 
L 2728 1478 
L 2013 1478 
L 981 0 
L 363 0 
z
" transform="scale(0.015625)"/>
       <path id="DejaVuSans-20" transform="scale(0.015625)"/>
       <path id="DejaVuSans-28" d="M 1984 4856 
Q 1566 4138 1362 3434 
Q 1159 2731 1159 2009 
Q 1159 1288 1364 580 
Q 1569 -128 1984 -844 
L 1484 -844 
Q 1016 -109 783 600 
Q 550 1309 550 2009 
Q 550 2706 781 3412 
Q 1013 4119 1484 4856 
L 1984 4856 
z
" transform="scale(0.015625)"/>
       <path id="DejaVuSans-438" d="M 3578 3500 
L 3578 0 
L 3006 0 
L 3006 2809 
L 1319 0 
L 581 0 
L 581 3500 
L 1153 3500 
L 1153 697 
L 2838 3500 
L 3578 3500 
z
" transform="scale(0.015625)"/>
       <path id="DejaVuSans-43d" d="M 581 3500 
L 1159 3500 
L 1159 2072 
L 3025 2072 
L 3025 3500 
L 3603 3500 
L 3603 0 
L 3025 0 
L 3025 1613 
L 1159 1613 
L 1159 0 
L 581 0 
L 581 3500 
z
" transform="scale(0.015625)"/>
       <path id="DejaVuSans-443" d="M 2059 -325 
Q 1816 -950 1584 -1140 
Q 1353 -1331 966 -1331 
L 506 -1331 
L 506 -850 
L 844 -850 
Q 1081 -850 1212 -737 
Q 1344 -625 1503 -206 
L 1606 56 
L 191 3500 
L 800 3500 
L 1894 763 
L 2988 3500 
L 3597 3500 
L 2059 -325 
z
" transform="scale(0.015625)"/>
       <path id="DejaVuSans-442" d="M 188 3500 
L 3541 3500 
L 3541 3041 
L 2147 3041 
L 2147 0 
L 1581 0 
L 1581 3041 
L 188 3041 
L 188 3500 
z
" transform="scale(0.015625)"/>
       <path id="DejaVuSans-44b" d="M 3907 3500 
L 4482 3500 
L 4482 0 
L 3907 0 
L 3907 3500 
z
M 4195 3584 
L 4195 3584 
z
M 2781 1038 
Q 2781 1319 2576 1466 
Q 2372 1613 1978 1613 
L 1159 1613 
L 1159 459 
L 1978 459 
Q 2372 459 2576 607 
Q 2781 756 2781 1038 
z
M 581 3500 
L 1159 3500 
L 1159 2072 
L 2003 2072 
Q 2672 2072 3033 1817 
Q 3394 1563 3394 1038 
Q 3394 513 3033 256 
Q 2672 0 2003 0 
L 581 0 
L 581 3500 
z
" transform="scale(0.015625)"/>
       <path id="DejaVuSans-29" d="M 513 4856 
L 1013 4856 
Q 1481 4119 1714 3412 
Q 1947 2706 1947 2009 
Q 1947 1309 1714 600 
Q 1481 -109 1013 -844 
L 513 -844 
Q 928 -128 1133 580 
Q 1338 1288 1338 2009 
Q 1338 2731 1133 3434 
Q 928 4138 513 4856 
z
" transform="scale(0.015625)"/>
      </defs>
      <use xlink:href="#DejaVuSans-412"/>
      <use xlink:href="#DejaVuSans-440" transform="translate(68.603516 0)"/>
      <use xlink:href="#DejaVuSans-435" transform="translate(132.080078 0)"/>
      <use xlink:href="#DejaVuSans-43c" transform="translate(193.603516 0)"/>
      <use xlink:href="#DejaVuSans-44f" transform="translate(269.042969 0)"/>
      <use xlink:href="#DejaVuSans-20" transform="translate(329.199219 0)"/>
      <use xlink:href="#DejaVuSans-28" transform="translate(360.986328 0)"/>
      <use xlink:href="#DejaVuSans-43c" transform="translate(400 0)"/>
      <use xlink:href="#DejaVuSans-438" transform="translate(475.439453 0)"/>
      <use xlink:href="#DejaVuSans-43d" transform="translate(540.429688 0)"/>
      <use xlink:href="#DejaVuSans-443" transform="translate(605.810547 0)"/>
      <use xlink:href="#DejaVuSans-442" transform="translate(664.990234 0)"/>
      <use xlink:href="#DejaVuSans-44b" transform="translate(723.242188 0)"/>
      <use xlink:href="#DejaVuSans-29" transform="translate(802.197266 0)"/>
     </g>
    </g>
   </g>
   <g id="matplotlib.axis_2">
    <g id="ytick_1">
     <g id="line2d_11">
      <defs>
       <path id="m9006fdb632" d="M 0 0 
L -8 0 
" style="stroke: #000000; stroke-width: 1.5"/>
      </defs>
      <g>
       <use xlink:href="#m9006fdb632" x="62.971875" y="660.608661" style="stroke: #000000; stroke-width: 1.5"/>
      </g>
     </g>
     <g id="text_12">
      <!-- 0 -->
      <g transform="translate(42.564375 665.927568) scale(0.14 -0.14)">
       <use xlink:href="#DejaVuSans-30"/>
      </g>
     </g>
    </g>
    <g id="ytick_2">
     <g id="line2d_12">
      <g>
       <use xlink:href="#m9006fdb632" x="62.971875" y="522.510583" style="stroke: #000000; stroke-width: 1.5"/>
      </g>
     </g>
     <g id="text_13">
      <!-- 25 -->
      <g transform="translate(33.656875 527.829489) scale(0.14 -0.14)">
       <use xlink:href="#DejaVuSans-32"/>
       <use xlink:href="#DejaVuSans-35" transform="translate(63.623047 0)"/>
      </g>
     </g>
    </g>
    <g id="ytick_3">
     <g id="line2d_13">
      <g>
       <use xlink:href="#m9006fdb632" x="62.971875" y="384.412504" style="stroke: #000000; stroke-width: 1.5"/>
      </g>
     </g>
     <g id="text_14">
      <!-- 50 -->
      <g transform="translate(33.656875 389.73141) scale(0.14 -0.14)">
       <use xlink:href="#DejaVuSans-35"/>
       <use xlink:href="#DejaVuSans-30" transform="translate(63.623047 0)"/>
      </g>
     </g>
    </g>
    <g id="ytick_4">
     <g id="line2d_14">
      <g>
       <use xlink:href="#m9006fdb632" x="62.971875" y="246.314426" style="stroke: #000000; stroke-width: 1.5"/>
      </g>
     </g>
     <g id="text_15">
      <!-- 75 -->
      <g transform="translate(33.656875 251.633332) scale(0.14 -0.14)">
       <use xlink:href="#DejaVuSans-37"/>
       <use xlink:href="#DejaVuSans-35" transform="translate(63.623047 0)"/>
      </g>
     </g>
    </g>
    <g id="ytick_5">
     <g id="line2d_15">
      <g>
       <use xlink:href="#m9006fdb632" x="62.971875" y="108.216347" style="stroke: #000000; stroke-width: 1.5"/>
      </g>
     </g>
     <g id="text_16">
      <!-- 100 -->
      <g transform="translate(24.749375 113.535253) scale(0.14 -0.14)">
       <use xlink:href="#DejaVuSans-31"/>
       <use xlink:href="#DejaVuSans-30" transform="translate(63.623047 0)"/>
       <use xlink:href="#DejaVuSans-30" transform="translate(127.246094 0)"/>
      </g>
     </g>
    </g>
    <g id="text_17">
     <!-- Интенсивность (%) -->
     <g transform="translate(17.837813 414.914375) rotate(-90) scale(0.14 -0.14)">
      <defs>
       <path id="DejaVuSans-418" d="M 4159 4666 
L 4159 0 
L 3547 0 
L 3547 3903 
L 1478 0 
L 628 0 
L 628 4666 
L 1241 4666 
L 1241 763 
L 3309 4666 
L 4159 4666 
z
" transform="scale(0.015625)"/>
       <path id="DejaVuSans-441" d="M 3122 3366 
L 3122 2828 
Q 2878 2963 2633 3030 
Q 2388 3097 2138 3097 
Q 1578 3097 1268 2742 
Q 959 2388 959 1747 
Q 959 1106 1268 751 
Q 1578 397 2138 397 
Q 2388 397 2633 464 
Q 2878 531 3122 666 
L 3122 134 
Q 2881 22 2623 -34 
Q 2366 -91 2075 -91 
Q 1284 -91 818 406 
Q 353 903 353 1747 
Q 353 2603 823 3093 
Q 1294 3584 2113 3584 
Q 2378 3584 2631 3529 
Q 2884 3475 3122 3366 
z
" transform="scale(0.015625)"/>
       <path id="DejaVuSans-432" d="M 1156 1613 
L 1156 459 
L 1975 459 
Q 2369 459 2575 607 
Q 2781 756 2781 1038 
Q 2781 1319 2575 1466 
Q 2369 1613 1975 1613 
L 1156 1613 
z
M 1156 3041 
L 1156 2072 
L 1913 2072 
Q 2238 2072 2444 2201 
Q 2650 2331 2650 2563 
Q 2650 2794 2444 2917 
Q 2238 3041 1913 3041 
L 1156 3041 
z
M 581 3500 
L 1950 3500 
Q 2566 3500 2897 3275 
Q 3228 3050 3228 2634 
Q 3228 2313 3059 2123 
Q 2891 1934 2559 1888 
Q 2956 1813 3175 1575 
Q 3394 1338 3394 981 
Q 3394 513 3033 256 
Q 2672 0 2003 0 
L 581 0 
L 581 3500 
z
" transform="scale(0.015625)"/>
       <path id="DejaVuSans-43e" d="M 1959 3097 
Q 1497 3097 1228 2736 
Q 959 2375 959 1747 
Q 959 1119 1226 758 
Q 1494 397 1959 397 
Q 2419 397 2687 759 
Q 2956 1122 2956 1747 
Q 2956 2369 2687 2733 
Q 2419 3097 1959 3097 
z
M 1959 3584 
Q 2709 3584 3137 3096 
Q 3566 2609 3566 1747 
Q 3566 888 3137 398 
Q 2709 -91 1959 -91 
Q 1206 -91 779 398 
Q 353 888 353 1747 
Q 353 2609 779 3096 
Q 1206 3584 1959 3584 
z
" transform="scale(0.015625)"/>
       <path id="DejaVuSans-44c" d="M 2781 1038 
Q 2781 1319 2576 1466 
Q 2372 1613 1978 1613 
L 1159 1613 
L 1159 459 
L 1978 459 
Q 2372 459 2576 607 
Q 2781 756 2781 1038 
z
M 581 3500 
L 1159 3500 
L 1159 2072 
L 2003 2072 
Q 2672 2072 3033 1817 
Q 3394 1563 3394 1038 
Q 3394 513 3033 256 
Q 2672 0 2003 0 
L 581 0 
L 581 3500 
z
" transform="scale(0.015625)"/>
       <path id="DejaVuSans-25" d="M 4653 2053 
Q 4381 2053 4226 1822 
Q 4072 1591 4072 1178 
Q 4072 772 4226 539 
Q 4381 306 4653 306 
Q 4919 306 5073 539 
Q 5228 772 5228 1178 
Q 5228 1588 5073 1820 
Q 4919 2053 4653 2053 
z
M 4653 2450 
Q 5147 2450 5437 2106 
Q 5728 1763 5728 1178 
Q 5728 594 5436 251 
Q 5144 -91 4653 -91 
Q 4153 -91 3862 251 
Q 3572 594 3572 1178 
Q 3572 1766 3864 2108 
Q 4156 2450 4653 2450 
z
M 1428 4353 
Q 1159 4353 1004 4120 
Q 850 3888 850 3481 
Q 850 3069 1003 2837 
Q 1156 2606 1428 2606 
Q 1700 2606 1854 2837 
Q 2009 3069 2009 3481 
Q 2009 3884 1853 4118 
Q 1697 4353 1428 4353 
z
M 4250 4750 
L 4750 4750 
L 1831 -91 
L 1331 -91 
L 4250 4750 
z
M 1428 4750 
Q 1922 4750 2215 4408 
Q 2509 4066 2509 3481 
Q 2509 2891 2217 2550 
Q 1925 2209 1428 2209 
Q 931 2209 642 2551 
Q 353 2894 353 3481 
Q 353 4063 643 4406 
Q 934 4750 1428 4750 
z
" transform="scale(0.015625)"/>
      </defs>
      <use xlink:href="#DejaVuSans-418"/>
      <use xlink:href="#DejaVuSans-43d" transform="translate(74.804688 0)"/>
      <use xlink:href="#DejaVuSans-442" transform="translate(140.185547 0)"/>
      <use xlink:href="#DejaVuSans-435" transform="translate(198.4375 0)"/>
      <use xlink:href="#DejaVuSans-43d" transform="translate(259.960938 0)"/>
      <use xlink:href="#DejaVuSans-441" transform="translate(325.341797 0)"/>
      <use xlink:href="#DejaVuSans-438" transform="translate(380.322266 0)"/>
      <use xlink:href="#DejaVuSans-432" transform="translate(445.3125 0)"/>
      <use xlink:href="#DejaVuSans-43d" transform="translate(504.248047 0)"/>
      <use xlink:href="#DejaVuSans-43e" transform="translate(569.628906 0)"/>
      <use xlink:href="#DejaVuSans-441" transform="translate(630.810547 0)"/>
      <use xlink:href="#DejaVuSans-442" transform="translate(685.791016 0)"/>
      <use xlink:href="#DejaVuSans-44c" transform="translate(744.042969 0)"/>
      <use xlink:href="#DejaVuSans-20" transform="translate(802.978516 0)"/>
      <use xlink:href="#DejaVuSans-28" transform="translate(834.765625 0)"/>
      <use xlink:href="#DejaVuSans-25" transform="translate(873.779297 0)"/>
      <use xlink:href="#DejaVuSans-29" transform="translate(968.798828 0)"/>
     </g>
    </g>
   </g>
   <g id="line2d_16">
    <path d="M 62.868949 649.527984 
L 63.121256 652.412958 
L 63.373563 653.228262 
L 63.62587 649.995214 
L 63.878177 652.305898 
L 64.130484 650.458458 
L 64.382791 653.477457 
L 64.635098 652.878887 
L 64.887404 652.684423 
L 65.139711 654.118804 
L 65.392018 654.097852 
L 65.644325 654.222965 
L 65.896632 654.955838 
L 66.401246 652.97213 
L 66.653553 653.57998 
L 66.90586 655.595258 
L 67.158167 655.063364 
L 67.410473 654.080565 
L 67.66278 654.056714 
L 67.915087 653.61012 
L 68.167394 654.299302 
L 68.419701 651.952777 
L 68.672008 654.161096 
L 68.924315 653.626368 
L 69.176622 653.797906 
L 69.681236 655.240295 
L 69.933542 653.192943 
L 70.185849 654.228 
L 70.438156 653.524037 
L 70.690463 654.061297 
L 71.195077 653.628461 
L 71.447384 653.973843 
L 71.699691 651.225744 
L 71.951998 651.85058 
L 72.204305 651.719228 
L 72.456612 652.714865 
L 72.708918 651.89875 
L 72.961225 651.742981 
L 73.213532 652.710656 
L 73.465839 655.180388 
L 73.718146 652.643828 
L 73.970453 652.349333 
L 74.22276 654.943357 
L 74.475067 652.678367 
L 74.727374 654.681282 
L 74.979681 655.19746 
L 75.231987 653.783974 
L 75.736601 655.845691 
L 75.988908 655.142123 
L 76.241215 656.555426 
L 76.493522 654.54391 
L 76.745829 655.197355 
L 76.998136 653.936622 
L 77.250443 655.124826 
L 77.50275 655.391882 
L 77.755056 653.960509 
L 78.25967 653.972341 
L 78.511977 654.658219 
L 78.764284 654.068428 
L 79.016591 651.64121 
L 79.268898 654.478647 
L 79.521205 655.162256 
L 79.773512 653.356695 
L 80.025819 653.24088 
L 80.278125 650.585828 
L 80.530432 652.84077 
L 81.035046 651.533502 
L 81.53966 654.038201 
L 81.791967 651.993031 
L 82.044274 652.105929 
L 82.296581 651.971932 
L 82.548888 653.43902 
L 82.801194 652.845495 
L 83.053501 653.747822 
L 83.305808 653.550203 
L 83.558115 654.455702 
L 83.810422 653.203523 
L 84.062729 655.66234 
L 84.567343 654.193378 
L 84.81965 655.248994 
L 85.071957 654.310146 
L 85.324263 654.440564 
L 86.081184 655.329799 
L 86.585798 655.161403 
L 86.838105 653.805818 
L 87.090412 655.50173 
L 87.342719 653.419039 
L 87.595026 654.310176 
L 88.099639 655.024005 
L 88.351946 655.845218 
L 88.604253 655.25234 
L 88.85656 655.728338 
L 89.361174 655.175331 
L 89.613481 654.344522 
L 89.865788 654.715669 
L 90.118095 655.671096 
L 90.370402 654.416581 
L 90.622708 653.901155 
L 90.875015 655.40395 
L 91.127322 655.567613 
L 91.631936 653.914618 
L 91.884243 654.022402 
L 92.13655 654.393966 
L 92.641164 649.375493 
L 92.893471 648.347332 
L 93.145777 646.247498 
L 93.902698 623.737616 
L 94.155005 609.698789 
L 94.659619 568.804937 
L 95.164233 507.938952 
L 95.668846 408.386624 
L 96.17346 308.73925 
L 96.930381 160.1889 
L 97.182688 139.274417 
L 97.434995 108.216347 
L 97.687302 113.031664 
L 97.939609 112.006735 
L 98.191915 124.186775 
L 98.444222 150.59619 
L 98.696529 146.194218 
L 99.201143 289.179499 
L 100.210371 477.03891 
L 100.967291 571.347749 
L 101.471905 606.138396 
L 101.724212 613.433721 
L 101.976519 624.781138 
L 102.228826 628.281776 
L 102.481133 635.627777 
L 102.73344 639.104276 
L 102.985747 646.032915 
L 103.238053 644.475932 
L 103.49036 647.94057 
L 103.742667 646.859239 
L 103.994974 649.47708 
L 104.247281 647.467066 
L 104.499588 650.47505 
L 104.751895 651.54057 
L 105.004202 652.123253 
L 105.256509 650.299267 
L 105.508816 652.30278 
L 105.761123 650.390026 
L 106.013429 651.089535 
L 106.265736 650.65497 
L 106.518043 653.610801 
L 106.77035 653.976929 
L 107.022657 649.982927 
L 107.274964 652.292486 
L 107.527271 651.592541 
L 107.779578 654.952229 
L 108.284192 651.466881 
L 109.041112 654.766958 
L 109.293419 654.08435 
L 109.545726 653.980389 
L 110.05034 652.810181 
L 110.302647 654.637362 
L 110.554954 655.578332 
L 111.059567 652.393102 
L 111.311874 654.967282 
L 111.564181 653.995547 
L 111.816488 654.647794 
L 112.068795 654.807429 
L 112.321102 654.470168 
L 112.573409 652.850835 
L 112.825716 654.271485 
L 113.078023 654.274769 
L 113.33033 653.596991 
L 113.834943 655.737645 
L 114.08725 655.841485 
L 114.339557 654.603239 
L 114.591864 655.01276 
L 114.844171 656.612745 
L 115.096478 656.368273 
L 115.348785 654.605743 
L 115.601092 655.406074 
L 115.853399 655.183763 
L 116.105705 656.217239 
L 116.358012 653.699696 
L 116.610319 657.164481 
L 117.114933 653.790005 
L 117.619547 656.239972 
L 117.871854 654.824356 
L 118.124161 652.743459 
L 118.628774 655.558407 
L 118.881081 653.585508 
L 119.385695 655.561926 
L 119.638002 656.14619 
L 119.890309 654.996656 
L 120.142616 655.440145 
L 120.394923 655.298422 
L 120.64723 655.607987 
L 120.899537 655.561979 
L 121.40415 654.734982 
L 121.656457 653.776063 
L 121.908764 653.86737 
L 122.161071 654.739889 
L 122.413378 656.614139 
L 122.665685 655.081059 
L 122.917992 655.249666 
L 123.170299 654.521725 
L 123.422606 654.513386 
L 123.674913 654.73911 
L 124.431833 653.886499 
L 124.68414 653.049979 
L 124.936447 653.88943 
L 125.188754 655.277959 
L 125.441061 654.13837 
L 125.693368 654.059729 
L 125.945675 655.061926 
L 126.197982 653.505158 
L 126.702595 653.659801 
L 126.954902 654.525079 
L 127.207209 653.128301 
L 127.711823 652.781559 
L 127.96413 653.701247 
L 128.216437 652.687208 
L 128.468744 653.997654 
L 128.721051 654.620066 
L 128.973357 654.735332 
L 129.225664 654.484969 
L 129.477971 653.686752 
L 129.730278 655.221519 
L 129.982585 654.313744 
L 130.234892 655.113467 
L 130.487199 654.419161 
L 130.739506 653.018874 
L 130.991813 654.117264 
L 131.24412 653.399678 
L 131.496426 654.120565 
L 131.748733 654.172156 
L 132.00104 651.88329 
L 132.253347 653.397318 
L 132.505654 653.500106 
L 133.010268 654.632004 
L 133.514882 653.041191 
L 133.767189 656.138798 
L 134.019495 652.457035 
L 134.524109 654.669797 
L 134.776416 655.643945 
L 135.28103 653.859642 
L 135.533337 655.880043 
L 135.785644 654.490965 
L 136.037951 654.421437 
L 136.290258 655.107359 
L 136.542564 654.586658 
L 136.794871 655.111039 
L 137.299485 654.477451 
L 137.551792 654.350729 
L 137.804099 656.198531 
L 138.056406 654.034563 
L 138.308713 655.04725 
L 138.56102 655.335346 
L 139.065633 655.080117 
L 139.570247 656.438977 
L 139.822554 655.037662 
L 140.074861 654.959042 
L 140.327168 654.192389 
L 140.579475 656.367401 
L 140.831782 654.637185 
L 141.084089 655.104944 
L 141.336396 656.251388 
L 141.588703 655.158522 
L 141.841009 655.171115 
L 142.093316 657.371557 
L 142.345623 652.630857 
L 142.59793 656.268932 
L 142.850237 655.975594 
L 143.102544 656.007022 
L 143.354851 656.215516 
L 143.607158 654.622754 
L 143.859465 656.689502 
L 144.111772 655.645994 
L 144.364078 653.665007 
L 144.616385 655.74889 
L 144.868692 653.328771 
L 145.120999 656.478055 
L 145.373306 654.751626 
L 145.625613 654.618583 
L 145.87792 655.016469 
L 146.130227 653.284573 
L 146.382534 654.858537 
L 146.634841 655.324382 
L 146.887147 655.001199 
L 147.391761 655.346602 
L 147.644068 652.87378 
L 147.896375 656.035836 
L 148.148682 655.753212 
L 148.400989 655.711025 
L 148.653296 655.540227 
L 149.15791 653.960932 
L 149.410216 655.03107 
L 149.662523 654.230374 
L 149.91483 656.307635 
L 150.167137 654.558614 
L 150.419444 654.181948 
L 150.671751 654.653715 
L 150.924058 654.162444 
L 151.176365 655.400467 
L 151.428672 655.529152 
L 151.680979 655.018756 
L 151.933285 653.448829 
L 152.185592 654.318971 
L 152.437899 653.781652 
L 152.690206 654.190374 
L 152.942513 655.113786 
L 153.19482 653.532582 
L 153.447127 653.805953 
L 153.699434 653.533238 
L 153.951741 654.57096 
L 154.204048 655.100123 
L 154.456354 653.184201 
L 154.960968 656.34712 
L 155.213275 654.18409 
L 155.465582 655.014094 
L 155.717889 653.890319 
L 155.970196 654.447148 
L 156.222503 653.942596 
L 156.47481 653.887039 
L 156.727117 655.967081 
L 156.979424 653.83047 
L 157.23173 652.76174 
L 157.484037 654.732451 
L 157.736344 653.152946 
L 157.988651 653.727963 
L 158.240958 652.230285 
L 158.493265 653.265752 
L 158.745572 652.834888 
L 158.997879 654.546647 
L 159.250186 654.534571 
L 159.502493 653.337099 
L 159.754799 654.300217 
L 160.007106 652.737145 
L 160.259413 655.252736 
L 160.51172 653.682896 
L 160.764027 655.318106 
L 161.016334 654.099982 
L 161.268641 654.367964 
L 161.520948 655.377797 
L 161.773255 654.032575 
L 162.277868 656.091842 
L 162.782482 655.228709 
L 163.034789 653.421554 
L 163.287096 655.885085 
L 163.539403 653.67886 
L 163.79171 656.22965 
L 164.296324 653.531952 
L 164.548631 653.778999 
L 164.800937 655.31727 
L 165.053244 655.13676 
L 165.305551 655.480511 
L 165.557858 656.205676 
L 165.810165 656.277929 
L 166.062472 653.380664 
L 166.314779 656.11664 
L 166.567086 654.384954 
L 166.819393 656.586626 
L 167.0717 654.637377 
L 167.324006 655.708583 
L 167.576313 654.968803 
L 167.82862 654.819941 
L 168.080927 654.927309 
L 168.333234 653.217589 
L 168.585541 656.507301 
L 168.837848 655.773037 
L 169.090155 656.37193 
L 169.594769 655.598616 
L 169.847075 654.863889 
L 170.099382 653.573006 
L 170.351689 656.524071 
L 170.603996 654.277276 
L 170.856303 653.778405 
L 171.10861 655.47106 
L 171.613224 655.374955 
L 171.865531 655.283797 
L 172.117838 653.705 
L 172.370144 654.322266 
L 172.622451 653.158121 
L 172.874758 656.112563 
L 173.127065 655.62063 
L 173.379372 655.814826 
L 173.631679 655.146422 
L 173.883986 655.344537 
L 174.136293 654.29431 
L 174.3886 654.974051 
L 174.640907 654.948998 
L 174.893214 656.644458 
L 175.14552 656.224083 
L 175.397827 654.438146 
L 175.650134 654.339316 
L 175.902441 654.66283 
L 176.154748 656.551908 
L 176.407055 656.091998 
L 176.659362 656.516544 
L 176.911669 656.255221 
L 177.163976 655.610591 
L 177.668589 656.436155 
L 177.920896 655.339911 
L 178.173203 655.164068 
L 178.42551 655.349181 
L 178.677817 655.734749 
L 178.930124 654.017937 
L 179.182431 653.429022 
L 179.434738 653.915959 
L 179.687045 653.627522 
L 179.939352 655.750027 
L 180.191658 655.914417 
L 180.696272 652.38017 
L 180.948579 653.409345 
L 181.200886 655.158668 
L 181.453193 655.23768 
L 181.7055 655.911417 
L 181.957807 655.585454 
L 182.210114 654.687341 
L 182.462421 656.349526 
L 182.714727 656.540764 
L 183.219341 654.885736 
L 183.471648 656.860698 
L 183.976262 654.921705 
L 184.228569 655.070316 
L 184.480876 655.488828 
L 184.98549 653.677731 
L 185.237796 655.142822 
L 185.490103 655.76414 
L 185.994717 655.480077 
L 186.247024 655.629027 
L 186.499331 654.851055 
L 186.751638 656.218583 
L 187.003945 655.54786 
L 187.256252 655.513016 
L 187.508559 655.953964 
L 187.760865 654.610431 
L 188.013172 656.026963 
L 188.265479 655.493732 
L 188.517786 655.265986 
L 188.770093 656.97999 
L 189.0224 655.034546 
L 189.274707 655.965327 
L 189.527014 654.390731 
L 189.779321 656.279566 
L 190.283934 655.811403 
L 190.536241 657.295341 
L 190.788548 655.311649 
L 191.040855 654.776776 
L 191.293162 653.82699 
L 191.797776 655.164997 
L 192.30239 651.558996 
L 192.554697 648.733399 
L 192.807004 648.34494 
L 193.05931 645.40497 
L 194.068538 617.75106 
L 194.573152 598.145819 
L 194.825459 588.3255 
L 195.077766 565.94335 
L 195.330073 559.031518 
L 195.582379 540.60708 
L 195.834686 534.343416 
L 196.086993 524.037056 
L 196.3393 520.631253 
L 196.591607 525.45062 
L 196.843914 522.766165 
L 197.096221 521.81869 
L 197.600835 542.61451 
L 197.853142 558.151961 
L 198.105448 565.191145 
L 198.862369 604.62453 
L 199.61929 628.844551 
L 199.871597 631.95915 
L 200.123904 639.649343 
L 200.376211 640.180879 
L 200.880824 649.64144 
L 201.133131 648.72221 
L 201.637745 651.704928 
L 201.890052 653.191357 
L 202.142359 651.085741 
L 202.394666 652.329336 
L 202.646973 654.853123 
L 202.89928 652.644447 
L 203.151586 652.853822 
L 203.403893 652.782228 
L 203.6562 653.838429 
L 203.908507 655.850425 
L 204.160814 654.259629 
L 204.413121 651.559506 
L 204.917735 655.199415 
L 205.170042 652.372558 
L 205.674655 656.038012 
L 205.926962 651.74224 
L 206.179269 654.24736 
L 206.431576 654.895653 
L 206.683883 654.639903 
L 206.93619 653.8298 
L 207.188497 655.476976 
L 207.440804 655.796779 
L 207.693111 654.981958 
L 207.945418 655.688559 
L 208.702338 653.385983 
L 208.954645 656.1723 
L 209.206952 654.860323 
L 209.459259 654.90497 
L 209.711566 654.687969 
L 209.963873 655.100073 
L 210.21618 655.283561 
L 210.468487 654.735331 
L 210.720794 656.509492 
L 210.9731 655.248997 
L 211.225407 654.802206 
L 211.477714 654.959317 
L 211.730021 654.804789 
L 211.982328 656.614952 
L 212.234635 654.461731 
L 212.486942 654.018159 
L 212.739249 653.819322 
L 212.991556 654.168434 
L 213.243863 655.793921 
L 213.496169 654.087798 
L 214.000783 654.09562 
L 214.25309 654.998845 
L 214.505397 654.500445 
L 214.757704 655.445859 
L 215.010011 654.710131 
L 215.262318 653.497857 
L 215.514625 656.40044 
L 215.766932 655.589912 
L 216.019238 655.314904 
L 216.271545 654.662601 
L 216.776159 656.994607 
L 217.280773 654.613682 
L 217.53308 654.07138 
L 217.785387 654.755301 
L 218.037694 655.856783 
L 218.290001 653.278224 
L 218.542307 655.797447 
L 218.794614 655.502186 
L 219.046921 654.413373 
L 219.299228 655.998592 
L 219.803842 653.54103 
L 220.308456 657.370532 
L 220.560763 655.336012 
L 220.81307 655.017149 
L 221.065376 655.525406 
L 221.317683 655.085377 
L 221.56999 655.689231 
L 221.822297 655.120052 
L 222.074604 655.657593 
L 222.326911 656.63385 
L 222.579218 654.840444 
L 222.831525 655.253321 
L 223.083832 656.127942 
L 223.336139 655.689036 
L 223.588445 654.480729 
L 223.840752 656.702023 
L 224.093059 654.212767 
L 224.345366 655.06067 
L 224.597673 656.680072 
L 224.84998 655.206205 
L 225.102287 655.791705 
L 225.354594 653.83154 
L 225.606901 655.788208 
L 225.859208 655.138459 
L 226.111515 654.933251 
L 226.363821 653.754045 
L 226.616128 655.019764 
L 226.868435 654.094893 
L 227.120742 654.825277 
L 227.373049 655.130058 
L 227.625356 654.250103 
L 227.877663 655.855763 
L 228.12997 654.7646 
L 228.382277 654.690953 
L 228.634584 653.974955 
L 228.88689 654.970396 
L 229.139197 655.090745 
L 229.391504 656.844085 
L 229.643811 655.415544 
L 229.896118 655.461856 
L 230.400732 654.061144 
L 230.905346 655.709303 
L 231.157653 655.704483 
L 231.409959 653.344452 
L 231.662266 653.779429 
L 231.914573 653.765715 
L 232.419187 650.877028 
L 232.671494 650.69325 
L 234.185335 642.409939 
L 235.194563 628.749175 
L 235.699177 626.407436 
L 235.951484 621.603009 
L 236.456097 621.110247 
L 236.708404 622.908526 
L 236.960711 627.668001 
L 237.465325 627.351103 
L 237.717632 632.086258 
L 237.969939 634.383907 
L 238.222246 632.767203 
L 238.474553 634.009032 
L 238.72686 639.261484 
L 238.979166 639.319431 
L 239.231473 641.940636 
L 239.48378 643.070968 
L 239.988394 646.348729 
L 240.240701 647.463541 
L 240.493008 647.193721 
L 240.745315 649.299773 
L 240.997622 649.187927 
L 241.502235 652.167962 
L 241.754542 650.982205 
L 242.006849 652.907776 
L 242.259156 652.280159 
L 242.511463 653.249757 
L 242.76377 653.35385 
L 243.016077 653.882186 
L 243.268384 653.299225 
L 243.772998 654.778001 
L 244.025305 653.979826 
L 244.277611 652.725852 
L 244.782225 655.26362 
L 245.034532 652.983911 
L 245.539146 654.637062 
L 245.791453 655.07015 
L 246.04376 654.63946 
L 246.296067 654.547513 
L 246.80068 656.840765 
L 247.052987 654.282009 
L 247.305294 656.077255 
L 247.809908 654.442897 
L 248.062215 654.534157 
L 248.314522 655.194095 
L 248.566829 655.446379 
L 248.819136 655.334942 
L 249.071443 654.158935 
L 249.576056 655.924478 
L 249.828363 656.368754 
L 250.08067 654.432006 
L 250.332977 656.385759 
L 250.837591 654.225515 
L 251.089898 654.15023 
L 251.342205 654.41649 
L 251.846818 656.640512 
L 252.099125 655.459787 
L 252.351432 655.124376 
L 252.603739 655.695975 
L 252.856046 653.258131 
L 253.108353 656.850069 
L 253.36066 655.448113 
L 253.865274 654.888071 
L 254.117581 656.049763 
L 254.369887 654.81942 
L 254.622194 655.536172 
L 254.874501 653.823723 
L 255.126808 655.829961 
L 255.379115 654.088655 
L 255.883729 656.631304 
L 256.136036 654.874441 
L 256.388343 654.28597 
L 256.64065 655.384542 
L 256.892956 654.098453 
L 257.145263 655.597023 
L 257.649877 653.734174 
L 257.902184 653.697219 
L 258.154491 652.906671 
L 258.406798 649.536961 
L 258.911412 647.166401 
L 259.416025 642.390289 
L 259.668332 637.067848 
L 259.920639 634.877018 
L 260.172946 628.311691 
L 260.425253 627.283469 
L 260.67756 619.752541 
L 260.929867 616.162865 
L 261.182174 604.04771 
L 261.434481 608.107613 
L 261.686788 608.629346 
L 261.939095 604.53228 
L 262.191401 602.517183 
L 262.443708 606.790198 
L 262.696015 607.364088 
L 262.948322 613.901407 
L 263.200629 616.388817 
L 263.452936 620.45431 
L 263.705243 628.461352 
L 263.95755 632.837861 
L 264.462164 637.46277 
L 264.71447 642.617154 
L 265.219084 647.796899 
L 265.471391 646.906118 
L 265.723698 650.354706 
L 265.976005 650.934597 
L 266.228312 653.033162 
L 266.480619 652.418679 
L 266.732926 653.115897 
L 266.985233 652.761504 
L 267.237539 654.205451 
L 267.489846 653.364861 
L 267.742153 654.99823 
L 267.99446 653.739211 
L 268.246767 654.260013 
L 268.751381 654.580341 
L 269.003688 652.725264 
L 269.255995 653.017366 
L 269.508302 654.425143 
L 269.760608 654.323117 
L 270.012915 654.995797 
L 270.265222 654.71997 
L 270.517529 655.108755 
L 270.769836 654.440819 
L 271.022143 654.151979 
L 271.27445 654.898446 
L 271.526757 654.446843 
L 271.779064 655.550446 
L 272.031371 655.226094 
L 272.283677 655.108179 
L 272.535984 653.431383 
L 273.040598 654.765429 
L 273.292905 655.363808 
L 273.545212 655.087805 
L 273.797519 654.007118 
L 274.049826 654.419039 
L 274.302133 655.423403 
L 274.55444 653.066737 
L 274.806746 654.406055 
L 275.059053 656.464507 
L 275.31136 654.826387 
L 275.563667 654.93185 
L 275.815974 656.103145 
L 276.068281 654.03673 
L 276.320588 653.472935 
L 276.572895 655.326082 
L 277.077509 654.025742 
L 277.329816 655.48715 
L 277.582122 655.779098 
L 277.834429 655.668875 
L 278.086736 656.137448 
L 278.339043 654.45136 
L 278.59135 655.628745 
L 278.843657 656.23557 
L 279.095964 654.563621 
L 279.348271 654.440286 
L 279.852885 655.125606 
L 280.105191 655.19097 
L 280.357498 655.540549 
L 280.609805 657.098629 
L 280.862112 655.252649 
L 281.114419 655.851337 
L 281.366726 654.156106 
L 281.619033 656.918223 
L 281.87134 654.778395 
L 282.123647 656.829835 
L 282.375954 655.276334 
L 282.62826 655.070197 
L 282.880567 655.185193 
L 283.132874 654.528041 
L 283.385181 654.925353 
L 283.889795 655.862739 
L 284.142102 656.393306 
L 284.394409 656.277118 
L 284.646716 654.071129 
L 284.899023 655.949027 
L 285.151329 655.792528 
L 285.403636 655.797062 
L 285.655943 656.399194 
L 285.90825 655.249293 
L 286.160557 656.05233 
L 286.412864 654.859377 
L 286.665171 655.796886 
L 286.917478 656.031157 
L 287.169785 655.829661 
L 287.422092 656.699295 
L 287.674398 655.124796 
L 287.926705 655.482553 
L 288.179012 656.128919 
L 288.431319 656.298212 
L 288.683626 653.498268 
L 288.935933 653.359102 
L 289.18824 655.047244 
L 289.440547 655.528166 
L 289.692854 656.488637 
L 289.945161 655.719189 
L 290.449774 656.261408 
L 290.702081 654.883345 
L 290.954388 655.813124 
L 291.206695 656.233977 
L 291.459002 653.678767 
L 291.711309 655.470674 
L 291.963616 656.144809 
L 292.215923 655.31564 
L 292.46823 656.595241 
L 292.720536 655.3806 
L 292.972843 655.413045 
L 293.22515 653.071517 
L 293.477457 654.393338 
L 293.729764 654.258021 
L 293.982071 654.441887 
L 294.234378 655.627875 
L 294.486685 655.773641 
L 294.738992 655.051601 
L 295.243606 655.699159 
L 295.495912 654.97803 
L 295.748219 655.402068 
L 296.000526 656.152875 
L 296.252833 656.135055 
L 296.50514 655.672876 
L 296.757447 653.956285 
L 297.009754 656.496094 
L 297.262061 654.195534 
L 297.514368 654.798436 
L 297.766675 655.926397 
L 298.018981 653.480295 
L 298.271288 656.235282 
L 298.523595 654.442766 
L 298.775902 655.79992 
L 299.028209 655.756591 
L 299.280516 657.446107 
L 299.532823 655.218362 
L 299.78513 655.025693 
L 300.037437 654.377213 
L 300.289744 655.112985 
L 300.54205 653.733965 
L 300.794357 656.590756 
L 301.046664 655.877729 
L 301.298971 653.906102 
L 301.551278 653.116439 
L 301.803585 655.226885 
L 302.308199 655.62644 
L 302.560506 655.290436 
L 302.812813 655.805349 
L 303.065119 655.776577 
L 303.317426 654.536473 
L 303.569733 654.76698 
L 303.82204 653.421728 
L 304.074347 654.587487 
L 304.326654 653.847792 
L 304.578961 652.746526 
L 304.831268 652.972816 
L 305.083575 652.862446 
L 305.335882 654.39976 
L 305.588188 654.204685 
L 305.840495 652.956577 
L 306.092802 654.138699 
L 306.345109 653.343454 
L 306.597416 654.269303 
L 306.849723 652.733524 
L 307.10203 656.463717 
L 307.354337 653.338782 
L 307.606644 654.297853 
L 307.858951 654.527622 
L 308.111257 653.775228 
L 308.363564 653.555356 
L 308.615871 654.253956 
L 308.868178 652.763035 
L 309.625099 652.027993 
L 309.877406 650.378993 
L 310.129713 651.337259 
L 310.38202 650.768096 
L 310.634326 648.560779 
L 311.13894 650.428125 
L 311.391247 651.466864 
L 311.643554 649.918213 
L 311.895861 651.449307 
L 312.148168 648.313196 
L 312.400475 652.337521 
L 312.652782 650.584777 
L 313.157396 651.986362 
L 313.409702 650.330629 
L 313.662009 652.001048 
L 313.914316 652.813462 
L 314.671237 653.66124 
L 314.923544 653.859401 
L 315.175851 652.579746 
L 315.428158 655.194864 
L 315.680465 653.752507 
L 315.932771 654.910464 
L 316.437385 653.804359 
L 316.689692 654.554483 
L 316.941999 652.426368 
L 317.194306 655.482503 
L 317.446613 655.547513 
L 317.69892 653.286669 
L 317.951227 654.974116 
L 318.203534 654.619938 
L 318.45584 653.970584 
L 318.708147 655.651566 
L 318.960454 653.733486 
L 319.212761 654.792933 
L 319.465068 653.595723 
L 319.717375 655.17266 
L 319.969682 653.985478 
L 320.474296 655.978079 
L 320.726603 656.317286 
L 320.978909 655.193124 
L 321.231216 654.987613 
L 321.483523 655.253152 
L 321.73583 654.679873 
L 321.988137 655.813569 
L 322.240444 655.068346 
L 322.492751 655.543872 
L 322.745058 655.273806 
L 322.997365 656.814372 
L 323.501978 652.881338 
L 323.754285 655.488758 
L 324.006592 653.78719 
L 324.258899 655.39757 
L 324.511206 655.160578 
L 324.763513 653.287848 
L 325.772741 656.673712 
L 326.025047 655.515308 
L 326.277354 656.129327 
L 326.529661 655.76985 
L 326.781968 654.768049 
L 327.034275 653.057588 
L 327.286582 653.223468 
L 327.538889 654.57028 
L 327.791196 654.705737 
L 328.043503 652.661602 
L 328.29581 653.57394 
L 328.548117 652.982141 
L 328.800423 652.867061 
L 329.05273 652.388544 
L 329.305037 649.601194 
L 329.557344 651.99608 
L 329.809651 651.793312 
L 330.061958 651.953224 
L 330.314265 652.313087 
L 330.566572 653.489965 
L 330.818879 651.422696 
L 331.071186 652.816991 
L 331.323492 653.091511 
L 331.575799 654.005825 
L 331.828106 652.30826 
L 332.080413 654.853255 
L 332.33272 654.583853 
L 332.585027 654.809507 
L 332.837334 656.026921 
L 333.089641 654.539248 
L 333.341948 654.803812 
L 333.594255 654.889704 
L 333.846561 654.540106 
L 334.098868 655.660062 
L 334.351175 656.129577 
L 334.603482 654.455382 
L 334.855789 654.648363 
L 335.108096 654.345364 
L 335.360403 653.703079 
L 335.61271 656.483783 
L 335.865017 657.103124 
L 336.36963 655.260442 
L 336.621937 656.084209 
L 336.874244 654.338114 
L 337.126551 654.876135 
L 337.378858 654.331977 
L 337.631165 655.701239 
L 337.883472 655.804684 
L 338.135779 656.126028 
L 338.388086 654.710934 
L 338.640393 653.968857 
L 338.892699 655.200186 
L 339.145006 655.097472 
L 339.397313 656.489047 
L 339.64962 655.393252 
L 339.901927 655.521077 
L 340.154234 654.935507 
L 340.406541 656.093634 
L 340.658848 656.366897 
L 340.911155 654.630297 
L 341.163462 653.98661 
L 341.415768 657.097436 
L 341.668075 655.263192 
L 341.920382 655.527769 
L 342.172689 656.838921 
L 342.424996 656.844118 
L 342.677303 655.790585 
L 342.92961 653.6887 
L 343.181917 655.236658 
L 343.434224 653.721455 
L 343.686531 655.153251 
L 343.938837 654.632849 
L 344.191144 653.01367 
L 344.443451 653.235503 
L 344.695758 652.74127 
L 344.948065 652.793457 
L 345.200372 653.094146 
L 345.452679 654.721239 
L 345.704986 651.828081 
L 345.957293 653.808256 
L 346.2096 652.973236 
L 346.461907 652.637488 
L 346.714213 653.025161 
L 347.218827 652.654204 
L 347.471134 653.817124 
L 347.723441 652.069386 
L 348.228055 655.259182 
L 348.480362 653.562404 
L 348.732669 654.856655 
L 348.984976 654.433803 
L 349.237282 655.547735 
L 349.489589 654.205157 
L 349.741896 655.899616 
L 350.24651 655.463925 
L 350.498817 656.800562 
L 350.751124 654.895174 
L 351.003431 655.145431 
L 351.255738 655.670531 
L 351.508045 654.925224 
L 351.760351 654.598473 
L 352.012658 655.499893 
L 352.264965 655.378971 
L 352.517272 655.524772 
L 352.769579 653.234975 
L 353.021886 653.504591 
L 353.5265 656.173514 
L 353.778807 656.50867 
L 354.031114 656.094684 
L 354.28342 654.841613 
L 354.535727 654.76524 
L 355.040341 655.470583 
L 355.292648 654.397259 
L 355.544955 654.501127 
L 356.301876 655.865804 
L 356.554183 655.630866 
L 356.806489 655.138518 
L 357.311103 653.082245 
L 357.56341 654.434781 
L 357.815717 654.25779 
L 358.320331 652.494338 
L 358.572638 650.264261 
L 358.824945 651.686828 
L 359.077252 649.767406 
L 359.329558 650.125256 
L 359.581865 648.135374 
L 360.086479 648.406554 
L 360.338786 648.141413 
L 360.591093 646.157908 
L 360.8434 648.242805 
L 361.095707 648.295766 
L 361.348014 646.286496 
L 361.600321 646.162573 
L 361.852627 647.440614 
L 362.104934 647.725835 
L 362.357241 651.380516 
L 362.609548 651.286992 
L 362.861855 651.852776 
L 363.114162 650.851593 
L 363.366469 654.133031 
L 363.618776 653.619245 
L 363.871083 653.766979 
L 364.12339 653.124312 
L 364.375697 653.176007 
L 364.628003 654.453322 
L 364.88031 654.681227 
L 365.132617 655.827322 
L 365.384924 654.99935 
L 365.637231 653.721288 
L 365.889538 653.982876 
L 366.141845 655.655536 
L 366.394152 654.687444 
L 366.646459 655.41892 
L 366.898766 655.293102 
L 367.151072 655.796939 
L 367.403379 654.665862 
L 367.655686 654.717536 
L 367.907993 655.823473 
L 368.1603 655.62218 
L 368.412607 656.27444 
L 368.664914 655.618278 
L 368.917221 655.52637 
L 369.169528 657.242381 
L 369.421835 655.819845 
L 369.926448 655.182785 
L 370.178755 654.258028 
L 370.431062 654.878828 
L 370.683369 654.367082 
L 370.935676 654.473636 
L 371.187983 655.589635 
L 371.44029 654.882964 
L 371.692597 655.528592 
L 371.944904 655.376799 
L 372.19721 654.563923 
L 372.449517 656.165992 
L 372.701824 655.081255 
L 373.206438 655.918935 
L 373.458745 655.406707 
L 373.711052 655.876475 
L 373.963359 655.808246 
L 374.215666 654.675064 
L 374.467973 656.372972 
L 374.720279 653.357107 
L 374.972586 656.169695 
L 375.224893 655.333959 
L 375.4772 654.883274 
L 375.729507 653.625654 
L 376.234121 654.945932 
L 376.486428 654.813433 
L 376.738735 655.541332 
L 376.991042 654.051842 
L 377.243348 655.26517 
L 377.495655 655.153154 
L 377.747962 654.90922 
L 378.000269 654.842597 
L 378.252576 652.876537 
L 378.504883 655.154794 
L 378.75719 654.859139 
L 379.009497 656.191094 
L 379.261804 656.155771 
L 379.514111 654.960464 
L 379.766418 656.178885 
L 380.018724 654.880957 
L 380.271031 655.697374 
L 380.523338 655.776708 
L 380.775645 656.14595 
L 381.027952 656.119805 
L 381.280259 653.046292 
L 381.532566 655.832804 
L 381.784873 653.958612 
L 382.03718 656.973854 
L 382.7941 654.803408 
L 383.046407 655.94332 
L 383.298714 655.560468 
L 383.551021 655.985313 
L 383.803328 657.177534 
L 384.055635 654.813632 
L 384.307942 655.659602 
L 384.560249 655.34032 
L 384.812556 653.91807 
L 385.064862 656.051434 
L 385.317169 655.026677 
L 385.569476 655.27925 
L 385.821783 655.043994 
L 386.07409 655.483613 
L 386.326397 654.981785 
L 386.578704 655.449605 
L 387.083318 654.645837 
L 387.335625 655.341755 
L 387.587931 654.628559 
L 387.840238 655.723885 
L 388.092545 654.136835 
L 388.344852 655.0687 
L 388.597159 656.977617 
L 388.849466 654.272197 
L 389.101773 653.734531 
L 389.35408 652.410159 
L 389.606387 654.97947 
L 389.858694 654.64248 
L 390.111 654.993227 
L 390.363307 656.532885 
L 390.615614 655.10549 
L 390.867921 655.958471 
L 391.120228 655.402212 
L 391.372535 655.118845 
L 391.624842 655.20851 
L 391.877149 654.276973 
L 392.634069 655.984548 
L 392.886376 655.055179 
L 393.39099 655.246531 
L 393.643297 656.703089 
L 394.147911 654.500492 
L 394.400218 655.431438 
L 394.652525 655.217449 
L 394.904832 655.496968 
L 395.157138 654.846327 
L 395.409445 655.583891 
L 395.914059 656.276754 
L 396.166366 655.82648 
L 396.418673 655.947695 
L 396.67098 655.913369 
L 396.923287 654.894096 
L 397.427901 654.689221 
L 397.680208 655.251822 
L 397.932514 657.880855 
L 398.689435 655.471332 
L 398.941742 655.718405 
L 399.194049 655.769063 
L 399.446356 655.533503 
L 399.698663 655.844692 
L 399.95097 655.963339 
L 400.203277 655.832716 
L 400.455583 656.448014 
L 400.70789 655.229275 
L 400.960197 655.152097 
L 401.212504 655.241534 
L 401.464811 653.269156 
L 401.717118 655.594013 
L 401.969425 654.585392 
L 402.474039 656.622763 
L 402.726346 654.188464 
L 402.978652 654.950548 
L 403.230959 655.038859 
L 403.483266 656.065006 
L 403.735573 655.726215 
L 403.98788 655.922308 
L 404.492494 654.183583 
L 404.744801 654.922452 
L 404.997108 655.255385 
L 405.501721 656.961353 
L 405.754028 655.298713 
L 406.006335 654.730584 
L 406.258642 654.818788 
L 406.510949 656.401109 
L 406.763256 655.10825 
L 407.015563 655.646142 
L 407.26787 654.98411 
L 407.520177 655.346795 
L 407.772484 656.323707 
L 408.02479 654.663859 
L 408.277097 655.447947 
L 408.529404 655.598598 
L 408.781711 653.734145 
L 409.034018 655.432495 
L 409.538632 654.187291 
L 409.790939 655.597191 
L 410.043246 654.419974 
L 410.295553 654.837371 
L 410.547859 656.486848 
L 410.800166 655.404357 
L 411.052473 655.39842 
L 411.30478 655.52742 
L 411.557087 654.932664 
L 411.809394 655.50344 
L 412.061701 654.373369 
L 412.314008 655.01552 
L 412.566315 653.082718 
L 412.818622 654.869052 
L 413.070928 653.457799 
L 413.323235 654.650955 
L 413.575542 655.063187 
L 413.827849 656.559178 
L 414.332463 655.138344 
L 414.58477 656.297604 
L 414.837077 656.379314 
L 415.089384 655.256064 
L 415.341691 656.029934 
L 415.593998 655.808417 
L 415.846304 655.984671 
L 416.098611 656.843874 
L 416.350918 655.460068 
L 416.603225 655.997441 
L 416.855532 654.02967 
L 417.107839 654.538466 
L 417.360146 656.029607 
L 417.612453 655.465929 
L 417.86476 653.396877 
L 418.117067 655.019078 
L 418.369373 654.796437 
L 418.62168 656.082156 
L 418.873987 655.407141 
L 419.126294 655.511754 
L 419.378601 654.718102 
L 419.630908 655.129364 
L 419.883215 653.93284 
L 420.135522 655.79911 
L 420.640136 656.254155 
L 420.892442 655.994077 
L 421.144749 655.370093 
L 421.397056 655.256133 
L 421.649363 655.956507 
L 422.406284 654.452943 
L 422.658591 656.402929 
L 422.910898 653.389388 
L 423.163205 654.253927 
L 423.415511 654.118891 
L 423.667818 656.141087 
L 423.920125 654.543 
L 424.172432 656.108429 
L 424.424739 655.596397 
L 424.677046 656.583088 
L 425.18166 654.447346 
L 425.686274 656.398193 
L 425.93858 654.316127 
L 426.190887 654.988775 
L 426.443194 656.026405 
L 426.695501 652.795216 
L 426.947808 654.946717 
L 427.200115 654.36384 
L 427.452422 654.437931 
L 427.704729 655.13837 
L 427.957036 655.426892 
L 428.209343 655.014864 
L 428.461649 653.67376 
L 428.713956 654.81519 
L 428.966263 654.752013 
L 429.21857 655.051337 
L 429.470877 656.648593 
L 429.723184 654.056715 
L 430.227798 655.882629 
L 430.480105 654.449545 
L 430.732412 654.801541 
L 430.984719 655.574325 
L 431.237025 655.898361 
L 431.489332 655.596699 
L 431.741639 656.200899 
L 431.993946 655.410075 
L 432.246253 655.872506 
L 432.49856 655.998184 
L 432.750867 655.355436 
L 433.003174 655.818783 
L 433.255481 654.865377 
L 433.507788 655.444701 
L 433.760094 654.083056 
L 434.012401 656.544034 
L 434.264708 654.369519 
L 434.517015 656.637617 
L 434.769322 656.371663 
L 435.021629 655.766285 
L 435.273936 654.828725 
L 435.526243 656.590827 
L 435.77855 655.956941 
L 436.030857 655.979644 
L 436.283163 655.772857 
L 436.53547 654.575833 
L 436.787777 656.223571 
L 437.040084 655.495471 
L 437.292391 655.682641 
L 437.544698 655.157652 
L 437.797005 655.762122 
L 438.049312 656.061631 
L 438.301619 655.905718 
L 438.553926 654.626946 
L 438.806232 655.586302 
L 439.058539 655.02473 
L 439.310846 656.613818 
L 439.563153 655.726407 
L 439.81546 655.848675 
L 440.067767 656.622481 
L 440.320074 654.388256 
L 440.824688 653.975701 
L 441.076995 655.993435 
L 441.581608 654.129149 
L 441.833915 655.306354 
L 442.086222 653.546821 
L 442.338529 654.363647 
L 442.590836 652.693343 
L 442.843143 654.949416 
L 443.09545 654.932515 
L 443.347757 654.533073 
L 443.600064 653.627074 
L 443.85237 655.365288 
L 444.356984 654.820465 
L 444.609291 653.845528 
L 444.861598 655.144772 
L 445.113905 654.163471 
L 445.366212 654.192539 
L 445.870826 655.723796 
L 446.123133 654.964141 
L 446.627746 656.784074 
L 446.880053 656.179581 
L 447.13236 653.351315 
L 447.384667 655.50826 
L 447.636974 654.832035 
L 447.889281 654.613612 
L 448.393895 653.948386 
L 448.646202 654.993993 
L 448.898509 654.908529 
L 449.150815 654.209483 
L 449.403122 654.659113 
L 449.655429 655.354096 
L 449.907736 651.841529 
L 450.160043 655.454561 
L 450.41235 654.833518 
L 450.664657 652.963485 
L 451.169271 654.579426 
L 451.421578 654.562735 
L 451.673884 653.720477 
L 451.926191 654.376607 
L 452.178498 654.443677 
L 452.430805 655.799789 
L 452.683112 655.860306 
L 452.935419 655.002137 
L 453.187726 655.697698 
L 453.440033 655.726915 
L 453.69234 655.409697 
L 454.196953 653.923079 
L 454.44926 654.81833 
L 454.701567 654.103706 
L 454.953874 656.198458 
L 455.206181 653.565694 
L 455.458488 654.408946 
L 455.710795 654.029574 
L 455.963102 655.972979 
L 456.215409 654.377711 
L 456.467716 653.966128 
L 456.720022 653.963275 
L 456.972329 655.737954 
L 457.224636 654.121323 
L 457.476943 653.994633 
L 457.72925 655.846962 
L 457.981557 654.840207 
L 458.486171 654.991921 
L 458.738478 655.664802 
L 459.243091 655.261524 
L 459.495398 656.604373 
L 459.747705 656.735755 
L 460.000012 656.473151 
L 460.252319 655.118203 
L 460.504626 654.80351 
L 460.756933 653.089006 
L 461.00924 654.953715 
L 461.261547 655.780209 
L 461.513854 654.280417 
L 461.76616 654.226939 
L 462.270774 655.657231 
L 462.523081 655.751298 
L 462.775388 655.414835 
L 463.027695 656.354643 
L 463.280002 656.260752 
L 463.532309 652.564541 
L 463.784616 656.520686 
L 464.036923 654.929394 
L 464.289229 655.362601 
L 464.541536 655.380838 
L 464.793843 655.978502 
L 465.04615 655.231247 
L 465.298457 655.170206 
L 465.550764 656.029266 
L 465.803071 657.298991 
L 466.055378 655.64446 
L 466.307685 655.14625 
L 466.559992 656.46281 
L 466.812299 655.085962 
L 467.064605 655.41133 
L 467.316912 656.433685 
L 467.569219 654.425275 
L 467.821526 655.967265 
L 468.073833 655.654277 
L 468.32614 655.938073 
L 468.578447 656.849564 
L 469.083061 654.456515 
L 469.335368 654.860924 
L 469.587674 654.222099 
L 469.839981 655.69591 
L 470.092288 656.213048 
L 470.344595 654.1822 
L 470.596902 653.492861 
L 471.101516 655.204574 
L 471.353823 655.099742 
L 471.60613 655.212924 
L 471.858437 655.012474 
L 472.110743 654.071305 
L 472.36305 655.091135 
L 472.615357 655.63532 
L 472.867664 654.097175 
L 473.119971 655.237772 
L 473.372278 655.803912 
L 473.624585 655.448326 
L 473.876892 654.689716 
L 474.381506 655.467231 
L 474.886119 654.578847 
L 475.138426 655.875048 
L 475.390733 655.105468 
L 475.64304 653.381354 
L 475.895347 655.431605 
L 476.147654 654.709652 
L 476.399961 655.225952 
L 476.652268 656.103346 
L 476.904575 653.742313 
L 477.156881 656.108647 
L 477.409188 655.310262 
L 477.661495 655.558643 
L 477.913802 653.758462 
L 478.166109 654.655904 
L 478.418416 656.12285 
L 478.670723 654.978431 
L 478.92303 655.788747 
L 479.175337 653.621003 
L 479.932257 656.116059 
L 480.184564 653.761022 
L 480.436871 655.908272 
L 480.689178 656.377031 
L 480.941485 655.986008 
L 481.193792 656.334972 
L 481.446099 654.473917 
L 481.698406 653.565007 
L 481.950713 654.617937 
L 482.20302 654.078994 
L 482.455326 655.327284 
L 482.707633 655.645529 
L 482.95994 655.447434 
L 483.212247 656.193721 
L 483.464554 653.912827 
L 483.716861 656.964421 
L 483.969168 653.853115 
L 484.221475 656.311383 
L 484.473782 654.738905 
L 484.726089 655.330639 
L 484.978395 653.864078 
L 485.230702 655.29621 
L 485.483009 655.396022 
L 485.735316 654.860889 
L 485.987623 656.323722 
L 486.23993 656.293851 
L 486.492237 654.160942 
L 486.744544 654.856119 
L 486.996851 654.782451 
L 487.249158 655.072293 
L 487.501464 654.693757 
L 487.753771 655.08154 
L 488.006078 655.712877 
L 488.258385 654.410244 
L 488.510692 655.043944 
L 488.762999 654.003369 
L 489.015306 657.161867 
L 489.267613 656.078137 
L 489.51992 655.779962 
L 489.772227 655.852675 
L 490.27684 653.807028 
L 490.529147 655.2767 
L 490.781454 655.020846 
L 491.033761 654.32127 
L 491.286068 654.741215 
L 491.538375 654.73596 
L 491.790682 653.783258 
L 492.042989 654.859701 
L 492.295296 653.958892 
L 492.799909 653.012859 
L 493.052216 653.791065 
L 493.304523 652.628491 
L 493.55683 653.182763 
L 493.809137 654.952837 
L 494.061444 654.712164 
L 494.566058 651.429544 
L 494.818365 652.648614 
L 495.070671 653.083061 
L 495.575285 651.173947 
L 495.827592 651.220467 
L 496.079899 653.328223 
L 496.332206 651.836893 
L 497.089127 653.449194 
L 497.341434 652.914495 
L 497.59374 653.652587 
L 497.846047 653.570495 
L 498.098354 652.995514 
L 498.350661 654.649997 
L 498.602968 653.912139 
L 498.855275 653.981086 
L 499.107582 654.980671 
L 499.359889 654.328803 
L 499.612196 654.966328 
L 499.864503 654.686692 
L 500.11681 652.917489 
L 500.369116 654.062259 
L 500.621423 652.557893 
L 500.87373 653.518068 
L 501.126037 653.514319 
L 501.630651 655.143067 
L 501.882958 653.28654 
L 502.135265 653.910588 
L 502.387572 653.501814 
L 502.639879 654.256164 
L 503.144492 653.561672 
L 503.396799 654.62355 
L 503.649106 653.79008 
L 503.901413 654.689796 
L 504.15372 654.827469 
L 504.406027 653.151673 
L 504.910641 656.569429 
L 505.162948 654.564975 
L 505.415254 654.743423 
L 505.919868 652.701133 
L 506.172175 653.57962 
L 506.424482 653.692244 
L 506.676789 655.365584 
L 506.929096 652.466951 
L 507.181403 654.096274 
L 507.43371 652.823257 
L 507.686017 653.320193 
L 507.938323 654.886556 
L 508.19063 653.020418 
L 508.442937 654.958718 
L 508.947551 653.368966 
L 509.199858 653.291767 
L 509.452165 654.083719 
L 509.704472 654.393607 
L 509.956779 655.696763 
L 510.209086 654.823516 
L 510.461392 654.443073 
L 510.713699 653.642923 
L 510.966006 654.307579 
L 511.218313 652.536756 
L 511.47062 653.606639 
L 511.722927 652.967903 
L 511.975234 653.449305 
L 512.227541 655.73874 
L 512.479848 655.269059 
L 512.732155 653.595838 
L 512.984461 653.168134 
L 513.236768 655.191413 
L 513.489075 656.002115 
L 513.741382 655.447439 
L 514.245996 652.587742 
L 514.75061 651.639124 
L 515.002917 655.131026 
L 515.255224 654.377018 
L 515.50753 654.396642 
L 515.759837 654.90499 
L 516.012144 653.725537 
L 516.264451 653.378956 
L 516.516758 653.972195 
L 516.769065 654.270106 
L 517.273679 653.496509 
L 517.525986 654.633333 
L 517.778293 654.079788 
L 518.0306 654.893469 
L 518.282906 653.444889 
L 518.535213 652.833493 
L 519.039827 655.464093 
L 519.544441 651.928863 
L 519.796748 654.806522 
L 520.049055 653.830313 
L 520.301362 654.411175 
L 520.553669 653.455471 
L 520.805975 653.638656 
L 521.058282 656.179648 
L 521.310589 655.524429 
L 521.562896 653.240006 
L 521.815203 654.408773 
L 522.06751 654.506332 
L 522.319817 652.98381 
L 522.572124 654.090864 
L 522.824431 652.652225 
L 523.076738 652.645955 
L 523.329044 654.403631 
L 523.581351 653.956444 
L 523.833658 652.82664 
L 524.085965 654.253725 
L 524.338272 652.199004 
L 524.590579 652.005483 
L 524.842886 650.511929 
L 525.599807 637.280974 
L 526.356727 595.893282 
L 526.609034 574.343281 
L 529.132103 198.176552 
L 529.38441 185.734006 
L 529.636717 192.948205 
L 530.393638 281.880714 
L 531.402865 455.400311 
L 531.655172 478.130731 
L 532.159786 537.759071 
L 532.6644 578.92357 
L 533.169014 607.92245 
L 533.421321 617.459131 
L 533.673627 621.381142 
L 534.178241 634.10168 
L 534.682855 638.354596 
L 534.935162 636.122596 
L 535.187469 642.215928 
L 535.439776 642.645522 
L 535.692083 645.654617 
L 535.94439 645.046168 
L 536.196696 646.446914 
L 536.449003 646.504098 
L 536.70131 647.937647 
L 536.953617 648.176345 
L 537.205924 649.017875 
L 537.458231 646.604857 
L 537.962845 649.92929 
L 538.215152 650.556254 
L 538.467459 648.065698 
L 538.972072 652.733296 
L 539.224379 651.25669 
L 539.476686 652.670121 
L 539.728993 650.959737 
L 539.9813 650.418599 
L 540.233607 651.614203 
L 540.485914 651.566637 
L 540.738221 650.976957 
L 540.990528 653.703749 
L 541.242834 651.167042 
L 541.495141 650.708397 
L 541.747448 652.413297 
L 541.999755 653.082786 
L 542.252062 651.646804 
L 542.504369 652.174054 
L 542.756676 654.658729 
L 543.008983 652.273146 
L 543.26129 654.452665 
L 543.513597 650.190553 
L 543.765903 652.181665 
L 544.01821 652.960936 
L 544.270517 653.079415 
L 544.522824 650.392496 
L 544.775131 651.774596 
L 545.027438 654.233185 
L 545.279745 652.124508 
L 545.532052 652.680503 
L 545.784359 653.9364 
L 546.036666 654.198231 
L 546.288972 652.266028 
L 546.541279 652.423012 
L 546.793586 653.662064 
L 547.045893 653.351078 
L 547.2982 653.541665 
L 547.802814 652.476807 
L 548.055121 652.798846 
L 548.307428 651.348928 
L 548.559735 652.911353 
L 548.812041 653.761286 
L 549.316655 652.203254 
L 549.568962 654.185832 
L 549.821269 653.310477 
L 550.073576 651.274987 
L 550.325883 650.224591 
L 550.57819 652.80507 
L 550.830497 652.592346 
L 551.082804 652.8609 
L 551.335111 653.763285 
L 551.587417 652.252571 
L 552.344338 653.798603 
L 552.596645 653.891439 
L 552.848952 653.411361 
L 553.101259 652.034712 
L 553.353566 653.961149 
L 553.605873 654.189995 
L 553.85818 652.677447 
L 554.110486 654.753586 
L 554.362793 652.860553 
L 554.6151 653.187004 
L 554.867407 653.872456 
L 555.372021 652.817631 
L 555.624328 652.857694 
L 555.876635 652.745282 
L 556.128942 655.010757 
L 556.381249 653.004198 
L 556.633555 654.026423 
L 556.885862 652.18452 
L 557.138169 652.945622 
L 557.390476 652.182137 
L 557.89509 655.416992 
L 558.147397 651.651925 
L 558.399704 653.334407 
L 558.904318 654.810818 
L 559.156624 652.809633 
L 559.408931 654.419947 
L 559.661238 654.640652 
L 559.913545 654.251764 
L 560.165852 654.187654 
L 560.418159 652.315865 
L 560.670466 652.817292 
L 560.922773 654.991408 
L 561.17508 655.081228 
L 561.427387 653.197259 
L 561.679693 652.735054 
L 561.932 653.200786 
L 562.184307 653.091656 
L 562.688921 652.620398 
L 562.941228 652.559951 
L 563.193535 653.861428 
L 563.445842 654.525987 
L 563.698149 653.376059 
L 563.950456 654.195393 
L 564.202762 651.867956 
L 564.455069 654.065126 
L 564.707376 653.602286 
L 564.959683 654.986286 
L 565.21199 653.3878 
L 565.464297 652.720384 
L 565.716604 651.385717 
L 565.968911 650.972887 
L 566.221218 648.361774 
L 566.725831 646.335003 
L 566.978138 643.449479 
L 567.230445 642.599725 
L 567.482752 640.033128 
L 567.735059 639.055707 
L 568.239673 633.265135 
L 568.49198 634.273625 
L 568.744287 632.293818 
L 568.996594 632.927299 
L 569.248901 629.290086 
L 569.501207 632.775247 
L 569.753514 628.917357 
L 570.005821 636.232617 
L 570.258128 632.996935 
L 571.519663 645.416781 
L 571.77197 644.272424 
L 572.024276 646.845486 
L 572.276583 644.622446 
L 572.52889 648.099229 
L 572.781197 647.185892 
L 573.033504 647.345029 
L 573.538118 650.930719 
L 574.042732 649.27573 
L 574.295039 650.877487 
L 574.547345 651.003122 
L 574.799652 652.961583 
L 575.051959 650.990305 
L 575.304266 652.513693 
L 575.556573 650.946023 
L 575.80888 651.753149 
L 576.061187 651.778546 
L 576.313494 652.556465 
L 576.565801 652.135064 
L 576.818108 651.185446 
L 577.070414 654.059127 
L 577.575028 652.491433 
L 577.827335 652.852456 
L 578.079642 652.514792 
L 578.331949 653.678937 
L 578.584256 652.33594 
L 578.836563 653.612105 
L 579.08887 651.883019 
L 579.341177 654.338585 
L 579.593483 653.63855 
L 579.84579 650.887446 
L 580.098097 652.79068 
L 580.350404 652.756186 
L 580.602711 650.652748 
L 580.855018 653.379464 
L 581.107325 652.081234 
L 581.359632 652.820699 
L 581.864246 652.027517 
L 582.116552 653.388854 
L 582.368859 652.331881 
L 582.621166 652.681222 
L 582.873473 653.232787 
L 583.12578 654.253018 
L 583.378087 652.653167 
L 583.630394 653.140503 
L 583.882701 652.706625 
L 584.135008 651.809673 
L 584.387315 653.38946 
L 584.639622 653.090876 
L 584.891928 654.293372 
L 585.144235 654.331519 
L 585.396542 654.065765 
L 585.648849 653.50157 
L 585.901156 654.112452 
L 586.153463 651.556104 
L 586.40577 651.740755 
L 586.658077 654.676257 
L 586.910384 653.317389 
L 587.162691 653.566115 
L 587.414997 651.273749 
L 587.667304 650.551258 
L 588.171918 644.93353 
L 588.424225 644.936117 
L 588.928839 634.866848 
L 589.68576 599.668002 
L 590.44268 524.165762 
L 590.947294 444.07907 
L 591.199601 392.972493 
L 591.704215 339.87736 
L 591.956522 300.936918 
L 592.461135 272.177836 
L 592.713442 269.583132 
L 592.965749 280.223773 
L 593.470363 329.783966 
L 593.72267 386.573462 
L 594.227284 442.260638 
L 594.731898 506.2291 
L 595.236511 553.788329 
L 595.488818 568.708706 
L 595.741125 593.119945 
L 595.993432 602.796741 
L 596.245739 617.835109 
L 596.498046 619.621221 
L 597.00266 636.524065 
L 597.254967 637.351341 
L 597.75958 641.185399 
L 598.264194 642.057327 
L 598.516501 644.505509 
L 598.768808 649.088366 
L 599.021115 644.777861 
L 599.273422 644.963823 
L 599.525729 648.345071 
L 599.778036 648.990368 
L 600.030342 648.786928 
L 600.282649 649.883956 
L 600.534956 645.971158 
L 600.787263 646.621221 
L 601.03957 645.627761 
L 601.291877 645.749258 
L 601.544184 642.202468 
L 601.796491 641.486415 
L 602.048798 638.735562 
L 603.058025 620.104219 
L 603.310332 608.415861 
L 603.562639 605.539653 
L 604.067253 584.4949 
L 604.31956 579.817389 
L 605.076481 547.34267 
L 605.328787 539.358687 
L 605.581094 522.256085 
L 605.833401 514.262769 
L 606.085708 513.371029 
L 606.338015 510.528593 
L 606.590322 494.970487 
L 606.842629 502.358652 
L 607.094936 488.750611 
L 607.347243 491.769952 
L 607.59955 496.216559 
L 607.851856 496.02391 
L 608.104163 497.434193 
L 608.35647 490.71937 
L 608.608777 500.794161 
L 608.861084 505.343346 
L 609.113391 501.486451 
L 609.365698 501.329901 
L 609.618005 507.431413 
L 609.870312 520.586971 
L 610.122619 520.575252 
L 610.627232 528.578387 
L 610.879539 538.711248 
L 611.131846 536.101679 
L 611.384153 553.770023 
L 611.63646 545.7473 
L 611.888767 550.194643 
L 612.141074 564.831649 
L 612.393381 564.10476 
L 612.645688 570.862687 
L 612.897994 571.839387 
L 613.150301 577.205083 
L 613.402608 575.206774 
L 613.907222 588.87128 
L 614.159529 592.792812 
L 614.411836 589.587348 
L 614.664143 595.323335 
L 614.91645 597.337861 
L 615.168757 601.072491 
L 615.421063 606.920802 
L 615.67337 606.898526 
L 616.177984 612.962344 
L 616.430291 614.75649 
L 616.682598 613.903479 
L 616.934905 619.780404 
L 617.187212 617.663253 
L 617.439519 614.151319 
L 617.691826 621.326049 
L 618.196439 625.405997 
L 618.448746 623.562382 
L 618.701053 624.959723 
L 618.95336 624.584047 
L 619.457974 630.799293 
L 619.710281 631.502222 
L 619.962588 632.696198 
L 620.214895 628.569406 
L 620.467202 631.569271 
L 620.719508 632.737553 
L 620.971815 636.385425 
L 621.224122 633.335452 
L 621.476429 632.778776 
L 621.728736 636.877814 
L 621.981043 635.529287 
L 622.23335 638.22299 
L 622.485657 634.82932 
L 622.737964 636.890699 
L 622.990271 636.626506 
L 623.242577 639.503363 
L 623.494884 638.556556 
L 623.747191 640.680396 
L 623.999498 641.320536 
L 624.251805 640.232585 
L 624.504112 637.823932 
L 624.756419 640.971599 
L 625.261033 644.460131 
L 625.51334 644.492496 
L 625.765646 639.068278 
L 626.017953 646.090329 
L 626.27026 643.178326 
L 626.522567 643.119157 
L 627.027181 644.432123 
L 627.279488 644.5227 
L 627.531795 649.460059 
L 627.784102 645.967132 
L 628.288715 646.654184 
L 628.541022 645.364284 
L 628.793329 648.002963 
L 629.045636 648.405582 
L 629.297943 647.155443 
L 629.55025 644.133354 
L 629.802557 645.069434 
L 630.054864 646.584996 
L 630.307171 645.421033 
L 630.559478 646.634813 
L 630.811784 646.828914 
L 631.064091 646.73605 
L 631.316398 647.283051 
L 631.568705 648.734399 
L 631.821012 647.727803 
L 632.073319 647.999709 
L 632.325626 645.836356 
L 632.577933 648.297501 
L 632.83024 647.77903 
L 633.334853 645.096166 
L 633.58716 647.606365 
L 633.839467 646.926497 
L 634.091774 645.812057 
L 634.344081 645.448371 
L 634.596388 642.335086 
L 634.848695 643.3849 
L 635.101002 645.468854 
L 635.353309 642.573949 
L 635.857923 641.312445 
L 636.110229 642.27156 
L 636.362536 640.088842 
L 636.614843 639.503536 
L 636.86715 643.916335 
L 637.119457 643.312433 
L 637.371764 642.416087 
L 637.624071 642.256006 
L 637.876378 644.760034 
L 638.128685 643.570871 
L 638.380992 645.131727 
L 638.633298 645.575489 
L 638.885605 646.574226 
L 639.137912 646.748594 
L 639.390219 650.422189 
L 639.642526 651.906968 
L 639.894833 647.565214 
L 640.14714 647.441691 
L 640.399447 646.760931 
L 640.651754 650.551589 
L 640.904061 647.632936 
L 641.156367 649.785471 
L 641.408674 647.345259 
L 641.660981 650.320474 
L 641.913288 651.703379 
L 642.165595 650.963336 
L 642.417902 651.421987 
L 642.670209 652.571622 
L 642.922516 651.094135 
L 643.174823 651.904454 
L 643.42713 652.254882 
L 643.679436 652.326543 
L 643.931743 652.25448 
L 644.18405 652.710287 
L 644.436357 652.296249 
L 644.688664 650.907356 
L 644.940971 650.996249 
L 645.445585 650.734835 
L 645.697892 649.479179 
L 645.950199 652.148837 
L 646.202505 652.089204 
L 646.454812 651.076721 
L 646.707119 653.720988 
L 646.959426 653.047269 
L 647.211733 651.855333 
L 647.46404 651.692141 
L 647.716347 653.354567 
L 647.968654 651.223347 
L 648.220961 652.778861 
L 648.473268 652.18493 
L 648.725574 650.706882 
L 648.977881 652.712231 
L 649.482495 651.971979 
L 649.734802 652.220267 
L 649.987109 649.475625 
L 650.491723 653.499246 
L 650.74403 651.248522 
L 650.996337 650.007871 
L 651.248643 651.627141 
L 651.50095 651.504104 
L 651.753257 652.15345 
L 652.005564 651.465644 
L 652.257871 652.102156 
L 652.510178 650.033345 
L 653.014792 652.731234 
L 653.267099 651.972688 
L 653.519406 651.953069 
L 653.771713 650.088904 
L 654.024019 653.255793 
L 654.528633 652.217514 
L 654.78094 652.203873 
L 655.033247 651.567363 
L 655.285554 653.084343 
L 655.537861 653.157949 
L 655.790168 652.742797 
L 656.042475 652.064399 
L 656.294782 653.561068 
L 656.547088 653.237144 
L 656.799395 651.345194 
L 657.051702 651.750774 
L 657.304009 653.629026 
L 657.556316 654.14216 
L 658.06093 652.776775 
L 658.313237 652.723088 
L 658.565544 652.980734 
L 658.817851 651.163239 
L 659.322464 653.583799 
L 659.574771 654.902186 
L 659.827078 652.614393 
L 660.079385 654.108972 
L 660.331692 653.373291 
L 660.583999 651.120215 
L 660.836306 653.354193 
L 661.088613 650.354814 
L 661.34092 650.228355 
L 661.593226 649.670941 
L 661.845533 644.994042 
L 662.09784 642.891662 
L 662.350147 644.632527 
L 662.602454 639.537074 
L 662.854761 637.384236 
L 663.107068 637.710642 
L 663.359375 631.375193 
L 663.611682 632.34625 
L 663.863989 632.38472 
L 664.116295 629.239548 
L 664.368602 628.130443 
L 664.620909 625.500474 
L 664.873216 626.490729 
L 665.125523 624.827484 
L 665.37783 632.60509 
L 665.630137 635.177935 
L 665.882444 633.916021 
L 666.134751 638.098801 
L 666.639364 641.629104 
L 666.891671 645.793077 
L 667.143978 644.478639 
L 667.396285 649.147903 
L 667.648592 648.731413 
L 667.900899 649.31842 
L 668.153206 648.599927 
L 668.405513 653.423189 
L 668.65782 650.910702 
L 668.910127 649.643104 
L 669.162433 653.409532 
L 669.41474 654.258768 
L 669.667047 651.992818 
L 669.919354 652.306161 
L 670.171661 652.387179 
L 670.676275 653.197515 
L 670.928582 650.568487 
L 671.180889 653.138332 
L 671.433196 652.16568 
L 671.685503 652.710728 
L 671.937809 651.987248 
L 672.190116 652.359171 
L 672.442423 653.085058 
L 672.69473 653.158891 
L 672.947037 651.487884 
L 673.199344 648.806236 
L 673.451651 652.929324 
L 673.703958 653.357301 
L 673.956265 651.013032 
L 674.208572 649.799897 
L 674.460878 647.309697 
L 674.713185 648.176534 
L 674.965492 644.289843 
L 675.217799 644.694006 
L 675.470106 643.328444 
L 675.97472 638.519434 
L 676.479334 636.019426 
L 676.731641 631.998802 
L 676.983947 635.441154 
L 677.236254 635.124393 
L 677.488561 637.609439 
L 677.740868 638.083826 
L 677.993175 637.614842 
L 678.245482 639.486401 
L 678.750096 645.394193 
L 679.002403 642.161499 
L 679.507016 648.365086 
L 679.759323 648.071173 
L 680.01163 651.490987 
L 680.263937 651.149593 
L 680.516244 649.751878 
L 681.020858 652.046206 
L 681.273165 651.717421 
L 681.525472 651.16703 
L 681.777779 653.58629 
L 682.030085 652.570517 
L 682.282392 653.095214 
L 682.534699 652.932398 
L 682.787006 650.740523 
L 683.039313 653.952373 
L 683.29162 653.955138 
L 683.543927 650.617865 
L 683.796234 652.413346 
L 684.048541 651.156707 
L 684.553154 653.552008 
L 684.805461 652.229121 
L 685.057768 652.513581 
L 685.310075 650.619231 
L 685.562382 651.764165 
L 685.814689 650.725053 
L 686.066996 652.424623 
L 686.319303 652.41263 
L 686.57161 652.887946 
L 686.823917 652.789382 
L 687.076224 653.518673 
L 687.32853 653.483676 
L 687.580837 651.150396 
L 688.085451 654.284844 
L 688.337758 652.672799 
L 688.590065 654.486732 
L 688.842372 652.564122 
L 689.094679 653.785353 
L 689.346986 652.406478 
L 689.599293 653.913015 
L 689.851599 653.819797 
L 690.103906 654.436841 
L 690.356213 652.42997 
L 690.860827 653.977784 
L 691.113134 653.492869 
L 691.365441 653.418997 
L 691.617748 652.121639 
L 691.870055 652.077634 
L 692.122362 651.654077 
L 692.626975 653.524542 
L 693.131589 651.504446 
L 693.383896 653.886607 
L 693.636203 652.146453 
L 693.88851 653.891321 
L 694.140817 653.774743 
L 694.393124 653.305474 
L 694.645431 652.113327 
L 694.897737 652.00561 
L 695.150044 653.734891 
L 695.402351 652.053234 
L 695.654658 653.642827 
L 695.906965 651.738945 
L 696.159272 652.084382 
L 696.411579 650.956561 
L 696.663886 650.381363 
L 696.916193 651.057699 
L 696.916193 651.057699 
" clip-path="url(#pa1976a6ec8)" style="fill: none; stroke: #0000ff; stroke-width: 1.5; stroke-linecap: square"/>
   </g>
   <g id="patch_3">
    <path d="M 62.971875 663.3775 
L 62.971875 25.3575 
" style="fill: none; stroke: #000000; stroke-width: 1.5; stroke-linejoin: miter; stroke-linecap: square"/>
   </g>
   <g id="patch_4">
    <path d="M 62.971875 663.3775 
L 696.731875 663.3775 
" style="fill: none; stroke: #000000; stroke-width: 1.5; stroke-linejoin: miter; stroke-linecap: square"/>
   </g>
   <g id="patch_5">
    <path d="M 97.434995 97.222426 
Q 97.434995 101.719573 97.434995 106.21672 
" style="fill: none; stroke: #ff0000; stroke-width: 0.5; stroke-linecap: round"/>
   </g>
   <g id="text_18">
    <!-- 18:2-9,12 -->
    <g transform="translate(95.16337 93.216347) rotate(-90) scale(0.08 -0.08)">
     <defs>
      <path id="DejaVuSans-3a" d="M 750 794 
L 1409 794 
L 1409 0 
L 750 0 
L 750 794 
z
M 750 3309 
L 1409 3309 
L 1409 2516 
L 750 2516 
L 750 3309 
z
" transform="scale(0.015625)"/>
      <path id="DejaVuSans-2d" d="M 313 2009 
L 1997 2009 
L 1997 1497 
L 313 1497 
L 313 2009 
z
" transform="scale(0.015625)"/>
      <path id="DejaVuSans-2c" d="M 750 794 
L 1409 794 
L 1409 256 
L 897 -744 
L 494 -744 
L 750 256 
L 750 794 
z
" transform="scale(0.015625)"/>
     </defs>
     <use xlink:href="#DejaVuSans-31"/>
     <use xlink:href="#DejaVuSans-38" transform="translate(63.623047 0)"/>
     <use xlink:href="#DejaVuSans-3a" transform="translate(127.246094 0)"/>
     <use xlink:href="#DejaVuSans-32" transform="translate(160.9375 0)"/>
     <use xlink:href="#DejaVuSans-2d" transform="translate(224.560547 0)"/>
     <use xlink:href="#DejaVuSans-39" transform="translate(260.644531 0)"/>
     <use xlink:href="#DejaVuSans-2c" transform="translate(324.267578 0)"/>
     <use xlink:href="#DejaVuSans-31" transform="translate(356.054688 0)"/>
     <use xlink:href="#DejaVuSans-32" transform="translate(419.677734 0)"/>
    </g>
    <!-- 25.49 -->
    <g transform="translate(104.12162 85.335722) rotate(-90) scale(0.08 -0.08)">
     <defs>
      <path id="DejaVuSans-2e" d="M 684 794 
L 1344 794 
L 1344 0 
L 684 0 
L 684 794 
z
" transform="scale(0.015625)"/>
     </defs>
     <use xlink:href="#DejaVuSans-32"/>
     <use xlink:href="#DejaVuSans-35" transform="translate(63.623047 0)"/>
     <use xlink:href="#DejaVuSans-2e" transform="translate(127.246094 0)"/>
     <use xlink:href="#DejaVuSans-34" transform="translate(159.033203 0)"/>
     <use xlink:href="#DejaVuSans-39" transform="translate(222.65625 0)"/>
    </g>
   </g>
   <g id="patch_6">
    <path d="M 196.3393 509.636477 
Q 196.3393 514.133974 196.3393 518.63147 
" style="fill: none; stroke: #ff0000; stroke-width: 0.5; stroke-linecap: round"/>
   </g>
   <g id="text_19">
    <!-- 18:3-6,9,12 -->
    <g transform="translate(194.067675 505.631253) rotate(-90) scale(0.08 -0.08)">
     <use xlink:href="#DejaVuSans-31"/>
     <use xlink:href="#DejaVuSans-38" transform="translate(63.623047 0)"/>
     <use xlink:href="#DejaVuSans-3a" transform="translate(127.246094 0)"/>
     <use xlink:href="#DejaVuSans-33" transform="translate(160.9375 0)"/>
     <use xlink:href="#DejaVuSans-2d" transform="translate(224.560547 0)"/>
     <use xlink:href="#DejaVuSans-36" transform="translate(260.644531 0)"/>
     <use xlink:href="#DejaVuSans-2c" transform="translate(324.267578 0)"/>
     <use xlink:href="#DejaVuSans-39" transform="translate(356.054688 0)"/>
     <use xlink:href="#DejaVuSans-2c" transform="translate(419.677734 0)"/>
     <use xlink:href="#DejaVuSans-31" transform="translate(451.464844 0)"/>
     <use xlink:href="#DejaVuSans-32" transform="translate(515.087891 0)"/>
    </g>
    <!-- 26.89 -->
    <g transform="translate(203.025925 493.934378) rotate(-90) scale(0.08 -0.08)">
     <use xlink:href="#DejaVuSans-32"/>
     <use xlink:href="#DejaVuSans-36" transform="translate(63.623047 0)"/>
     <use xlink:href="#DejaVuSans-2e" transform="translate(127.246094 0)"/>
     <use xlink:href="#DejaVuSans-38" transform="translate(159.033203 0)"/>
     <use xlink:href="#DejaVuSans-39" transform="translate(222.65625 0)"/>
    </g>
   </g>
   <g id="patch_7">
    <path d="M 236.456097 610.110539 
Q 236.456097 614.610053 236.456097 619.109568 
" style="fill: none; stroke: #ff0000; stroke-width: 0.5; stroke-linecap: round"/>
   </g>
   <g id="text_20">
    <!-- 20:0 -->
    <g transform="translate(234.184472 603.641497) rotate(-90) scale(0.08 -0.08)">
     <use xlink:href="#DejaVuSans-32"/>
     <use xlink:href="#DejaVuSans-30" transform="translate(63.623047 0)"/>
     <use xlink:href="#DejaVuSans-3a" transform="translate(127.246094 0)"/>
     <use xlink:href="#DejaVuSans-30" transform="translate(160.9375 0)"/>
    </g>
    <!-- 27.46 -->
    <g transform="translate(243.142722 606.110247) rotate(-90) scale(0.08 -0.08)">
     <use xlink:href="#DejaVuSans-32"/>
     <use xlink:href="#DejaVuSans-37" transform="translate(63.623047 0)"/>
     <use xlink:href="#DejaVuSans-2e" transform="translate(127.246094 0)"/>
     <use xlink:href="#DejaVuSans-34" transform="translate(159.033203 0)"/>
     <use xlink:href="#DejaVuSans-36" transform="translate(222.65625 0)"/>
    </g>
   </g>
   <g id="patch_8">
    <path d="M 262.191401 591.520084 
Q 262.191401 596.018531 262.191401 600.516978 
" style="fill: none; stroke: #ff0000; stroke-width: 0.5; stroke-linecap: round"/>
   </g>
   <g id="text_21">
    <!-- 18:3-9,12,15 -->
    <g transform="translate(259.919776 587.517183) rotate(-90) scale(0.08 -0.08)">
     <use xlink:href="#DejaVuSans-31"/>
     <use xlink:href="#DejaVuSans-38" transform="translate(63.623047 0)"/>
     <use xlink:href="#DejaVuSans-3a" transform="translate(127.246094 0)"/>
     <use xlink:href="#DejaVuSans-33" transform="translate(160.9375 0)"/>
     <use xlink:href="#DejaVuSans-2d" transform="translate(224.560547 0)"/>
     <use xlink:href="#DejaVuSans-39" transform="translate(260.644531 0)"/>
     <use xlink:href="#DejaVuSans-2c" transform="translate(324.267578 0)"/>
     <use xlink:href="#DejaVuSans-31" transform="translate(356.054688 0)"/>
     <use xlink:href="#DejaVuSans-32" transform="translate(419.677734 0)"/>
     <use xlink:href="#DejaVuSans-2c" transform="translate(483.300781 0)"/>
     <use xlink:href="#DejaVuSans-31" transform="translate(515.087891 0)"/>
     <use xlink:href="#DejaVuSans-35" transform="translate(578.710938 0)"/>
    </g>
    <!-- 27.83 -->
    <g transform="translate(268.878026 573.275308) rotate(-90) scale(0.08 -0.08)">
     <use xlink:href="#DejaVuSans-32"/>
     <use xlink:href="#DejaVuSans-37" transform="translate(63.623047 0)"/>
     <use xlink:href="#DejaVuSans-2e" transform="translate(127.246094 0)"/>
     <use xlink:href="#DejaVuSans-38" transform="translate(159.033203 0)"/>
     <use xlink:href="#DejaVuSans-33" transform="translate(222.65625 0)"/>
    </g>
   </g>
   <g id="patch_9">
    <path d="M 360.591093 635.161349 
Q 360.591093 639.659575 360.591093 644.157801 
" style="fill: none; stroke: #ff0000; stroke-width: 0.5; stroke-linecap: round"/>
   </g>
   <g id="text_22">
    <!-- 18:4-6,9,12,15 -->
    <g transform="translate(358.319468 631.157908) rotate(-90) scale(0.08 -0.08)">
     <use xlink:href="#DejaVuSans-31"/>
     <use xlink:href="#DejaVuSans-38" transform="translate(63.623047 0)"/>
     <use xlink:href="#DejaVuSans-3a" transform="translate(127.246094 0)"/>
     <use xlink:href="#DejaVuSans-34" transform="translate(160.9375 0)"/>
     <use xlink:href="#DejaVuSans-2d" transform="translate(224.560547 0)"/>
     <use xlink:href="#DejaVuSans-36" transform="translate(260.644531 0)"/>
     <use xlink:href="#DejaVuSans-2c" transform="translate(324.267578 0)"/>
     <use xlink:href="#DejaVuSans-39" transform="translate(356.054688 0)"/>
     <use xlink:href="#DejaVuSans-2c" transform="translate(419.677734 0)"/>
     <use xlink:href="#DejaVuSans-31" transform="translate(451.464844 0)"/>
     <use xlink:href="#DejaVuSans-32" transform="translate(515.087891 0)"/>
     <use xlink:href="#DejaVuSans-2c" transform="translate(578.710938 0)"/>
     <use xlink:href="#DejaVuSans-31" transform="translate(610.498047 0)"/>
     <use xlink:href="#DejaVuSans-35" transform="translate(674.121094 0)"/>
    </g>
    <!-- 29.23 -->
    <g transform="translate(367.277718 613.099783) rotate(-90) scale(0.08 -0.08)">
     <use xlink:href="#DejaVuSans-32"/>
     <use xlink:href="#DejaVuSans-39" transform="translate(63.623047 0)"/>
     <use xlink:href="#DejaVuSans-2e" transform="translate(127.246094 0)"/>
     <use xlink:href="#DejaVuSans-32" transform="translate(159.033203 0)"/>
     <use xlink:href="#DejaVuSans-33" transform="translate(222.65625 0)"/>
    </g>
   </g>
   <g id="patch_10">
    <path d="M 529.38441 174.736908 
Q 529.38441 179.235354 529.38441 183.733801 
" style="fill: none; stroke: #ff0000; stroke-width: 0.5; stroke-linecap: round"/>
   </g>
   <g id="text_23">
    <!-- 20:3-8,11,14 -->
    <g transform="translate(527.112785 170.734006) rotate(-90) scale(0.08 -0.08)">
     <use xlink:href="#DejaVuSans-32"/>
     <use xlink:href="#DejaVuSans-30" transform="translate(63.623047 0)"/>
     <use xlink:href="#DejaVuSans-3a" transform="translate(127.246094 0)"/>
     <use xlink:href="#DejaVuSans-33" transform="translate(160.9375 0)"/>
     <use xlink:href="#DejaVuSans-2d" transform="translate(224.560547 0)"/>
     <use xlink:href="#DejaVuSans-38" transform="translate(260.644531 0)"/>
     <use xlink:href="#DejaVuSans-2c" transform="translate(324.267578 0)"/>
     <use xlink:href="#DejaVuSans-31" transform="translate(356.054688 0)"/>
     <use xlink:href="#DejaVuSans-31" transform="translate(419.677734 0)"/>
     <use xlink:href="#DejaVuSans-2c" transform="translate(483.300781 0)"/>
     <use xlink:href="#DejaVuSans-31" transform="translate(515.087891 0)"/>
     <use xlink:href="#DejaVuSans-34" transform="translate(578.710938 0)"/>
    </g>
    <!-- 31.62 -->
    <g transform="translate(536.071035 156.492131) rotate(-90) scale(0.08 -0.08)">
     <use xlink:href="#DejaVuSans-33"/>
     <use xlink:href="#DejaVuSans-31" transform="translate(63.623047 0)"/>
     <use xlink:href="#DejaVuSans-2e" transform="translate(127.246094 0)"/>
     <use xlink:href="#DejaVuSans-36" transform="translate(159.033203 0)"/>
     <use xlink:href="#DejaVuSans-32" transform="translate(222.65625 0)"/>
    </g>
   </g>
   <g id="patch_11">
    <path d="M 569.753514 617.917648 
Q 569.753514 622.417163 569.753514 626.916677 
" style="fill: none; stroke: #ff0000; stroke-width: 0.5; stroke-linecap: round"/>
   </g>
   <g id="text_24">
    <!-- 22:0 -->
    <g transform="translate(567.481889 611.448607) rotate(-90) scale(0.08 -0.08)">
     <use xlink:href="#DejaVuSans-32"/>
     <use xlink:href="#DejaVuSans-32" transform="translate(63.623047 0)"/>
     <use xlink:href="#DejaVuSans-3a" transform="translate(127.246094 0)"/>
     <use xlink:href="#DejaVuSans-30" transform="translate(160.9375 0)"/>
    </g>
    <!-- 32.20 -->
    <g transform="translate(576.440139 613.917357) rotate(-90) scale(0.08 -0.08)">
     <use xlink:href="#DejaVuSans-33"/>
     <use xlink:href="#DejaVuSans-32" transform="translate(63.623047 0)"/>
     <use xlink:href="#DejaVuSans-2e" transform="translate(127.246094 0)"/>
     <use xlink:href="#DejaVuSans-32" transform="translate(159.033203 0)"/>
     <use xlink:href="#DejaVuSans-30" transform="translate(222.65625 0)"/>
    </g>
   </g>
   <g id="patch_12">
    <path d="M 592.713442 258.586574 
Q 592.713442 263.0848 592.713442 267.583026 
" style="fill: none; stroke: #ff0000; stroke-width: 0.5; stroke-linecap: round"/>
   </g>
   <g id="text_25">
    <!-- 20:4-5,8,11,14 -->
    <g transform="translate(590.441817 254.583132) rotate(-90) scale(0.08 -0.08)">
     <use xlink:href="#DejaVuSans-32"/>
     <use xlink:href="#DejaVuSans-30" transform="translate(63.623047 0)"/>
     <use xlink:href="#DejaVuSans-3a" transform="translate(127.246094 0)"/>
     <use xlink:href="#DejaVuSans-34" transform="translate(160.9375 0)"/>
     <use xlink:href="#DejaVuSans-2d" transform="translate(224.560547 0)"/>
     <use xlink:href="#DejaVuSans-35" transform="translate(260.644531 0)"/>
     <use xlink:href="#DejaVuSans-2c" transform="translate(324.267578 0)"/>
     <use xlink:href="#DejaVuSans-38" transform="translate(356.054688 0)"/>
     <use xlink:href="#DejaVuSans-2c" transform="translate(419.677734 0)"/>
     <use xlink:href="#DejaVuSans-31" transform="translate(451.464844 0)"/>
     <use xlink:href="#DejaVuSans-31" transform="translate(515.087891 0)"/>
     <use xlink:href="#DejaVuSans-2c" transform="translate(578.710938 0)"/>
     <use xlink:href="#DejaVuSans-31" transform="translate(610.498047 0)"/>
     <use xlink:href="#DejaVuSans-34" transform="translate(674.121094 0)"/>
    </g>
    <!-- 32.52 -->
    <g transform="translate(599.400067 236.525007) rotate(-90) scale(0.08 -0.08)">
     <use xlink:href="#DejaVuSans-33"/>
     <use xlink:href="#DejaVuSans-32" transform="translate(63.623047 0)"/>
     <use xlink:href="#DejaVuSans-2e" transform="translate(127.246094 0)"/>
     <use xlink:href="#DejaVuSans-35" transform="translate(159.033203 0)"/>
     <use xlink:href="#DejaVuSans-32" transform="translate(222.65625 0)"/>
    </g>
   </g>
   <g id="patch_13">
    <path d="M 676.731641 621.000292 
Q 676.731641 625.499316 676.731641 629.998341 
" style="fill: none; stroke: #ff0000; stroke-width: 0.5; stroke-linecap: round"/>
   </g>
   <g id="text_26">
    <!-- 20:4-8,11,14,17 -->
    <g transform="translate(674.460016 616.998802) rotate(-90) scale(0.08 -0.08)">
     <use xlink:href="#DejaVuSans-32"/>
     <use xlink:href="#DejaVuSans-30" transform="translate(63.623047 0)"/>
     <use xlink:href="#DejaVuSans-3a" transform="translate(127.246094 0)"/>
     <use xlink:href="#DejaVuSans-34" transform="translate(160.9375 0)"/>
     <use xlink:href="#DejaVuSans-2d" transform="translate(224.560547 0)"/>
     <use xlink:href="#DejaVuSans-38" transform="translate(260.644531 0)"/>
     <use xlink:href="#DejaVuSans-2c" transform="translate(324.267578 0)"/>
     <use xlink:href="#DejaVuSans-31" transform="translate(356.054688 0)"/>
     <use xlink:href="#DejaVuSans-31" transform="translate(419.677734 0)"/>
     <use xlink:href="#DejaVuSans-2c" transform="translate(483.300781 0)"/>
     <use xlink:href="#DejaVuSans-31" transform="translate(515.087891 0)"/>
     <use xlink:href="#DejaVuSans-34" transform="translate(578.710938 0)"/>
     <use xlink:href="#DejaVuSans-2c" transform="translate(642.333984 0)"/>
     <use xlink:href="#DejaVuSans-31" transform="translate(674.121094 0)"/>
     <use xlink:href="#DejaVuSans-37" transform="translate(737.744141 0)"/>
    </g>
    <!-- 33.72 -->
    <g transform="translate(683.418266 596.395677) rotate(-90) scale(0.08 -0.08)">
     <use xlink:href="#DejaVuSans-33"/>
     <use xlink:href="#DejaVuSans-33" transform="translate(63.623047 0)"/>
     <use xlink:href="#DejaVuSans-2e" transform="translate(127.246094 0)"/>
     <use xlink:href="#DejaVuSans-37" transform="translate(159.033203 0)"/>
     <use xlink:href="#DejaVuSans-32" transform="translate(222.65625 0)"/>
    </g>
   </g>
   <g id="text_27">
    <!-- Хроматограмма МСД-1 : TIC -->
    <g transform="translate(262.878125 19.3575) scale(0.16 -0.16)">
     <defs>
      <path id="DejaVuSans-425" d="M 403 4666 
L 1081 4666 
L 2241 2931 
L 3406 4666 
L 4084 4666 
L 2584 2425 
L 4184 0 
L 3506 0 
L 2194 1984 
L 872 0 
L 191 0 
L 1856 2491 
L 403 4666 
z
" transform="scale(0.015625)"/>
      <path id="DejaVuSans-430" d="M 2194 1759 
Q 1497 1759 1228 1600 
Q 959 1441 959 1056 
Q 959 750 1161 570 
Q 1363 391 1709 391 
Q 2188 391 2477 730 
Q 2766 1069 2766 1631 
L 2766 1759 
L 2194 1759 
z
M 3341 1997 
L 3341 0 
L 2766 0 
L 2766 531 
Q 2569 213 2275 61 
Q 1981 -91 1556 -91 
Q 1019 -91 701 211 
Q 384 513 384 1019 
Q 384 1609 779 1909 
Q 1175 2209 1959 2209 
L 2766 2209 
L 2766 2266 
Q 2766 2663 2505 2880 
Q 2244 3097 1772 3097 
Q 1472 3097 1187 3025 
Q 903 2953 641 2809 
L 641 3341 
Q 956 3463 1253 3523 
Q 1550 3584 1831 3584 
Q 2591 3584 2966 3190 
Q 3341 2797 3341 1997 
z
" transform="scale(0.015625)"/>
      <path id="DejaVuSans-433" d="M 581 0 
L 581 3500 
L 3050 3500 
L 3050 3041 
L 1159 3041 
L 1159 0 
L 581 0 
z
" transform="scale(0.015625)"/>
      <path id="DejaVuSans-41c" d="M 628 4666 
L 1569 4666 
L 2759 1491 
L 3956 4666 
L 4897 4666 
L 4897 0 
L 4281 0 
L 4281 4097 
L 3078 897 
L 2444 897 
L 1241 4097 
L 1241 0 
L 628 0 
L 628 4666 
z
" transform="scale(0.015625)"/>
      <path id="DejaVuSans-421" d="M 4122 4306 
L 4122 3641 
Q 3803 3938 3442 4084 
Q 3081 4231 2675 4231 
Q 1875 4231 1450 3742 
Q 1025 3253 1025 2328 
Q 1025 1406 1450 917 
Q 1875 428 2675 428 
Q 3081 428 3442 575 
Q 3803 722 4122 1019 
L 4122 359 
Q 3791 134 3420 21 
Q 3050 -91 2638 -91 
Q 1578 -91 968 557 
Q 359 1206 359 2328 
Q 359 3453 968 4101 
Q 1578 4750 2638 4750 
Q 3056 4750 3426 4639 
Q 3797 4528 4122 4306 
z
" transform="scale(0.015625)"/>
      <path id="DejaVuSans-414" d="M 1459 531 
L 3522 531 
L 3522 4134 
L 2006 4134 
L 2006 3472 
Q 2006 1913 1656 878 
Q 1584 666 1459 531 
z
M 538 531 
Q 956 728 1075 1103 
Q 1378 2066 1378 3784 
L 1378 4666 
L 4153 4666 
L 4153 531 
L 4684 531 
L 4684 -1003 
L 4153 -1003 
L 4153 0 
L 847 0 
L 847 -1003 
L 316 -1003 
L 316 531 
L 538 531 
z
" transform="scale(0.015625)"/>
      <path id="DejaVuSans-54" d="M -19 4666 
L 3928 4666 
L 3928 4134 
L 2272 4134 
L 2272 0 
L 1638 0 
L 1638 4134 
L -19 4134 
L -19 4666 
z
" transform="scale(0.015625)"/>
      <path id="DejaVuSans-49" d="M 628 4666 
L 1259 4666 
L 1259 0 
L 628 0 
L 628 4666 
z
" transform="scale(0.015625)"/>
      <path id="DejaVuSans-43" d="M 4122 4306 
L 4122 3641 
Q 3803 3938 3442 4084 
Q 3081 4231 2675 4231 
Q 1875 4231 1450 3742 
Q 1025 3253 1025 2328 
Q 1025 1406 1450 917 
Q 1875 428 2675 428 
Q 3081 428 3442 575 
Q 3803 722 4122 1019 
L 4122 359 
Q 3791 134 3420 21 
Q 3050 -91 2638 -91 
Q 1578 -91 968 557 
Q 359 1206 359 2328 
Q 359 3453 968 4101 
Q 1578 4750 2638 4750 
Q 3056 4750 3426 4639 
Q 3797 4528 4122 4306 
z
" transform="scale(0.015625)"/>
     </defs>
     <use xlink:href="#DejaVuSans-425"/>
     <use xlink:href="#DejaVuSans-440" transform="translate(68.505859 0)"/>
     <use xlink:href="#DejaVuSans-43e" transform="translate(131.982422 0)"/>
     <use xlink:href="#DejaVuSans-43c" transform="translate(193.164062 0)"/>
     <use xlink:href="#DejaVuSans-430" transform="translate(268.603516 0)"/>
     <use xlink:href="#DejaVuSans-442" transform="translate(329.882812 0)"/>
     <use xlink:href="#DejaVuSans-43e" transform="translate(388.134766 0)"/>
     <use xlink:href="#DejaVuSans-433" transform="translate(449.316406 0)"/>
     <use xlink:href="#DejaVuSans-440" transform="translate(501.855469 0)"/>
     <use xlink:href="#DejaVuSans-430" transform="translate(565.332031 0)"/>
     <use xlink:href="#DejaVuSans-43c" transform="translate(626.611328 0)"/>
     <use xlink:href="#DejaVuSans-43c" transform="translate(702.050781 0)"/>
     <use xlink:href="#DejaVuSans-430" transform="translate(777.490234 0)"/>
     <use xlink:href="#DejaVuSans-20" transform="translate(838.769531 0)"/>
     <use xlink:href="#DejaVuSans-41c" transform="translate(870.556641 0)"/>
     <use xlink:href="#DejaVuSans-421" transform="translate(956.835938 0)"/>
     <use xlink:href="#DejaVuSans-414" transform="translate(1026.660156 0)"/>
     <use xlink:href="#DejaVuSans-2d" transform="translate(1104.785156 0)"/>
     <use xlink:href="#DejaVuSans-31" transform="translate(1140.869141 0)"/>
     <use xlink:href="#DejaVuSans-20" transform="translate(1204.492188 0)"/>
     <use xlink:href="#DejaVuSans-3a" transform="translate(1236.279297 0)"/>
     <use xlink:href="#DejaVuSans-20" transform="translate(1269.970703 0)"/>
     <use xlink:href="#DejaVuSans-54" transform="translate(1301.757812 0)"/>
     <use xlink:href="#DejaVuSans-49" transform="translate(1362.841797 0)"/>
     <use xlink:href="#DejaVuSans-43" transform="translate(1392.333984 0)"/>
    </g>
   </g>
  </g>
 </g>
 <defs>
  <clipPath id="pa1976a6ec8">
   <rect x="62.971875" y="25.3575" width="633.76" height="638.02"/>
  </clipPath>
 </defs>
</svg>
