<?xml version="1.0" encoding="utf-8" standalone="no"?>
<!DOCTYPE svg PUBLIC "-//W3C//DTD SVG 1.1//EN"
  "http://www.w3.org/Graphics/SVG/1.1/DTD/svg11.dtd">
<svg xmlns:xlink="http://www.w3.org/1999/xlink" width="712.841875pt" height="713.17625pt" viewBox="0 0 712.841875 713.17625" xmlns="http://www.w3.org/2000/svg" version="1.1">
 <metadata>
  <rdf:RDF xmlns:dc="http://purl.org/dc/elements/1.1/" xmlns:cc="http://creativecommons.org/ns#" xmlns:rdf="http://www.w3.org/1999/02/22-rdf-syntax-ns#">
   <cc:Work>
    <dc:type rdf:resource="http://purl.org/dc/dcmitype/StillImage"/>
    <dc:date>2025-06-10T18:48:40.844029</dc:date>
    <dc:format>image/svg+xml</dc:format>
    <dc:creator>
     <cc:Agent>
      <dc:title>Matplotlib v3.10.3, https://matplotlib.org/</dc:title>
     </cc:Agent>
    </dc:creator>
   </cc:Work>
  </rdf:RDF>
 </metadata>
 <defs>
  <style type="text/css">*{stroke-linejoin: round; stroke-linecap: butt}</style>
 </defs>
 <g id="figure_1">
  <g id="patch_1">
   <path d="M 0 713.17625 
L 712.841875 713.17625 
L 712.841875 0 
L 0 0 
z
" style="fill: #ffffff"/>
  </g>
  <g id="axes_1">
   <g id="patch_2">
    <path d="M 62.971875 663.3775 
L 705.641875 663.3775 
L 705.641875 25.3575 
L 62.971875 25.3575 
z
" style="fill: #ffffff"/>
   </g>
   <g id="matplotlib.axis_1">
    <g id="xtick_1">
     <g id="line2d_1">
      <defs>
       <path id="m4ef12be0f5" d="M 0 0 
L 0 8 
" style="stroke: #000000; stroke-width: 1.5"/>
      </defs>
      <g>
       <use xlink:href="#m4ef12be0f5" x="160.749272" y="663.3775" style="stroke: #000000; stroke-width: 1.5"/>
      </g>
     </g>
     <g id="text_1">
      <!-- 15 -->
      <g transform="translate(151.841772 685.515312) scale(0.14 -0.14)">
       <defs>
        <path id="DejaVuSans-31" d="M 794 531 
L 1825 531 
L 1825 4091 
L 703 3866 
L 703 4441 
L 1819 4666 
L 2450 4666 
L 2450 531 
L 3481 531 
L 3481 0 
L 794 0 
L 794 531 
z
" transform="scale(0.015625)"/>
        <path id="DejaVuSans-35" d="M 691 4666 
L 3169 4666 
L 3169 4134 
L 1269 4134 
L 1269 2991 
Q 1406 3038 1543 3061 
Q 1681 3084 1819 3084 
Q 2600 3084 3056 2656 
Q 3513 2228 3513 1497 
Q 3513 744 3044 326 
Q 2575 -91 1722 -91 
Q 1428 -91 1123 -41 
Q 819 9 494 109 
L 494 744 
Q 775 591 1075 516 
Q 1375 441 1709 441 
Q 2250 441 2565 725 
Q 2881 1009 2881 1497 
Q 2881 1984 2565 2268 
Q 2250 2553 1709 2553 
Q 1456 2553 1204 2497 
Q 953 2441 691 2322 
L 691 4666 
z
" transform="scale(0.015625)"/>
       </defs>
       <use xlink:href="#DejaVuSans-31"/>
       <use xlink:href="#DejaVuSans-35" transform="translate(63.623047 0)"/>
      </g>
     </g>
    </g>
    <g id="xtick_2">
     <g id="line2d_2">
      <g>
       <use xlink:href="#m4ef12be0f5" x="258.528628" y="663.3775" style="stroke: #000000; stroke-width: 1.5"/>
      </g>
     </g>
     <g id="text_2">
      <!-- 20 -->
      <g transform="translate(249.621128 685.515312) scale(0.14 -0.14)">
       <defs>
        <path id="DejaVuSans-32" d="M 1228 531 
L 3431 531 
L 3431 0 
L 469 0 
L 469 531 
Q 828 903 1448 1529 
Q 2069 2156 2228 2338 
Q 2531 2678 2651 2914 
Q 2772 3150 2772 3378 
Q 2772 3750 2511 3984 
Q 2250 4219 1831 4219 
Q 1534 4219 1204 4116 
Q 875 4013 500 3803 
L 500 4441 
Q 881 4594 1212 4672 
Q 1544 4750 1819 4750 
Q 2544 4750 2975 4387 
Q 3406 4025 3406 3419 
Q 3406 3131 3298 2873 
Q 3191 2616 2906 2266 
Q 2828 2175 2409 1742 
Q 1991 1309 1228 531 
z
" transform="scale(0.015625)"/>
        <path id="DejaVuSans-30" d="M 2034 4250 
Q 1547 4250 1301 3770 
Q 1056 3291 1056 2328 
Q 1056 1369 1301 889 
Q 1547 409 2034 409 
Q 2525 409 2770 889 
Q 3016 1369 3016 2328 
Q 3016 3291 2770 3770 
Q 2525 4250 2034 4250 
z
M 2034 4750 
Q 2819 4750 3233 4129 
Q 3647 3509 3647 2328 
Q 3647 1150 3233 529 
Q 2819 -91 2034 -91 
Q 1250 -91 836 529 
Q 422 1150 422 2328 
Q 422 3509 836 4129 
Q 1250 4750 2034 4750 
z
" transform="scale(0.015625)"/>
       </defs>
       <use xlink:href="#DejaVuSans-32"/>
       <use xlink:href="#DejaVuSans-30" transform="translate(63.623047 0)"/>
      </g>
     </g>
    </g>
    <g id="xtick_3">
     <g id="line2d_3">
      <g>
       <use xlink:href="#m4ef12be0f5" x="356.307984" y="663.3775" style="stroke: #000000; stroke-width: 1.5"/>
      </g>
     </g>
     <g id="text_3">
      <!-- 25 -->
      <g transform="translate(347.400484 685.515312) scale(0.14 -0.14)">
       <use xlink:href="#DejaVuSans-32"/>
       <use xlink:href="#DejaVuSans-35" transform="translate(63.623047 0)"/>
      </g>
     </g>
    </g>
    <g id="xtick_4">
     <g id="line2d_4">
      <g>
       <use xlink:href="#m4ef12be0f5" x="454.087339" y="663.3775" style="stroke: #000000; stroke-width: 1.5"/>
      </g>
     </g>
     <g id="text_4">
      <!-- 30 -->
      <g transform="translate(445.179839 685.515312) scale(0.14 -0.14)">
       <defs>
        <path id="DejaVuSans-33" d="M 2597 2516 
Q 3050 2419 3304 2112 
Q 3559 1806 3559 1356 
Q 3559 666 3084 287 
Q 2609 -91 1734 -91 
Q 1441 -91 1130 -33 
Q 819 25 488 141 
L 488 750 
Q 750 597 1062 519 
Q 1375 441 1716 441 
Q 2309 441 2620 675 
Q 2931 909 2931 1356 
Q 2931 1769 2642 2001 
Q 2353 2234 1838 2234 
L 1294 2234 
L 1294 2753 
L 1863 2753 
Q 2328 2753 2575 2939 
Q 2822 3125 2822 3475 
Q 2822 3834 2567 4026 
Q 2313 4219 1838 4219 
Q 1578 4219 1281 4162 
Q 984 4106 628 3988 
L 628 4550 
Q 988 4650 1302 4700 
Q 1616 4750 1894 4750 
Q 2613 4750 3031 4423 
Q 3450 4097 3450 3541 
Q 3450 3153 3228 2886 
Q 3006 2619 2597 2516 
z
" transform="scale(0.015625)"/>
       </defs>
       <use xlink:href="#DejaVuSans-33"/>
       <use xlink:href="#DejaVuSans-30" transform="translate(63.623047 0)"/>
      </g>
     </g>
    </g>
    <g id="xtick_5">
     <g id="line2d_5">
      <g>
       <use xlink:href="#m4ef12be0f5" x="551.866695" y="663.3775" style="stroke: #000000; stroke-width: 1.5"/>
      </g>
     </g>
     <g id="text_5">
      <!-- 35 -->
      <g transform="translate(542.959195 685.515312) scale(0.14 -0.14)">
       <use xlink:href="#DejaVuSans-33"/>
       <use xlink:href="#DejaVuSans-35" transform="translate(63.623047 0)"/>
      </g>
     </g>
    </g>
    <g id="xtick_6">
     <g id="line2d_6">
      <g>
       <use xlink:href="#m4ef12be0f5" x="649.646051" y="663.3775" style="stroke: #000000; stroke-width: 1.5"/>
      </g>
     </g>
     <g id="text_6">
      <!-- 40 -->
      <g transform="translate(640.738551 685.515312) scale(0.14 -0.14)">
       <defs>
        <path id="DejaVuSans-34" d="M 2419 4116 
L 825 1625 
L 2419 1625 
L 2419 4116 
z
M 2253 4666 
L 3047 4666 
L 3047 1625 
L 3713 1625 
L 3713 1100 
L 3047 1100 
L 3047 0 
L 2419 0 
L 2419 1100 
L 313 1100 
L 313 1709 
L 2253 4666 
z
" transform="scale(0.015625)"/>
       </defs>
       <use xlink:href="#DejaVuSans-34"/>
       <use xlink:href="#DejaVuSans-30" transform="translate(63.623047 0)"/>
      </g>
     </g>
    </g>
    <g id="text_7">
     <!-- Время (минуты) -->
     <g transform="translate(325.421563 703.064687) scale(0.14 -0.14)">
      <defs>
       <path id="DejaVuSans-412" d="M 1259 2228 
L 1259 519 
L 2272 519 
Q 2781 519 3026 730 
Q 3272 941 3272 1375 
Q 3272 1813 3026 2020 
Q 2781 2228 2272 2228 
L 1259 2228 
z
M 1259 4147 
L 1259 2741 
L 2194 2741 
Q 2656 2741 2882 2914 
Q 3109 3088 3109 3444 
Q 3109 3797 2882 3972 
Q 2656 4147 2194 4147 
L 1259 4147 
z
M 628 4666 
L 2241 4666 
Q 2963 4666 3353 4366 
Q 3744 4066 3744 3513 
Q 3744 3084 3544 2831 
Q 3344 2578 2956 2516 
Q 3422 2416 3680 2098 
Q 3938 1781 3938 1306 
Q 3938 681 3513 340 
Q 3088 0 2303 0 
L 628 0 
L 628 4666 
z
" transform="scale(0.015625)"/>
       <path id="DejaVuSans-440" d="M 1159 525 
L 1159 -1331 
L 581 -1331 
L 581 3500 
L 1159 3500 
L 1159 2969 
Q 1341 3281 1617 3432 
Q 1894 3584 2278 3584 
Q 2916 3584 3314 3078 
Q 3713 2572 3713 1747 
Q 3713 922 3314 415 
Q 2916 -91 2278 -91 
Q 1894 -91 1617 61 
Q 1341 213 1159 525 
z
M 3116 1747 
Q 3116 2381 2855 2742 
Q 2594 3103 2138 3103 
Q 1681 3103 1420 2742 
Q 1159 2381 1159 1747 
Q 1159 1113 1420 752 
Q 1681 391 2138 391 
Q 2594 391 2855 752 
Q 3116 1113 3116 1747 
z
" transform="scale(0.015625)"/>
       <path id="DejaVuSans-435" d="M 3597 1894 
L 3597 1613 
L 953 1613 
Q 991 1019 1311 708 
Q 1631 397 2203 397 
Q 2534 397 2845 478 
Q 3156 559 3463 722 
L 3463 178 
Q 3153 47 2828 -22 
Q 2503 -91 2169 -91 
Q 1331 -91 842 396 
Q 353 884 353 1716 
Q 353 2575 817 3079 
Q 1281 3584 2069 3584 
Q 2775 3584 3186 3129 
Q 3597 2675 3597 1894 
z
M 3022 2063 
Q 3016 2534 2758 2815 
Q 2500 3097 2075 3097 
Q 1594 3097 1305 2825 
Q 1016 2553 972 2059 
L 3022 2063 
z
" transform="scale(0.015625)"/>
       <path id="DejaVuSans-43c" d="M 581 3500 
L 1422 3500 
L 2416 1156 
L 3413 3500 
L 4247 3500 
L 4247 0 
L 3669 0 
L 3669 2950 
L 2703 672 
L 2128 672 
L 1159 2950 
L 1159 0 
L 581 0 
L 581 3500 
z
" transform="scale(0.015625)"/>
       <path id="DejaVuSans-44f" d="M 1181 2491 
Q 1181 2231 1381 2084 
Q 1581 1938 1953 1938 
L 2728 1938 
L 2728 3041 
L 1953 3041 
Q 1581 3041 1381 2897 
Q 1181 2753 1181 2491 
z
M 363 0 
L 1431 1534 
Q 1069 1616 828 1830 
Q 588 2044 588 2491 
Q 588 2997 923 3248 
Q 1259 3500 1938 3500 
L 3306 3500 
L 3306 0 
L 2728 0 
L 2728 1478 
L 2013 1478 
L 981 0 
L 363 0 
z
" transform="scale(0.015625)"/>
       <path id="DejaVuSans-20" transform="scale(0.015625)"/>
       <path id="DejaVuSans-28" d="M 1984 4856 
Q 1566 4138 1362 3434 
Q 1159 2731 1159 2009 
Q 1159 1288 1364 580 
Q 1569 -128 1984 -844 
L 1484 -844 
Q 1016 -109 783 600 
Q 550 1309 550 2009 
Q 550 2706 781 3412 
Q 1013 4119 1484 4856 
L 1984 4856 
z
" transform="scale(0.015625)"/>
       <path id="DejaVuSans-438" d="M 3578 3500 
L 3578 0 
L 3006 0 
L 3006 2809 
L 1319 0 
L 581 0 
L 581 3500 
L 1153 3500 
L 1153 697 
L 2838 3500 
L 3578 3500 
z
" transform="scale(0.015625)"/>
       <path id="DejaVuSans-43d" d="M 581 3500 
L 1159 3500 
L 1159 2072 
L 3025 2072 
L 3025 3500 
L 3603 3500 
L 3603 0 
L 3025 0 
L 3025 1613 
L 1159 1613 
L 1159 0 
L 581 0 
L 581 3500 
z
" transform="scale(0.015625)"/>
       <path id="DejaVuSans-443" d="M 2059 -325 
Q 1816 -950 1584 -1140 
Q 1353 -1331 966 -1331 
L 506 -1331 
L 506 -850 
L 844 -850 
Q 1081 -850 1212 -737 
Q 1344 -625 1503 -206 
L 1606 56 
L 191 3500 
L 800 3500 
L 1894 763 
L 2988 3500 
L 3597 3500 
L 2059 -325 
z
" transform="scale(0.015625)"/>
       <path id="DejaVuSans-442" d="M 188 3500 
L 3541 3500 
L 3541 3041 
L 2147 3041 
L 2147 0 
L 1581 0 
L 1581 3041 
L 188 3041 
L 188 3500 
z
" transform="scale(0.015625)"/>
       <path id="DejaVuSans-44b" d="M 3907 3500 
L 4482 3500 
L 4482 0 
L 3907 0 
L 3907 3500 
z
M 4195 3584 
L 4195 3584 
z
M 2781 1038 
Q 2781 1319 2576 1466 
Q 2372 1613 1978 1613 
L 1159 1613 
L 1159 459 
L 1978 459 
Q 2372 459 2576 607 
Q 2781 756 2781 1038 
z
M 581 3500 
L 1159 3500 
L 1159 2072 
L 2003 2072 
Q 2672 2072 3033 1817 
Q 3394 1563 3394 1038 
Q 3394 513 3033 256 
Q 2672 0 2003 0 
L 581 0 
L 581 3500 
z
" transform="scale(0.015625)"/>
       <path id="DejaVuSans-29" d="M 513 4856 
L 1013 4856 
Q 1481 4119 1714 3412 
Q 1947 2706 1947 2009 
Q 1947 1309 1714 600 
Q 1481 -109 1013 -844 
L 513 -844 
Q 928 -128 1133 580 
Q 1338 1288 1338 2009 
Q 1338 2731 1133 3434 
Q 928 4138 513 4856 
z
" transform="scale(0.015625)"/>
      </defs>
      <use xlink:href="#DejaVuSans-412"/>
      <use xlink:href="#DejaVuSans-440" transform="translate(68.603516 0)"/>
      <use xlink:href="#DejaVuSans-435" transform="translate(132.080078 0)"/>
      <use xlink:href="#DejaVuSans-43c" transform="translate(193.603516 0)"/>
      <use xlink:href="#DejaVuSans-44f" transform="translate(269.042969 0)"/>
      <use xlink:href="#DejaVuSans-20" transform="translate(329.199219 0)"/>
      <use xlink:href="#DejaVuSans-28" transform="translate(360.986328 0)"/>
      <use xlink:href="#DejaVuSans-43c" transform="translate(400 0)"/>
      <use xlink:href="#DejaVuSans-438" transform="translate(475.439453 0)"/>
      <use xlink:href="#DejaVuSans-43d" transform="translate(540.429688 0)"/>
      <use xlink:href="#DejaVuSans-443" transform="translate(605.810547 0)"/>
      <use xlink:href="#DejaVuSans-442" transform="translate(664.990234 0)"/>
      <use xlink:href="#DejaVuSans-44b" transform="translate(723.242188 0)"/>
      <use xlink:href="#DejaVuSans-29" transform="translate(802.197266 0)"/>
     </g>
    </g>
   </g>
   <g id="matplotlib.axis_2">
    <g id="ytick_1">
     <g id="line2d_7">
      <defs>
       <path id="mebe29e51aa" d="M 0 0 
L -8 0 
" style="stroke: #000000; stroke-width: 1.5"/>
      </defs>
      <g>
       <use xlink:href="#mebe29e51aa" x="62.971875" y="657.877328" style="stroke: #000000; stroke-width: 1.5"/>
      </g>
     </g>
     <g id="text_8">
      <!-- 0 -->
      <g transform="translate(42.564375 663.196234) scale(0.14 -0.14)">
       <use xlink:href="#DejaVuSans-30"/>
      </g>
     </g>
    </g>
    <g id="ytick_2">
     <g id="line2d_8">
      <g>
       <use xlink:href="#mebe29e51aa" x="62.971875" y="520.373017" style="stroke: #000000; stroke-width: 1.5"/>
      </g>
     </g>
     <g id="text_9">
      <!-- 25 -->
      <g transform="translate(33.656875 525.691923) scale(0.14 -0.14)">
       <use xlink:href="#DejaVuSans-32"/>
       <use xlink:href="#DejaVuSans-35" transform="translate(63.623047 0)"/>
      </g>
     </g>
    </g>
    <g id="ytick_3">
     <g id="line2d_9">
      <g>
       <use xlink:href="#mebe29e51aa" x="62.971875" y="382.868707" style="stroke: #000000; stroke-width: 1.5"/>
      </g>
     </g>
     <g id="text_10">
      <!-- 50 -->
      <g transform="translate(33.656875 388.187613) scale(0.14 -0.14)">
       <use xlink:href="#DejaVuSans-35"/>
       <use xlink:href="#DejaVuSans-30" transform="translate(63.623047 0)"/>
      </g>
     </g>
    </g>
    <g id="ytick_4">
     <g id="line2d_10">
      <g>
       <use xlink:href="#mebe29e51aa" x="62.971875" y="245.364397" style="stroke: #000000; stroke-width: 1.5"/>
      </g>
     </g>
     <g id="text_11">
      <!-- 75 -->
      <g transform="translate(33.656875 250.683303) scale(0.14 -0.14)">
       <defs>
        <path id="DejaVuSans-37" d="M 525 4666 
L 3525 4666 
L 3525 4397 
L 1831 0 
L 1172 0 
L 2766 4134 
L 525 4134 
L 525 4666 
z
" transform="scale(0.015625)"/>
       </defs>
       <use xlink:href="#DejaVuSans-37"/>
       <use xlink:href="#DejaVuSans-35" transform="translate(63.623047 0)"/>
      </g>
     </g>
    </g>
    <g id="ytick_5">
     <g id="line2d_11">
      <g>
       <use xlink:href="#mebe29e51aa" x="62.971875" y="107.860086" style="stroke: #000000; stroke-width: 1.5"/>
      </g>
     </g>
     <g id="text_12">
      <!-- 100 -->
      <g transform="translate(24.749375 113.178992) scale(0.14 -0.14)">
       <use xlink:href="#DejaVuSans-31"/>
       <use xlink:href="#DejaVuSans-30" transform="translate(63.623047 0)"/>
       <use xlink:href="#DejaVuSans-30" transform="translate(127.246094 0)"/>
      </g>
     </g>
    </g>
    <g id="text_13">
     <!-- Интенсивность (%) -->
     <g transform="translate(17.837813 414.914375) rotate(-90) scale(0.14 -0.14)">
      <defs>
       <path id="DejaVuSans-418" d="M 4159 4666 
L 4159 0 
L 3547 0 
L 3547 3903 
L 1478 0 
L 628 0 
L 628 4666 
L 1241 4666 
L 1241 763 
L 3309 4666 
L 4159 4666 
z
" transform="scale(0.015625)"/>
       <path id="DejaVuSans-441" d="M 3122 3366 
L 3122 2828 
Q 2878 2963 2633 3030 
Q 2388 3097 2138 3097 
Q 1578 3097 1268 2742 
Q 959 2388 959 1747 
Q 959 1106 1268 751 
Q 1578 397 2138 397 
Q 2388 397 2633 464 
Q 2878 531 3122 666 
L 3122 134 
Q 2881 22 2623 -34 
Q 2366 -91 2075 -91 
Q 1284 -91 818 406 
Q 353 903 353 1747 
Q 353 2603 823 3093 
Q 1294 3584 2113 3584 
Q 2378 3584 2631 3529 
Q 2884 3475 3122 3366 
z
" transform="scale(0.015625)"/>
       <path id="DejaVuSans-432" d="M 1156 1613 
L 1156 459 
L 1975 459 
Q 2369 459 2575 607 
Q 2781 756 2781 1038 
Q 2781 1319 2575 1466 
Q 2369 1613 1975 1613 
L 1156 1613 
z
M 1156 3041 
L 1156 2072 
L 1913 2072 
Q 2238 2072 2444 2201 
Q 2650 2331 2650 2563 
Q 2650 2794 2444 2917 
Q 2238 3041 1913 3041 
L 1156 3041 
z
M 581 3500 
L 1950 3500 
Q 2566 3500 2897 3275 
Q 3228 3050 3228 2634 
Q 3228 2313 3059 2123 
Q 2891 1934 2559 1888 
Q 2956 1813 3175 1575 
Q 3394 1338 3394 981 
Q 3394 513 3033 256 
Q 2672 0 2003 0 
L 581 0 
L 581 3500 
z
" transform="scale(0.015625)"/>
       <path id="DejaVuSans-43e" d="M 1959 3097 
Q 1497 3097 1228 2736 
Q 959 2375 959 1747 
Q 959 1119 1226 758 
Q 1494 397 1959 397 
Q 2419 397 2687 759 
Q 2956 1122 2956 1747 
Q 2956 2369 2687 2733 
Q 2419 3097 1959 3097 
z
M 1959 3584 
Q 2709 3584 3137 3096 
Q 3566 2609 3566 1747 
Q 3566 888 3137 398 
Q 2709 -91 1959 -91 
Q 1206 -91 779 398 
Q 353 888 353 1747 
Q 353 2609 779 3096 
Q 1206 3584 1959 3584 
z
" transform="scale(0.015625)"/>
       <path id="DejaVuSans-44c" d="M 2781 1038 
Q 2781 1319 2576 1466 
Q 2372 1613 1978 1613 
L 1159 1613 
L 1159 459 
L 1978 459 
Q 2372 459 2576 607 
Q 2781 756 2781 1038 
z
M 581 3500 
L 1159 3500 
L 1159 2072 
L 2003 2072 
Q 2672 2072 3033 1817 
Q 3394 1563 3394 1038 
Q 3394 513 3033 256 
Q 2672 0 2003 0 
L 581 0 
L 581 3500 
z
" transform="scale(0.015625)"/>
       <path id="DejaVuSans-25" d="M 4653 2053 
Q 4381 2053 4226 1822 
Q 4072 1591 4072 1178 
Q 4072 772 4226 539 
Q 4381 306 4653 306 
Q 4919 306 5073 539 
Q 5228 772 5228 1178 
Q 5228 1588 5073 1820 
Q 4919 2053 4653 2053 
z
M 4653 2450 
Q 5147 2450 5437 2106 
Q 5728 1763 5728 1178 
Q 5728 594 5436 251 
Q 5144 -91 4653 -91 
Q 4153 -91 3862 251 
Q 3572 594 3572 1178 
Q 3572 1766 3864 2108 
Q 4156 2450 4653 2450 
z
M 1428 4353 
Q 1159 4353 1004 4120 
Q 850 3888 850 3481 
Q 850 3069 1003 2837 
Q 1156 2606 1428 2606 
Q 1700 2606 1854 2837 
Q 2009 3069 2009 3481 
Q 2009 3884 1853 4118 
Q 1697 4353 1428 4353 
z
M 4250 4750 
L 4750 4750 
L 1831 -91 
L 1331 -91 
L 4250 4750 
z
M 1428 4750 
Q 1922 4750 2215 4408 
Q 2509 4066 2509 3481 
Q 2509 2891 2217 2550 
Q 1925 2209 1428 2209 
Q 931 2209 642 2551 
Q 353 2894 353 3481 
Q 353 4063 643 4406 
Q 934 4750 1428 4750 
z
" transform="scale(0.015625)"/>
      </defs>
      <use xlink:href="#DejaVuSans-418"/>
      <use xlink:href="#DejaVuSans-43d" transform="translate(74.804688 0)"/>
      <use xlink:href="#DejaVuSans-442" transform="translate(140.185547 0)"/>
      <use xlink:href="#DejaVuSans-435" transform="translate(198.4375 0)"/>
      <use xlink:href="#DejaVuSans-43d" transform="translate(259.960938 0)"/>
      <use xlink:href="#DejaVuSans-441" transform="translate(325.341797 0)"/>
      <use xlink:href="#DejaVuSans-438" transform="translate(380.322266 0)"/>
      <use xlink:href="#DejaVuSans-432" transform="translate(445.3125 0)"/>
      <use xlink:href="#DejaVuSans-43d" transform="translate(504.248047 0)"/>
      <use xlink:href="#DejaVuSans-43e" transform="translate(569.628906 0)"/>
      <use xlink:href="#DejaVuSans-441" transform="translate(630.810547 0)"/>
      <use xlink:href="#DejaVuSans-442" transform="translate(685.791016 0)"/>
      <use xlink:href="#DejaVuSans-44c" transform="translate(744.042969 0)"/>
      <use xlink:href="#DejaVuSans-20" transform="translate(802.978516 0)"/>
      <use xlink:href="#DejaVuSans-28" transform="translate(834.765625 0)"/>
      <use xlink:href="#DejaVuSans-25" transform="translate(873.779297 0)"/>
      <use xlink:href="#DejaVuSans-29" transform="translate(968.798828 0)"/>
     </g>
    </g>
   </g>
   <g id="line2d_12">
    <path d="M 62.971875 657.877328 
L 63.25215 657.859271 
L 63.322218 657.633722 
L 63.392287 657.667716 
L 63.742631 657.70486 
L 65.284142 657.512621 
L 65.424279 657.488799 
L 65.984829 657.395133 
L 66.124966 657.40876 
L 67.386202 657.442811 
L 67.666477 657.446766 
L 68.01682 657.434291 
L 68.227027 657.405567 
L 68.367164 657.441621 
L 86.865297 657.782102 
L 87.706122 657.782175 
L 88.33674 657.780295 
L 96.394639 657.778509 
L 96.744982 657.790305 
L 99.828005 657.804171 
L 100.528691 657.816663 
L 100.879035 657.789434 
L 101.229378 657.807697 
L 103.191302 657.80831 
L 103.891988 657.817093 
L 104.242332 657.786229 
L 104.592675 657.802307 
L 107.115148 657.815614 
L 107.53556 657.809622 
L 108.516522 657.795195 
L 108.796797 657.807457 
L 110.548514 657.784116 
L 110.898857 657.802523 
L 111.669613 657.817954 
L 112.440368 657.791132 
L 112.86078 657.807433 
L 114.051948 657.807465 
L 120.848611 657.817903 
L 122.109847 657.812028 
L 125.753419 657.808292 
L 126.103762 657.803438 
L 127.084724 657.806242 
L 127.785411 657.817063 
L 128.275892 657.812702 
L 128.696304 657.80698 
L 129.046647 657.807821 
L 131.288845 657.663985 
L 131.428983 657.223228 
L 131.56912 656.0813 
L 131.779326 649.922255 
L 131.989532 635.788447 
L 132.62015 574.733415 
L 132.900425 617.074128 
L 133.1807 651.774902 
L 133.390906 656.597021 
L 133.601112 657.474766 
L 133.811318 657.63075 
L 134.301799 657.693906 
L 135.142623 657.75217 
L 135.352829 657.755571 
L 136.053516 657.793735 
L 136.403859 657.798334 
L 136.964409 657.795788 
L 149.997185 657.822206 
L 150.487665 657.819564 
L 153.010138 657.803217 
L 154.131237 657.818121 
L 156.723779 657.806395 
L 157.634672 657.182664 
L 158.195221 657.738991 
L 160.227213 657.820322 
L 160.577556 657.819778 
L 161.768724 657.825785 
L 162.259205 657.794626 
L 162.679617 657.830875 
L 163.450373 657.826471 
L 166.112983 657.819316 
L 166.673532 657.833036 
L 166.883738 657.822711 
L 167.724563 657.818628 
L 168.425249 657.727098 
L 168.565387 657.54658 
L 168.775593 656.980209 
L 169.196005 655.289024 
L 169.336142 655.341516 
L 169.756554 657.157254 
L 169.966761 657.622914 
L 170.247035 657.767715 
L 170.597379 657.792214 
L 171.508272 657.816873 
L 171.718478 657.784327 
L 172.13889 657.803959 
L 174.030744 657.805051 
L 174.521225 657.817505 
L 175.011706 657.809261 
L 190.496886 657.816915 
L 190.987367 657.818084 
L 191.477848 657.74112 
L 191.89826 657.625159 
L 192.178534 657.627264 
L 192.458809 657.76223 
L 192.879221 657.809472 
L 193.299633 657.831016 
L 193.649977 657.823902 
L 205.911997 657.749877 
L 206.122203 657.343149 
L 206.332409 656.033144 
L 206.542615 652.755731 
L 206.82289 644.162956 
L 207.243302 617.057365 
L 207.943989 536.42914 
L 208.43447 461.319669 
L 208.504539 468.385526 
L 208.714745 446.726555 
L 208.854882 512.40757 
L 209.135157 637.477041 
L 209.345363 654.682324 
L 209.555569 656.71373 
L 209.835844 657.205131 
L 210.04605 657.386719 
L 210.256256 657.478692 
L 210.816805 657.594129 
L 212.498454 657.734327 
L 219.995803 657.803357 
L 220.556353 657.794035 
L 222.167933 657.817272 
L 222.588345 657.817624 
L 224.830543 657.785799 
L 225.110817 657.76707 
L 225.601298 657.66539 
L 226.862535 657.667404 
L 227.212878 657.751834 
L 227.563221 657.781499 
L 227.913565 657.806775 
L 228.474114 657.534782 
L 228.68432 656.516348 
L 228.824458 654.664987 
L 229.104733 645.867492 
L 229.385007 628.3171 
L 230.015626 553.994944 
L 231.136725 353.395988 
L 231.627205 247.068297 
L 231.697274 249.061527 
L 232.047617 141.896836 
L 232.117686 144.046934 
L 232.257824 107.860086 
L 232.397961 215.951374 
L 232.748304 640.625927 
L 232.95851 654.530905 
L 233.168716 655.92265 
L 233.448991 656.473224 
L 234.289815 657.294072 
L 234.429953 657.320385 
L 234.780296 657.44192 
L 235.200708 657.134636 
L 235.410914 656.456377 
L 235.901395 654.458353 
L 236.041533 654.520954 
L 236.321807 655.537585 
L 236.672151 657.06481 
L 237.092563 657.567452 
L 237.372838 657.649074 
L 238.003456 657.689066 
L 238.634074 657.698693 
L 241.647028 657.746374 
L 242.347715 657.49748 
L 242.557921 657.186508 
L 242.908264 656.515259 
L 243.188539 656.289643 
L 243.398745 656.564975 
L 243.959294 657.475184 
L 244.239569 657.673179 
L 244.519844 657.740079 
L 244.870187 657.794996 
L 245.711012 657.766922 
L 248.44369 657.792677 
L 249.354583 657.650549 
L 249.915133 657.378247 
L 250.335545 657.52595 
L 250.685888 657.73573 
L 251.456644 657.804444 
L 251.736919 657.797519 
L 252.157331 657.790388 
L 253.909048 657.807645 
L 256.011109 657.808405 
L 256.851933 657.782512 
L 257.412482 657.649764 
L 257.832894 657.425986 
L 258.183238 657.414642 
L 258.533581 657.589427 
L 259.234268 657.772499 
L 260.425436 657.778146 
L 260.775779 657.733838 
L 261.476466 657.72851 
L 262.177153 657.801138 
L 262.87784 657.802291 
L 263.438389 657.811614 
L 264.699626 657.825821 
L 265.260175 657.823303 
L 265.960862 657.811983 
L 266.311206 657.820497 
L 266.871755 657.815836 
L 268.833678 657.812172 
L 269.184022 657.809631 
L 269.954777 657.816338 
L 271.42622 657.777758 
L 272.757525 657.661374 
L 272.967731 657.693508 
L 274.369105 657.625885 
L 274.579311 657.460542 
L 274.929654 657.328576 
L 275.13986 657.443033 
L 275.490204 657.615091 
L 275.770478 657.719429 
L 276.19089 657.800784 
L 277.872539 657.786008 
L 278.503157 657.826665 
L 279.484119 657.818457 
L 279.904531 657.775899 
L 280.114737 657.787052 
L 280.395012 657.757357 
L 284.949476 657.844973 
L 285.369889 657.823271 
L 286.701194 657.827305 
L 289.714147 657.827033 
L 290.204628 657.83864 
L 292.026414 657.817915 
L 292.376757 657.83658 
L 292.797169 657.823537 
L 293.637994 657.835649 
L 294.128474 657.820294 
L 294.969299 657.830319 
L 299.243489 657.826372 
L 299.874107 657.829421 
L 300.644862 657.606896 
L 300.925137 657.012471 
L 301.205412 655.436222 
L 301.485687 653.315101 
L 301.765961 651.205866 
L 301.976167 650.821942 
L 302.046236 650.966866 
L 302.676854 656.237521 
L 303.097266 657.475384 
L 303.377541 657.703056 
L 303.657816 657.722434 
L 304.428571 657.786417 
L 305.339464 657.815923 
L 306.180289 657.817428 
L 306.600701 657.809953 
L 307.932006 657.811263 
L 308.282349 657.821092 
L 313.117089 657.822519 
L 313.747707 657.833189 
L 315.219149 657.821367 
L 315.70963 657.829636 
L 318.091965 657.834127 
L 318.722584 657.825645 
L 319.072927 657.838308 
L 319.353202 657.810667 
L 320.754576 657.839785 
L 321.245056 657.815399 
L 322.926705 657.832097 
L 324.538285 657.575204 
L 324.678422 657.308646 
L 324.958697 655.800256 
L 325.238972 652.289217 
L 325.589315 642.613015 
L 325.86959 631.276922 
L 326.290002 606.595379 
L 326.850551 570.725789 
L 326.92062 571.497032 
L 326.990689 570.015834 
L 327.200895 585.81153 
L 327.761444 651.539654 
L 327.97165 655.518036 
L 328.181856 656.768478 
L 328.462131 657.22279 
L 328.882543 657.449722 
L 329.162818 657.543178 
L 329.443093 657.311464 
L 329.58323 657.013463 
L 329.933574 654.60409 
L 330.704329 646.041308 
L 330.774398 646.372589 
L 331.75536 656.991619 
L 332.035634 657.479504 
L 332.385978 657.677032 
L 332.526115 657.683213 
L 333.787351 657.764732 
L 335.328863 657.775891 
L 335.679206 657.782627 
L 337.921404 657.673658 
L 338.552022 657.760257 
L 339.322778 657.80714 
L 344.437792 657.811742 
L 344.998341 657.814045 
L 346.820127 657.833013 
L 348.221501 657.822499 
L 351.024249 657.830594 
L 351.584798 657.825194 
L 352.075279 657.823524 
L 352.775966 657.816247 
L 355.368507 657.812161 
L 358.031117 657.817505 
L 358.94201 657.807991 
L 359.782834 657.8262 
L 360.55359 657.819037 
L 361.60462 657.802643 
L 364.757711 657.680896 
L 364.967917 657.430155 
L 365.248192 656.536335 
L 365.87881 653.025324 
L 365.948879 653.06762 
L 366.018948 653.058617 
L 366.229154 653.358907 
L 366.579497 655.812533 
L 366.859772 657.093294 
L 367.140047 657.562632 
L 367.910802 657.797677 
L 369.592451 657.81692 
L 370.223069 657.821693 
L 371.414237 657.828926 
L 372.184992 657.831929 
L 378.000693 657.828985 
L 378.771449 657.842903 
L 379.682342 657.829309 
L 383.185776 657.821917 
L 383.746326 657.819566 
L 384.867424 657.839288 
L 385.217768 657.824878 
L 385.988523 657.826868 
L 386.759279 657.811885 
L 387.109622 657.83109 
L 387.880378 657.841384 
L 391.173606 657.8304 
L 391.734156 657.848225 
L 392.715117 657.500883 
L 393.345736 656.647819 
L 393.836216 657.039216 
L 394.256629 657.598324 
L 395.097453 657.826773 
L 395.587934 657.797843 
L 395.938277 657.837181 
L 396.148483 657.827147 
L 399.301574 657.825914 
L 400.07233 657.831015 
L 402.454665 657.82886 
L 402.945146 657.834293 
L 403.78597 657.733784 
L 404.766932 657.585206 
L 405.117275 657.689822 
L 405.958099 657.792772 
L 406.518649 657.826113 
L 407.639748 657.82317 
L 410.72277 657.759256 
L 411.28332 657.486933 
L 411.423457 657.416178 
L 411.984006 657.524627 
L 412.33435 657.719297 
L 413.035037 657.821084 
L 414.086067 657.820615 
L 415.417372 657.837753 
L 415.837784 657.832342 
L 418.920807 657.839466 
L 419.201081 657.832702 
L 420.111974 657.831406 
L 438.329833 657.806054 
L 438.820314 657.770149 
L 440.151619 657.825263 
L 440.992443 657.835296 
L 445.336702 657.836718 
L 446.037389 657.832311 
L 447.789106 657.83165 
L 449.470754 657.841749 
L 450.311578 657.81286 
L 450.731991 657.827629 
L 460.541607 657.836019 
L 461.242294 657.819066 
L 461.662706 657.822474 
L 462.153187 657.829459 
L 464.605591 657.828082 
L 465.72669 657.834545 
L 466.287239 657.832026 
L 470.911773 657.813846 
L 471.402253 657.830788 
L 474.835619 657.835553 
L 475.886649 657.812101 
L 476.307061 657.811226 
L 477.007748 657.816228 
L 484.785373 657.672426 
L 485.065647 657.119605 
L 485.836403 653.70621 
L 485.906472 653.769576 
L 486.256815 655.220687 
L 486.607158 656.798264 
L 486.887433 657.414552 
L 487.167708 657.6445 
L 488.288807 657.789031 
L 488.569082 657.795183 
L 489.129631 657.794396 
L 490.671142 657.816311 
L 493.193615 657.808259 
L 493.543959 657.810018 
L 494.52492 657.808891 
L 494.945332 657.811301 
L 496.556912 657.662783 
L 496.907256 657.602237 
L 497.397736 657.706029 
L 498.939247 657.802899 
L 499.710003 657.822254 
L 501.041308 657.800041 
L 501.601858 657.797813 
L 502.232476 657.739666 
L 502.51275 657.464109 
L 502.722957 656.891384 
L 502.933163 655.975414 
L 503.213437 654.718108 
L 503.423643 654.442708 
L 503.563781 654.75119 
L 503.844056 655.959442 
L 504.194399 657.070113 
L 504.404605 657.501621 
L 504.544742 657.607146 
L 504.825017 657.706721 
L 506.016185 657.685203 
L 506.506666 657.280666 
L 507.487627 656.394313 
L 507.697833 656.444065 
L 507.767902 656.385085 
L 507.978108 656.479659 
L 508.118245 656.531877 
L 508.328452 656.687408 
L 508.538658 656.783706 
L 508.608726 656.938898 
L 508.678795 656.868429 
L 509.940031 657.45882 
L 510.991062 657.632155 
L 511.201268 657.632518 
L 511.481542 657.668885 
L 511.972023 657.68363 
L 512.532573 657.735769 
L 512.742779 657.724226 
L 517.227175 657.796635 
L 517.927862 657.792896 
L 522.972807 657.6762 
L 523.183013 657.629419 
L 523.533357 657.563039 
L 523.743563 657.64287 
L 524.163975 657.776661 
L 525.565349 657.811243 
L 526.406173 657.725545 
L 526.896654 657.653483 
L 527.667409 657.797241 
L 529.839539 657.805847 
L 530.330019 657.818516 
L 539.298811 657.816969 
L 539.999498 657.829111 
L 540.41991 657.815073 
L 542.802246 657.817495 
L 543.222658 657.813491 
L 543.573001 657.61045 
L 543.783207 657.102468 
L 544.063482 655.194215 
L 544.834238 643.119559 
L 544.974375 643.874364 
L 545.114512 645.749423 
L 545.604993 654.815196 
L 545.885268 656.75716 
L 546.165543 657.329428 
L 546.445817 657.543815 
L 548.617947 657.777139 
L 550.790076 657.793261 
L 551.280557 657.795141 
L 555.554747 657.793605 
L 555.835022 657.808962 
L 559.969074 657.784509 
L 561.650723 657.773262 
L 562.491547 657.795728 
L 563.40244 657.805135 
L 570.619515 657.833412 
L 570.899789 657.814917 
L 573.492331 657.81878 
L 574.683498 657.822638 
L 575.244048 657.819825 
L 577.486246 657.811799 
L 579.027757 657.776406 
L 579.588307 657.723235 
L 582.180848 657.808414 
L 583.231878 657.810826 
L 585.614214 657.804748 
L 587.225793 657.801017 
L 588.066618 657.818792 
L 589.748266 657.815958 
L 590.308816 657.791359 
L 590.659159 657.811134 
L 593.742181 657.803307 
L 594.723143 657.776356 
L 595.213624 657.78733 
L 597.315684 657.804336 
L 597.666028 657.778328 
L 598.156509 657.795848 
L 598.997333 657.809228 
L 606.845026 657.8019 
L 607.265438 657.812425 
L 630.247967 657.804134 
L 630.738448 657.813348 
L 631.228929 657.807727 
L 633.541196 657.804744 
L 633.961608 657.807011 
L 634.311951 657.801919 
L 634.662295 657.828148 
L 634.872501 657.790562 
L 640.197721 657.809904 
L 640.407927 657.803642 
L 643.210675 657.808633 
L 644.682117 657.807047 
L 645.522941 657.801914 
L 646.363766 657.819333 
L 646.854246 657.807308 
L 647.905277 657.802145 
L 649.236582 657.805934 
L 649.937269 657.801123 
L 652.249535 657.797725 
L 652.599879 657.796027 
L 653.370634 657.773698 
L 653.861115 657.72957 
L 654.561802 657.605486 
L 656.173382 657.773391 
L 656.593794 657.770445 
L 660.657778 657.814473 
L 660.867984 657.794182 
L 661.148259 657.785754 
L 661.708808 657.777769 
L 664.581624 657.791199 
L 664.861899 657.790037 
L 665.422448 657.780871 
L 665.702723 657.794355 
L 666.893891 657.795028 
L 667.594578 657.784661 
L 670.467394 657.780143 
L 671.098012 657.796328 
L 673.480348 657.782621 
L 674.040897 657.804741 
L 674.531378 657.798367 
L 675.722546 657.796641 
L 676.283095 657.796778 
L 677.123919 657.783393 
L 678.17495 657.784053 
L 681.047766 657.777469 
L 681.678384 657.786108 
L 682.589277 657.781963 
L 682.869552 657.754436 
L 683.079758 657.785027 
L 683.780445 657.78803 
L 684.060719 657.770478 
L 684.411063 657.778241 
L 685.181818 657.79531 
L 685.742368 657.768723 
L 686.022643 657.787755 
L 686.513123 657.785187 
L 687.704291 657.77894 
L 688.755321 657.772965 
L 689.666214 657.775668 
L 690.647176 657.785012 
L 691.417931 657.783331 
L 692.188687 657.763971 
L 692.398893 657.768146 
L 693.519992 657.784895 
L 694.080542 657.758338 
L 694.430885 657.790921 
L 696.112534 657.77708 
L 696.953358 657.76237 
L 697.163564 657.779911 
L 697.864251 657.762128 
L 698.354732 657.769939 
L 699.615968 657.765588 
L 704.660913 657.79525 
L 704.941188 657.749654 
L 705.3616 657.767392 
L 705.641875 657.777985 
L 705.641875 657.777985 
" clip-path="url(#p69dd6a01a2)" style="fill: none; stroke: #0000ff; stroke-width: 1.5; stroke-linecap: square"/>
   </g>
   <g id="patch_3">
    <path d="M 62.971875 663.3775 
L 62.971875 25.3575 
" style="fill: none; stroke: #000000; stroke-width: 1.5; stroke-linejoin: miter; stroke-linecap: square"/>
   </g>
   <g id="patch_4">
    <path d="M 62.971875 663.3775 
L 705.641875 663.3775 
" style="fill: none; stroke: #000000; stroke-width: 1.5; stroke-linejoin: miter; stroke-linecap: square"/>
   </g>
   <g id="patch_5">
    <path d="M 132.62015 563.733706 
Q 132.62015 568.233221 132.62015 572.732735 
" style="fill: none; stroke: #ff0000; stroke-width: 0.5; stroke-linecap: round"/>
   </g>
   <g id="text_14">
    <!-- 14:0 -->
    <g transform="translate(130.348525 557.264665) rotate(-90) scale(0.08 -0.08)">
     <defs>
      <path id="DejaVuSans-3a" d="M 750 794 
L 1409 794 
L 1409 0 
L 750 0 
L 750 794 
z
M 750 3309 
L 1409 3309 
L 1409 2516 
L 750 2516 
L 750 3309 
z
" transform="scale(0.015625)"/>
     </defs>
     <use xlink:href="#DejaVuSans-31"/>
     <use xlink:href="#DejaVuSans-34" transform="translate(63.623047 0)"/>
     <use xlink:href="#DejaVuSans-3a" transform="translate(127.246094 0)"/>
     <use xlink:href="#DejaVuSans-30" transform="translate(160.9375 0)"/>
    </g>
    <!-- 13.56 -->
    <g transform="translate(139.306775 559.733415) rotate(-90) scale(0.08 -0.08)">
     <defs>
      <path id="DejaVuSans-2e" d="M 684 794 
L 1344 794 
L 1344 0 
L 684 0 
L 684 794 
z
" transform="scale(0.015625)"/>
      <path id="DejaVuSans-36" d="M 2113 2584 
Q 1688 2584 1439 2293 
Q 1191 2003 1191 1497 
Q 1191 994 1439 701 
Q 1688 409 2113 409 
Q 2538 409 2786 701 
Q 3034 994 3034 1497 
Q 3034 2003 2786 2293 
Q 2538 2584 2113 2584 
z
M 3366 4563 
L 3366 3988 
Q 3128 4100 2886 4159 
Q 2644 4219 2406 4219 
Q 1781 4219 1451 3797 
Q 1122 3375 1075 2522 
Q 1259 2794 1537 2939 
Q 1816 3084 2150 3084 
Q 2853 3084 3261 2657 
Q 3669 2231 3669 1497 
Q 3669 778 3244 343 
Q 2819 -91 2113 -91 
Q 1303 -91 875 529 
Q 447 1150 447 2328 
Q 447 3434 972 4092 
Q 1497 4750 2381 4750 
Q 2619 4750 2861 4703 
Q 3103 4656 3366 4563 
z
" transform="scale(0.015625)"/>
     </defs>
     <use xlink:href="#DejaVuSans-31"/>
     <use xlink:href="#DejaVuSans-33" transform="translate(63.623047 0)"/>
     <use xlink:href="#DejaVuSans-2e" transform="translate(127.246094 0)"/>
     <use xlink:href="#DejaVuSans-35" transform="translate(159.033203 0)"/>
     <use xlink:href="#DejaVuSans-36" transform="translate(222.65625 0)"/>
    </g>
   </g>
   <g id="patch_6">
    <path d="M 208.714745 435.726846 
Q 208.714745 440.226361 208.714745 444.725876 
" style="fill: none; stroke: #ff0000; stroke-width: 0.5; stroke-linecap: round"/>
   </g>
   <g id="text_15">
    <!-- 16:0 -->
    <g transform="translate(206.44312 429.257805) rotate(-90) scale(0.08 -0.08)">
     <use xlink:href="#DejaVuSans-31"/>
     <use xlink:href="#DejaVuSans-36" transform="translate(63.623047 0)"/>
     <use xlink:href="#DejaVuSans-3a" transform="translate(127.246094 0)"/>
     <use xlink:href="#DejaVuSans-30" transform="translate(160.9375 0)"/>
    </g>
    <!-- 17.45 -->
    <g transform="translate(215.40137 431.726555) rotate(-90) scale(0.08 -0.08)">
     <use xlink:href="#DejaVuSans-31"/>
     <use xlink:href="#DejaVuSans-37" transform="translate(63.623047 0)"/>
     <use xlink:href="#DejaVuSans-2e" transform="translate(127.246094 0)"/>
     <use xlink:href="#DejaVuSans-34" transform="translate(159.033203 0)"/>
     <use xlink:href="#DejaVuSans-35" transform="translate(222.65625 0)"/>
    </g>
   </g>
   <g id="patch_7">
    <path d="M 232.257824 96.863993 
Q 232.257824 101.362029 232.257824 105.860064 
" style="fill: none; stroke: #ff0000; stroke-width: 0.5; stroke-linecap: round"/>
   </g>
   <g id="text_16">
    <!-- 16:1-9 -->
    <g transform="translate(229.986199 92.860086) rotate(-90) scale(0.08 -0.08)">
     <defs>
      <path id="DejaVuSans-2d" d="M 313 2009 
L 1997 2009 
L 1997 1497 
L 313 1497 
L 313 2009 
z
" transform="scale(0.015625)"/>
      <path id="DejaVuSans-39" d="M 703 97 
L 703 672 
Q 941 559 1184 500 
Q 1428 441 1663 441 
Q 2288 441 2617 861 
Q 2947 1281 2994 2138 
Q 2813 1869 2534 1725 
Q 2256 1581 1919 1581 
Q 1219 1581 811 2004 
Q 403 2428 403 3163 
Q 403 3881 828 4315 
Q 1253 4750 1959 4750 
Q 2769 4750 3195 4129 
Q 3622 3509 3622 2328 
Q 3622 1225 3098 567 
Q 2575 -91 1691 -91 
Q 1453 -91 1209 -44 
Q 966 3 703 97 
z
M 1959 2075 
Q 2384 2075 2632 2365 
Q 2881 2656 2881 3163 
Q 2881 3666 2632 3958 
Q 2384 4250 1959 4250 
Q 1534 4250 1286 3958 
Q 1038 3666 1038 3163 
Q 1038 2656 1286 2365 
Q 1534 2075 1959 2075 
z
" transform="scale(0.015625)"/>
     </defs>
     <use xlink:href="#DejaVuSans-31"/>
     <use xlink:href="#DejaVuSans-36" transform="translate(63.623047 0)"/>
     <use xlink:href="#DejaVuSans-3a" transform="translate(127.246094 0)"/>
     <use xlink:href="#DejaVuSans-31" transform="translate(160.9375 0)"/>
     <use xlink:href="#DejaVuSans-2d" transform="translate(224.560547 0)"/>
     <use xlink:href="#DejaVuSans-39" transform="translate(260.644531 0)"/>
    </g>
    <!-- 18.66 -->
    <g transform="translate(238.944449 91.340711) rotate(-90) scale(0.08 -0.08)">
     <defs>
      <path id="DejaVuSans-38" d="M 2034 2216 
Q 1584 2216 1326 1975 
Q 1069 1734 1069 1313 
Q 1069 891 1326 650 
Q 1584 409 2034 409 
Q 2484 409 2743 651 
Q 3003 894 3003 1313 
Q 3003 1734 2745 1975 
Q 2488 2216 2034 2216 
z
M 1403 2484 
Q 997 2584 770 2862 
Q 544 3141 544 3541 
Q 544 4100 942 4425 
Q 1341 4750 2034 4750 
Q 2731 4750 3128 4425 
Q 3525 4100 3525 3541 
Q 3525 3141 3298 2862 
Q 3072 2584 2669 2484 
Q 3125 2378 3379 2068 
Q 3634 1759 3634 1313 
Q 3634 634 3220 271 
Q 2806 -91 2034 -91 
Q 1263 -91 848 271 
Q 434 634 434 1313 
Q 434 1759 690 2068 
Q 947 2378 1403 2484 
z
M 1172 3481 
Q 1172 3119 1398 2916 
Q 1625 2713 2034 2713 
Q 2441 2713 2670 2916 
Q 2900 3119 2900 3481 
Q 2900 3844 2670 4047 
Q 2441 4250 2034 4250 
Q 1625 4250 1398 4047 
Q 1172 3844 1172 3481 
z
" transform="scale(0.015625)"/>
     </defs>
     <use xlink:href="#DejaVuSans-31"/>
     <use xlink:href="#DejaVuSans-38" transform="translate(63.623047 0)"/>
     <use xlink:href="#DejaVuSans-2e" transform="translate(127.246094 0)"/>
     <use xlink:href="#DejaVuSans-36" transform="translate(159.033203 0)"/>
     <use xlink:href="#DejaVuSans-36" transform="translate(222.65625 0)"/>
    </g>
   </g>
   <g id="patch_8">
    <path d="M 239.537586 643.362288 
Q 238.030644 647.960816 236.523702 652.559344 
" style="fill: none; stroke: #ff0000; stroke-width: 0.5; stroke-linecap: round"/>
   </g>
   <g id="text_17">
    <!-- 16:1-11 -->
    <g transform="translate(243.62977 639.458353) rotate(-90) scale(0.08 -0.08)">
     <use xlink:href="#DejaVuSans-31"/>
     <use xlink:href="#DejaVuSans-36" transform="translate(63.623047 0)"/>
     <use xlink:href="#DejaVuSans-3a" transform="translate(127.246094 0)"/>
     <use xlink:href="#DejaVuSans-31" transform="translate(160.9375 0)"/>
     <use xlink:href="#DejaVuSans-2d" transform="translate(224.560547 0)"/>
     <use xlink:href="#DejaVuSans-31" transform="translate(260.644531 0)"/>
     <use xlink:href="#DejaVuSans-31" transform="translate(324.267578 0)"/>
    </g>
    <!-- 18.84 -->
    <g transform="translate(252.58802 635.393978) rotate(-90) scale(0.08 -0.08)">
     <use xlink:href="#DejaVuSans-31"/>
     <use xlink:href="#DejaVuSans-38" transform="translate(63.623047 0)"/>
     <use xlink:href="#DejaVuSans-2e" transform="translate(127.246094 0)"/>
     <use xlink:href="#DejaVuSans-38" transform="translate(159.033203 0)"/>
     <use xlink:href="#DejaVuSans-34" transform="translate(222.65625 0)"/>
    </g>
   </g>
   <g id="patch_9">
    <path d="M 301.976167 639.822234 
Q 301.976167 644.321748 301.976167 648.821263 
" style="fill: none; stroke: #ff0000; stroke-width: 0.5; stroke-linecap: round"/>
   </g>
   <g id="text_18">
    <!-- 18:0 -->
    <g transform="translate(299.704542 633.353192) rotate(-90) scale(0.08 -0.08)">
     <use xlink:href="#DejaVuSans-31"/>
     <use xlink:href="#DejaVuSans-38" transform="translate(63.623047 0)"/>
     <use xlink:href="#DejaVuSans-3a" transform="translate(127.246094 0)"/>
     <use xlink:href="#DejaVuSans-30" transform="translate(160.9375 0)"/>
    </g>
    <!-- 22.22 -->
    <g transform="translate(308.662792 635.821942) rotate(-90) scale(0.08 -0.08)">
     <use xlink:href="#DejaVuSans-32"/>
     <use xlink:href="#DejaVuSans-32" transform="translate(63.623047 0)"/>
     <use xlink:href="#DejaVuSans-2e" transform="translate(127.246094 0)"/>
     <use xlink:href="#DejaVuSans-32" transform="translate(159.033203 0)"/>
     <use xlink:href="#DejaVuSans-32" transform="translate(222.65625 0)"/>
    </g>
   </g>
   <g id="patch_10">
    <path d="M 326.990689 559.019741 
Q 326.990689 563.517777 326.990689 568.015812 
" style="fill: none; stroke: #ff0000; stroke-width: 0.5; stroke-linecap: round"/>
   </g>
   <g id="text_19">
    <!-- 18:1-9 -->
    <g transform="translate(324.719064 555.015834) rotate(-90) scale(0.08 -0.08)">
     <use xlink:href="#DejaVuSans-31"/>
     <use xlink:href="#DejaVuSans-38" transform="translate(63.623047 0)"/>
     <use xlink:href="#DejaVuSans-3a" transform="translate(127.246094 0)"/>
     <use xlink:href="#DejaVuSans-31" transform="translate(160.9375 0)"/>
     <use xlink:href="#DejaVuSans-2d" transform="translate(224.560547 0)"/>
     <use xlink:href="#DejaVuSans-39" transform="translate(260.644531 0)"/>
    </g>
    <!-- 23.50 -->
    <g transform="translate(333.677314 553.496459) rotate(-90) scale(0.08 -0.08)">
     <use xlink:href="#DejaVuSans-32"/>
     <use xlink:href="#DejaVuSans-33" transform="translate(63.623047 0)"/>
     <use xlink:href="#DejaVuSans-2e" transform="translate(127.246094 0)"/>
     <use xlink:href="#DejaVuSans-35" transform="translate(159.033203 0)"/>
     <use xlink:href="#DejaVuSans-30" transform="translate(222.65625 0)"/>
    </g>
   </g>
   <g id="patch_11">
    <path d="M 334.34052 634.945244 
Q 332.833578 639.543771 331.326636 644.142299 
" style="fill: none; stroke: #ff0000; stroke-width: 0.5; stroke-linecap: round"/>
   </g>
   <g id="text_20">
    <!-- 18:1-11 -->
    <g transform="translate(338.432704 631.041308) rotate(-90) scale(0.08 -0.08)">
     <use xlink:href="#DejaVuSans-31"/>
     <use xlink:href="#DejaVuSans-38" transform="translate(63.623047 0)"/>
     <use xlink:href="#DejaVuSans-3a" transform="translate(127.246094 0)"/>
     <use xlink:href="#DejaVuSans-31" transform="translate(160.9375 0)"/>
     <use xlink:href="#DejaVuSans-2d" transform="translate(224.560547 0)"/>
     <use xlink:href="#DejaVuSans-31" transform="translate(260.644531 0)"/>
     <use xlink:href="#DejaVuSans-31" transform="translate(324.267578 0)"/>
    </g>
    <!-- 23.69 -->
    <g transform="translate(347.390954 626.976933) rotate(-90) scale(0.08 -0.08)">
     <use xlink:href="#DejaVuSans-32"/>
     <use xlink:href="#DejaVuSans-33" transform="translate(63.623047 0)"/>
     <use xlink:href="#DejaVuSans-2e" transform="translate(127.246094 0)"/>
     <use xlink:href="#DejaVuSans-36" transform="translate(159.033203 0)"/>
     <use xlink:href="#DejaVuSans-39" transform="translate(222.65625 0)"/>
    </g>
   </g>
   <g id="patch_12">
    <path d="M 365.87881 642.031402 
Q 365.87881 646.52855 365.87881 651.025697 
" style="fill: none; stroke: #ff0000; stroke-width: 0.5; stroke-linecap: round"/>
   </g>
   <g id="text_21">
    <!-- 18:2-9,12 -->
    <g transform="translate(363.607185 638.025324) rotate(-90) scale(0.08 -0.08)">
     <defs>
      <path id="DejaVuSans-2c" d="M 750 794 
L 1409 794 
L 1409 256 
L 897 -744 
L 494 -744 
L 750 256 
L 750 794 
z
" transform="scale(0.015625)"/>
     </defs>
     <use xlink:href="#DejaVuSans-31"/>
     <use xlink:href="#DejaVuSans-38" transform="translate(63.623047 0)"/>
     <use xlink:href="#DejaVuSans-3a" transform="translate(127.246094 0)"/>
     <use xlink:href="#DejaVuSans-32" transform="translate(160.9375 0)"/>
     <use xlink:href="#DejaVuSans-2d" transform="translate(224.560547 0)"/>
     <use xlink:href="#DejaVuSans-39" transform="translate(260.644531 0)"/>
     <use xlink:href="#DejaVuSans-2c" transform="translate(324.267578 0)"/>
     <use xlink:href="#DejaVuSans-31" transform="translate(356.054688 0)"/>
     <use xlink:href="#DejaVuSans-32" transform="translate(419.677734 0)"/>
    </g>
    <!-- 25.49 -->
    <g transform="translate(372.565435 630.144699) rotate(-90) scale(0.08 -0.08)">
     <use xlink:href="#DejaVuSans-32"/>
     <use xlink:href="#DejaVuSans-35" transform="translate(63.623047 0)"/>
     <use xlink:href="#DejaVuSans-2e" transform="translate(127.246094 0)"/>
     <use xlink:href="#DejaVuSans-34" transform="translate(159.033203 0)"/>
     <use xlink:href="#DejaVuSans-39" transform="translate(222.65625 0)"/>
    </g>
   </g>
   <g id="patch_13">
    <path d="M 485.836403 642.709111 
Q 485.836403 647.207558 485.836403 651.706005 
" style="fill: none; stroke: #ff0000; stroke-width: 0.5; stroke-linecap: round"/>
   </g>
   <g id="text_22">
    <!-- 20:3-8,11,14 -->
    <g transform="translate(483.564778 638.70621) rotate(-90) scale(0.08 -0.08)">
     <use xlink:href="#DejaVuSans-32"/>
     <use xlink:href="#DejaVuSans-30" transform="translate(63.623047 0)"/>
     <use xlink:href="#DejaVuSans-3a" transform="translate(127.246094 0)"/>
     <use xlink:href="#DejaVuSans-33" transform="translate(160.9375 0)"/>
     <use xlink:href="#DejaVuSans-2d" transform="translate(224.560547 0)"/>
     <use xlink:href="#DejaVuSans-38" transform="translate(260.644531 0)"/>
     <use xlink:href="#DejaVuSans-2c" transform="translate(324.267578 0)"/>
     <use xlink:href="#DejaVuSans-31" transform="translate(356.054688 0)"/>
     <use xlink:href="#DejaVuSans-31" transform="translate(419.677734 0)"/>
     <use xlink:href="#DejaVuSans-2c" transform="translate(483.300781 0)"/>
     <use xlink:href="#DejaVuSans-31" transform="translate(515.087891 0)"/>
     <use xlink:href="#DejaVuSans-34" transform="translate(578.710938 0)"/>
    </g>
    <!-- 31.62 -->
    <g transform="translate(492.523028 624.464335) rotate(-90) scale(0.08 -0.08)">
     <use xlink:href="#DejaVuSans-33"/>
     <use xlink:href="#DejaVuSans-31" transform="translate(63.623047 0)"/>
     <use xlink:href="#DejaVuSans-2e" transform="translate(127.246094 0)"/>
     <use xlink:href="#DejaVuSans-36" transform="translate(159.033203 0)"/>
     <use xlink:href="#DejaVuSans-32" transform="translate(222.65625 0)"/>
    </g>
   </g>
   <g id="patch_14">
    <path d="M 503.423643 643.44615 
Q 503.423643 647.944376 503.423643 652.442602 
" style="fill: none; stroke: #ff0000; stroke-width: 0.5; stroke-linecap: round"/>
   </g>
   <g id="text_23">
    <!-- 20:4-5,8,11,14 -->
    <g transform="translate(501.152018 639.442708) rotate(-90) scale(0.08 -0.08)">
     <use xlink:href="#DejaVuSans-32"/>
     <use xlink:href="#DejaVuSans-30" transform="translate(63.623047 0)"/>
     <use xlink:href="#DejaVuSans-3a" transform="translate(127.246094 0)"/>
     <use xlink:href="#DejaVuSans-34" transform="translate(160.9375 0)"/>
     <use xlink:href="#DejaVuSans-2d" transform="translate(224.560547 0)"/>
     <use xlink:href="#DejaVuSans-35" transform="translate(260.644531 0)"/>
     <use xlink:href="#DejaVuSans-2c" transform="translate(324.267578 0)"/>
     <use xlink:href="#DejaVuSans-38" transform="translate(356.054688 0)"/>
     <use xlink:href="#DejaVuSans-2c" transform="translate(419.677734 0)"/>
     <use xlink:href="#DejaVuSans-31" transform="translate(451.464844 0)"/>
     <use xlink:href="#DejaVuSans-31" transform="translate(515.087891 0)"/>
     <use xlink:href="#DejaVuSans-2c" transform="translate(578.710938 0)"/>
     <use xlink:href="#DejaVuSans-31" transform="translate(610.498047 0)"/>
     <use xlink:href="#DejaVuSans-34" transform="translate(674.121094 0)"/>
    </g>
    <!-- 32.52 -->
    <g transform="translate(510.110268 621.384583) rotate(-90) scale(0.08 -0.08)">
     <use xlink:href="#DejaVuSans-33"/>
     <use xlink:href="#DejaVuSans-32" transform="translate(63.623047 0)"/>
     <use xlink:href="#DejaVuSans-2e" transform="translate(127.246094 0)"/>
     <use xlink:href="#DejaVuSans-35" transform="translate(159.033203 0)"/>
     <use xlink:href="#DejaVuSans-32" transform="translate(222.65625 0)"/>
    </g>
   </g>
   <g id="patch_15">
    <path d="M 544.834238 632.122074 
Q 544.834238 636.620679 544.834238 641.119284 
" style="fill: none; stroke: #ff0000; stroke-width: 0.5; stroke-linecap: round"/>
   </g>
   <g id="text_24">
    <!-- 20:5-5,8,11,14,17 -->
    <g transform="translate(542.562613 628.119559) rotate(-90) scale(0.08 -0.08)">
     <use xlink:href="#DejaVuSans-32"/>
     <use xlink:href="#DejaVuSans-30" transform="translate(63.623047 0)"/>
     <use xlink:href="#DejaVuSans-3a" transform="translate(127.246094 0)"/>
     <use xlink:href="#DejaVuSans-35" transform="translate(160.9375 0)"/>
     <use xlink:href="#DejaVuSans-2d" transform="translate(224.560547 0)"/>
     <use xlink:href="#DejaVuSans-35" transform="translate(260.644531 0)"/>
     <use xlink:href="#DejaVuSans-2c" transform="translate(324.267578 0)"/>
     <use xlink:href="#DejaVuSans-38" transform="translate(356.054688 0)"/>
     <use xlink:href="#DejaVuSans-2c" transform="translate(419.677734 0)"/>
     <use xlink:href="#DejaVuSans-31" transform="translate(451.464844 0)"/>
     <use xlink:href="#DejaVuSans-31" transform="translate(515.087891 0)"/>
     <use xlink:href="#DejaVuSans-2c" transform="translate(578.710938 0)"/>
     <use xlink:href="#DejaVuSans-31" transform="translate(610.498047 0)"/>
     <use xlink:href="#DejaVuSans-34" transform="translate(674.121094 0)"/>
     <use xlink:href="#DejaVuSans-2c" transform="translate(737.744141 0)"/>
     <use xlink:href="#DejaVuSans-31" transform="translate(769.53125 0)"/>
     <use xlink:href="#DejaVuSans-37" transform="translate(833.154297 0)"/>
    </g>
    <!-- 34.64 -->
    <g transform="translate(551.520863 603.700184) rotate(-90) scale(0.08 -0.08)">
     <use xlink:href="#DejaVuSans-33"/>
     <use xlink:href="#DejaVuSans-34" transform="translate(63.623047 0)"/>
     <use xlink:href="#DejaVuSans-2e" transform="translate(127.246094 0)"/>
     <use xlink:href="#DejaVuSans-36" transform="translate(159.033203 0)"/>
     <use xlink:href="#DejaVuSans-34" transform="translate(222.65625 0)"/>
    </g>
   </g>
   <g id="text_25">
    <!-- Хроматограмма МСД-1 : TIC -->
    <g transform="translate(267.333125 19.3575) scale(0.16 -0.16)">
     <defs>
      <path id="DejaVuSans-425" d="M 403 4666 
L 1081 4666 
L 2241 2931 
L 3406 4666 
L 4084 4666 
L 2584 2425 
L 4184 0 
L 3506 0 
L 2194 1984 
L 872 0 
L 191 0 
L 1856 2491 
L 403 4666 
z
" transform="scale(0.015625)"/>
      <path id="DejaVuSans-430" d="M 2194 1759 
Q 1497 1759 1228 1600 
Q 959 1441 959 1056 
Q 959 750 1161 570 
Q 1363 391 1709 391 
Q 2188 391 2477 730 
Q 2766 1069 2766 1631 
L 2766 1759 
L 2194 1759 
z
M 3341 1997 
L 3341 0 
L 2766 0 
L 2766 531 
Q 2569 213 2275 61 
Q 1981 -91 1556 -91 
Q 1019 -91 701 211 
Q 384 513 384 1019 
Q 384 1609 779 1909 
Q 1175 2209 1959 2209 
L 2766 2209 
L 2766 2266 
Q 2766 2663 2505 2880 
Q 2244 3097 1772 3097 
Q 1472 3097 1187 3025 
Q 903 2953 641 2809 
L 641 3341 
Q 956 3463 1253 3523 
Q 1550 3584 1831 3584 
Q 2591 3584 2966 3190 
Q 3341 2797 3341 1997 
z
" transform="scale(0.015625)"/>
      <path id="DejaVuSans-433" d="M 581 0 
L 581 3500 
L 3050 3500 
L 3050 3041 
L 1159 3041 
L 1159 0 
L 581 0 
z
" transform="scale(0.015625)"/>
      <path id="DejaVuSans-41c" d="M 628 4666 
L 1569 4666 
L 2759 1491 
L 3956 4666 
L 4897 4666 
L 4897 0 
L 4281 0 
L 4281 4097 
L 3078 897 
L 2444 897 
L 1241 4097 
L 1241 0 
L 628 0 
L 628 4666 
z
" transform="scale(0.015625)"/>
      <path id="DejaVuSans-421" d="M 4122 4306 
L 4122 3641 
Q 3803 3938 3442 4084 
Q 3081 4231 2675 4231 
Q 1875 4231 1450 3742 
Q 1025 3253 1025 2328 
Q 1025 1406 1450 917 
Q 1875 428 2675 428 
Q 3081 428 3442 575 
Q 3803 722 4122 1019 
L 4122 359 
Q 3791 134 3420 21 
Q 3050 -91 2638 -91 
Q 1578 -91 968 557 
Q 359 1206 359 2328 
Q 359 3453 968 4101 
Q 1578 4750 2638 4750 
Q 3056 4750 3426 4639 
Q 3797 4528 4122 4306 
z
" transform="scale(0.015625)"/>
      <path id="DejaVuSans-414" d="M 1459 531 
L 3522 531 
L 3522 4134 
L 2006 4134 
L 2006 3472 
Q 2006 1913 1656 878 
Q 1584 666 1459 531 
z
M 538 531 
Q 956 728 1075 1103 
Q 1378 2066 1378 3784 
L 1378 4666 
L 4153 4666 
L 4153 531 
L 4684 531 
L 4684 -1003 
L 4153 -1003 
L 4153 0 
L 847 0 
L 847 -1003 
L 316 -1003 
L 316 531 
L 538 531 
z
" transform="scale(0.015625)"/>
      <path id="DejaVuSans-54" d="M -19 4666 
L 3928 4666 
L 3928 4134 
L 2272 4134 
L 2272 0 
L 1638 0 
L 1638 4134 
L -19 4134 
L -19 4666 
z
" transform="scale(0.015625)"/>
      <path id="DejaVuSans-49" d="M 628 4666 
L 1259 4666 
L 1259 0 
L 628 0 
L 628 4666 
z
" transform="scale(0.015625)"/>
      <path id="DejaVuSans-43" d="M 4122 4306 
L 4122 3641 
Q 3803 3938 3442 4084 
Q 3081 4231 2675 4231 
Q 1875 4231 1450 3742 
Q 1025 3253 1025 2328 
Q 1025 1406 1450 917 
Q 1875 428 2675 428 
Q 3081 428 3442 575 
Q 3803 722 4122 1019 
L 4122 359 
Q 3791 134 3420 21 
Q 3050 -91 2638 -91 
Q 1578 -91 968 557 
Q 359 1206 359 2328 
Q 359 3453 968 4101 
Q 1578 4750 2638 4750 
Q 3056 4750 3426 4639 
Q 3797 4528 4122 4306 
z
" transform="scale(0.015625)"/>
     </defs>
     <use xlink:href="#DejaVuSans-425"/>
     <use xlink:href="#DejaVuSans-440" transform="translate(68.505859 0)"/>
     <use xlink:href="#DejaVuSans-43e" transform="translate(131.982422 0)"/>
     <use xlink:href="#DejaVuSans-43c" transform="translate(193.164062 0)"/>
     <use xlink:href="#DejaVuSans-430" transform="translate(268.603516 0)"/>
     <use xlink:href="#DejaVuSans-442" transform="translate(329.882812 0)"/>
     <use xlink:href="#DejaVuSans-43e" transform="translate(388.134766 0)"/>
     <use xlink:href="#DejaVuSans-433" transform="translate(449.316406 0)"/>
     <use xlink:href="#DejaVuSans-440" transform="translate(501.855469 0)"/>
     <use xlink:href="#DejaVuSans-430" transform="translate(565.332031 0)"/>
     <use xlink:href="#DejaVuSans-43c" transform="translate(626.611328 0)"/>
     <use xlink:href="#DejaVuSans-43c" transform="translate(702.050781 0)"/>
     <use xlink:href="#DejaVuSans-430" transform="translate(777.490234 0)"/>
     <use xlink:href="#DejaVuSans-20" transform="translate(838.769531 0)"/>
     <use xlink:href="#DejaVuSans-41c" transform="translate(870.556641 0)"/>
     <use xlink:href="#DejaVuSans-421" transform="translate(956.835938 0)"/>
     <use xlink:href="#DejaVuSans-414" transform="translate(1026.660156 0)"/>
     <use xlink:href="#DejaVuSans-2d" transform="translate(1104.785156 0)"/>
     <use xlink:href="#DejaVuSans-31" transform="translate(1140.869141 0)"/>
     <use xlink:href="#DejaVuSans-20" transform="translate(1204.492188 0)"/>
     <use xlink:href="#DejaVuSans-3a" transform="translate(1236.279297 0)"/>
     <use xlink:href="#DejaVuSans-20" transform="translate(1269.970703 0)"/>
     <use xlink:href="#DejaVuSans-54" transform="translate(1301.757812 0)"/>
     <use xlink:href="#DejaVuSans-49" transform="translate(1362.841797 0)"/>
     <use xlink:href="#DejaVuSans-43" transform="translate(1392.333984 0)"/>
    </g>
   </g>
  </g>
 </g>
 <defs>
  <clipPath id="p69dd6a01a2">
   <rect x="62.971875" y="25.3575" width="642.67" height="638.02"/>
  </clipPath>
 </defs>
</svg>
