<?xml version="1.0" encoding="utf-8" standalone="no"?>
<!DOCTYPE svg PUBLIC "-//W3C//DTD SVG 1.1//EN"
  "http://www.w3.org/Graphics/SVG/1.1/DTD/svg11.dtd">
<svg xmlns:xlink="http://www.w3.org/1999/xlink" width="712.88875pt" height="711.960625pt" viewBox="0 0 712.88875 711.960625" xmlns="http://www.w3.org/2000/svg" version="1.1">
 <metadata>
  <rdf:RDF xmlns:dc="http://purl.org/dc/elements/1.1/" xmlns:cc="http://creativecommons.org/ns#" xmlns:rdf="http://www.w3.org/1999/02/22-rdf-syntax-ns#">
   <cc:Work>
    <dc:type rdf:resource="http://purl.org/dc/dcmitype/StillImage"/>
    <dc:date>2025-06-10T18:48:41.065029</dc:date>
    <dc:format>image/svg+xml</dc:format>
    <dc:creator>
     <cc:Agent>
      <dc:title>Matplotlib v3.10.3, https://matplotlib.org/</dc:title>
     </cc:Agent>
    </dc:creator>
   </cc:Work>
  </rdf:RDF>
 </metadata>
 <defs>
  <style type="text/css">*{stroke-linejoin: round; stroke-linecap: butt}</style>
 </defs>
 <g id="figure_1">
  <g id="patch_1">
   <path d="M 0 711.960625 
L 712.88875 711.960625 
L 712.88875 0 
L 0 0 
z
" style="fill: #ffffff"/>
  </g>
  <g id="axes_1">
   <g id="patch_2">
    <path d="M 59.154375 664.0975 
L 692.329375 664.0975 
L 692.329375 25.3575 
L 59.154375 25.3575 
z
" style="fill: #ffffff"/>
   </g>
   <g id="matplotlib.axis_1">
    <g id="xtick_1">
     <g id="line2d_1">
      <defs>
       <path id="m1d0544e320" d="M 0 0 
L 0 8 
" style="stroke: #000000; stroke-width: 1.5"/>
      </defs>
      <g>
       <use xlink:href="#m1d0544e320" x="59.154375" y="664.0975" style="stroke: #000000; stroke-width: 1.5"/>
      </g>
     </g>
     <g id="text_1">
      <!-- 21.5 -->
      <g transform="translate(45.795 684.715625) scale(0.12 -0.12)">
       <defs>
        <path id="DejaVuSans-32" d="M 1228 531 
L 3431 531 
L 3431 0 
L 469 0 
L 469 531 
Q 828 903 1448 1529 
Q 2069 2156 2228 2338 
Q 2531 2678 2651 2914 
Q 2772 3150 2772 3378 
Q 2772 3750 2511 3984 
Q 2250 4219 1831 4219 
Q 1534 4219 1204 4116 
Q 875 4013 500 3803 
L 500 4441 
Q 881 4594 1212 4672 
Q 1544 4750 1819 4750 
Q 2544 4750 2975 4387 
Q 3406 4025 3406 3419 
Q 3406 3131 3298 2873 
Q 3191 2616 2906 2266 
Q 2828 2175 2409 1742 
Q 1991 1309 1228 531 
z
" transform="scale(0.015625)"/>
        <path id="DejaVuSans-31" d="M 794 531 
L 1825 531 
L 1825 4091 
L 703 3866 
L 703 4441 
L 1819 4666 
L 2450 4666 
L 2450 531 
L 3481 531 
L 3481 0 
L 794 0 
L 794 531 
z
" transform="scale(0.015625)"/>
        <path id="DejaVuSans-2e" d="M 684 794 
L 1344 794 
L 1344 0 
L 684 0 
L 684 794 
z
" transform="scale(0.015625)"/>
        <path id="DejaVuSans-35" d="M 691 4666 
L 3169 4666 
L 3169 4134 
L 1269 4134 
L 1269 2991 
Q 1406 3038 1543 3061 
Q 1681 3084 1819 3084 
Q 2600 3084 3056 2656 
Q 3513 2228 3513 1497 
Q 3513 744 3044 326 
Q 2575 -91 1722 -91 
Q 1428 -91 1123 -41 
Q 819 9 494 109 
L 494 744 
Q 775 591 1075 516 
Q 1375 441 1709 441 
Q 2250 441 2565 725 
Q 2881 1009 2881 1497 
Q 2881 1984 2565 2268 
Q 2250 2553 1709 2553 
Q 1456 2553 1204 2497 
Q 953 2441 691 2322 
L 691 4666 
z
" transform="scale(0.015625)"/>
       </defs>
       <use xlink:href="#DejaVuSans-32"/>
       <use xlink:href="#DejaVuSans-31" transform="translate(63.623047 0)"/>
       <use xlink:href="#DejaVuSans-2e" transform="translate(127.246094 0)"/>
       <use xlink:href="#DejaVuSans-35" transform="translate(159.033203 0)"/>
      </g>
     </g>
    </g>
    <g id="xtick_2">
     <g id="line2d_2">
      <g>
       <use xlink:href="#m1d0544e320" x="185.789375" y="664.0975" style="stroke: #000000; stroke-width: 1.5"/>
      </g>
     </g>
     <g id="text_2">
      <!-- 22.0 -->
      <g transform="translate(172.43 684.715625) scale(0.12 -0.12)">
       <defs>
        <path id="DejaVuSans-30" d="M 2034 4250 
Q 1547 4250 1301 3770 
Q 1056 3291 1056 2328 
Q 1056 1369 1301 889 
Q 1547 409 2034 409 
Q 2525 409 2770 889 
Q 3016 1369 3016 2328 
Q 3016 3291 2770 3770 
Q 2525 4250 2034 4250 
z
M 2034 4750 
Q 2819 4750 3233 4129 
Q 3647 3509 3647 2328 
Q 3647 1150 3233 529 
Q 2819 -91 2034 -91 
Q 1250 -91 836 529 
Q 422 1150 422 2328 
Q 422 3509 836 4129 
Q 1250 4750 2034 4750 
z
" transform="scale(0.015625)"/>
       </defs>
       <use xlink:href="#DejaVuSans-32"/>
       <use xlink:href="#DejaVuSans-32" transform="translate(63.623047 0)"/>
       <use xlink:href="#DejaVuSans-2e" transform="translate(127.246094 0)"/>
       <use xlink:href="#DejaVuSans-30" transform="translate(159.033203 0)"/>
      </g>
     </g>
    </g>
    <g id="xtick_3">
     <g id="line2d_3">
      <g>
       <use xlink:href="#m1d0544e320" x="312.424375" y="664.0975" style="stroke: #000000; stroke-width: 1.5"/>
      </g>
     </g>
     <g id="text_3">
      <!-- 22.5 -->
      <g transform="translate(299.065 684.715625) scale(0.12 -0.12)">
       <use xlink:href="#DejaVuSans-32"/>
       <use xlink:href="#DejaVuSans-32" transform="translate(63.623047 0)"/>
       <use xlink:href="#DejaVuSans-2e" transform="translate(127.246094 0)"/>
       <use xlink:href="#DejaVuSans-35" transform="translate(159.033203 0)"/>
      </g>
     </g>
    </g>
    <g id="xtick_4">
     <g id="line2d_4">
      <g>
       <use xlink:href="#m1d0544e320" x="439.059375" y="664.0975" style="stroke: #000000; stroke-width: 1.5"/>
      </g>
     </g>
     <g id="text_4">
      <!-- 23.0 -->
      <g transform="translate(425.7 684.715625) scale(0.12 -0.12)">
       <defs>
        <path id="DejaVuSans-33" d="M 2597 2516 
Q 3050 2419 3304 2112 
Q 3559 1806 3559 1356 
Q 3559 666 3084 287 
Q 2609 -91 1734 -91 
Q 1441 -91 1130 -33 
Q 819 25 488 141 
L 488 750 
Q 750 597 1062 519 
Q 1375 441 1716 441 
Q 2309 441 2620 675 
Q 2931 909 2931 1356 
Q 2931 1769 2642 2001 
Q 2353 2234 1838 2234 
L 1294 2234 
L 1294 2753 
L 1863 2753 
Q 2328 2753 2575 2939 
Q 2822 3125 2822 3475 
Q 2822 3834 2567 4026 
Q 2313 4219 1838 4219 
Q 1578 4219 1281 4162 
Q 984 4106 628 3988 
L 628 4550 
Q 988 4650 1302 4700 
Q 1616 4750 1894 4750 
Q 2613 4750 3031 4423 
Q 3450 4097 3450 3541 
Q 3450 3153 3228 2886 
Q 3006 2619 2597 2516 
z
" transform="scale(0.015625)"/>
       </defs>
       <use xlink:href="#DejaVuSans-32"/>
       <use xlink:href="#DejaVuSans-33" transform="translate(63.623047 0)"/>
       <use xlink:href="#DejaVuSans-2e" transform="translate(127.246094 0)"/>
       <use xlink:href="#DejaVuSans-30" transform="translate(159.033203 0)"/>
      </g>
     </g>
    </g>
    <g id="xtick_5">
     <g id="line2d_5">
      <g>
       <use xlink:href="#m1d0544e320" x="565.694375" y="664.0975" style="stroke: #000000; stroke-width: 1.5"/>
      </g>
     </g>
     <g id="text_5">
      <!-- 23.5 -->
      <g transform="translate(552.335 684.715625) scale(0.12 -0.12)">
       <use xlink:href="#DejaVuSans-32"/>
       <use xlink:href="#DejaVuSans-33" transform="translate(63.623047 0)"/>
       <use xlink:href="#DejaVuSans-2e" transform="translate(127.246094 0)"/>
       <use xlink:href="#DejaVuSans-35" transform="translate(159.033203 0)"/>
      </g>
     </g>
    </g>
    <g id="xtick_6">
     <g id="line2d_6">
      <g>
       <use xlink:href="#m1d0544e320" x="692.329375" y="664.0975" style="stroke: #000000; stroke-width: 1.5"/>
      </g>
     </g>
     <g id="text_6">
      <!-- 24.0 -->
      <g transform="translate(678.97 684.715625) scale(0.12 -0.12)">
       <defs>
        <path id="DejaVuSans-34" d="M 2419 4116 
L 825 1625 
L 2419 1625 
L 2419 4116 
z
M 2253 4666 
L 3047 4666 
L 3047 1625 
L 3713 1625 
L 3713 1100 
L 3047 1100 
L 3047 0 
L 2419 0 
L 2419 1100 
L 313 1100 
L 313 1709 
L 2253 4666 
z
" transform="scale(0.015625)"/>
       </defs>
       <use xlink:href="#DejaVuSans-32"/>
       <use xlink:href="#DejaVuSans-34" transform="translate(63.623047 0)"/>
       <use xlink:href="#DejaVuSans-2e" transform="translate(127.246094 0)"/>
       <use xlink:href="#DejaVuSans-30" transform="translate(159.033203 0)"/>
      </g>
     </g>
    </g>
    <g id="text_7">
     <!-- Время (минуты) -->
     <g transform="translate(316.856562 701.849062) scale(0.14 -0.14)">
      <defs>
       <path id="DejaVuSans-412" d="M 1259 2228 
L 1259 519 
L 2272 519 
Q 2781 519 3026 730 
Q 3272 941 3272 1375 
Q 3272 1813 3026 2020 
Q 2781 2228 2272 2228 
L 1259 2228 
z
M 1259 4147 
L 1259 2741 
L 2194 2741 
Q 2656 2741 2882 2914 
Q 3109 3088 3109 3444 
Q 3109 3797 2882 3972 
Q 2656 4147 2194 4147 
L 1259 4147 
z
M 628 4666 
L 2241 4666 
Q 2963 4666 3353 4366 
Q 3744 4066 3744 3513 
Q 3744 3084 3544 2831 
Q 3344 2578 2956 2516 
Q 3422 2416 3680 2098 
Q 3938 1781 3938 1306 
Q 3938 681 3513 340 
Q 3088 0 2303 0 
L 628 0 
L 628 4666 
z
" transform="scale(0.015625)"/>
       <path id="DejaVuSans-440" d="M 1159 525 
L 1159 -1331 
L 581 -1331 
L 581 3500 
L 1159 3500 
L 1159 2969 
Q 1341 3281 1617 3432 
Q 1894 3584 2278 3584 
Q 2916 3584 3314 3078 
Q 3713 2572 3713 1747 
Q 3713 922 3314 415 
Q 2916 -91 2278 -91 
Q 1894 -91 1617 61 
Q 1341 213 1159 525 
z
M 3116 1747 
Q 3116 2381 2855 2742 
Q 2594 3103 2138 3103 
Q 1681 3103 1420 2742 
Q 1159 2381 1159 1747 
Q 1159 1113 1420 752 
Q 1681 391 2138 391 
Q 2594 391 2855 752 
Q 3116 1113 3116 1747 
z
" transform="scale(0.015625)"/>
       <path id="DejaVuSans-435" d="M 3597 1894 
L 3597 1613 
L 953 1613 
Q 991 1019 1311 708 
Q 1631 397 2203 397 
Q 2534 397 2845 478 
Q 3156 559 3463 722 
L 3463 178 
Q 3153 47 2828 -22 
Q 2503 -91 2169 -91 
Q 1331 -91 842 396 
Q 353 884 353 1716 
Q 353 2575 817 3079 
Q 1281 3584 2069 3584 
Q 2775 3584 3186 3129 
Q 3597 2675 3597 1894 
z
M 3022 2063 
Q 3016 2534 2758 2815 
Q 2500 3097 2075 3097 
Q 1594 3097 1305 2825 
Q 1016 2553 972 2059 
L 3022 2063 
z
" transform="scale(0.015625)"/>
       <path id="DejaVuSans-43c" d="M 581 3500 
L 1422 3500 
L 2416 1156 
L 3413 3500 
L 4247 3500 
L 4247 0 
L 3669 0 
L 3669 2950 
L 2703 672 
L 2128 672 
L 1159 2950 
L 1159 0 
L 581 0 
L 581 3500 
z
" transform="scale(0.015625)"/>
       <path id="DejaVuSans-44f" d="M 1181 2491 
Q 1181 2231 1381 2084 
Q 1581 1938 1953 1938 
L 2728 1938 
L 2728 3041 
L 1953 3041 
Q 1581 3041 1381 2897 
Q 1181 2753 1181 2491 
z
M 363 0 
L 1431 1534 
Q 1069 1616 828 1830 
Q 588 2044 588 2491 
Q 588 2997 923 3248 
Q 1259 3500 1938 3500 
L 3306 3500 
L 3306 0 
L 2728 0 
L 2728 1478 
L 2013 1478 
L 981 0 
L 363 0 
z
" transform="scale(0.015625)"/>
       <path id="DejaVuSans-20" transform="scale(0.015625)"/>
       <path id="DejaVuSans-28" d="M 1984 4856 
Q 1566 4138 1362 3434 
Q 1159 2731 1159 2009 
Q 1159 1288 1364 580 
Q 1569 -128 1984 -844 
L 1484 -844 
Q 1016 -109 783 600 
Q 550 1309 550 2009 
Q 550 2706 781 3412 
Q 1013 4119 1484 4856 
L 1984 4856 
z
" transform="scale(0.015625)"/>
       <path id="DejaVuSans-438" d="M 3578 3500 
L 3578 0 
L 3006 0 
L 3006 2809 
L 1319 0 
L 581 0 
L 581 3500 
L 1153 3500 
L 1153 697 
L 2838 3500 
L 3578 3500 
z
" transform="scale(0.015625)"/>
       <path id="DejaVuSans-43d" d="M 581 3500 
L 1159 3500 
L 1159 2072 
L 3025 2072 
L 3025 3500 
L 3603 3500 
L 3603 0 
L 3025 0 
L 3025 1613 
L 1159 1613 
L 1159 0 
L 581 0 
L 581 3500 
z
" transform="scale(0.015625)"/>
       <path id="DejaVuSans-443" d="M 2059 -325 
Q 1816 -950 1584 -1140 
Q 1353 -1331 966 -1331 
L 506 -1331 
L 506 -850 
L 844 -850 
Q 1081 -850 1212 -737 
Q 1344 -625 1503 -206 
L 1606 56 
L 191 3500 
L 800 3500 
L 1894 763 
L 2988 3500 
L 3597 3500 
L 2059 -325 
z
" transform="scale(0.015625)"/>
       <path id="DejaVuSans-442" d="M 188 3500 
L 3541 3500 
L 3541 3041 
L 2147 3041 
L 2147 0 
L 1581 0 
L 1581 3041 
L 188 3041 
L 188 3500 
z
" transform="scale(0.015625)"/>
       <path id="DejaVuSans-44b" d="M 3907 3500 
L 4482 3500 
L 4482 0 
L 3907 0 
L 3907 3500 
z
M 4195 3584 
L 4195 3584 
z
M 2781 1038 
Q 2781 1319 2576 1466 
Q 2372 1613 1978 1613 
L 1159 1613 
L 1159 459 
L 1978 459 
Q 2372 459 2576 607 
Q 2781 756 2781 1038 
z
M 581 3500 
L 1159 3500 
L 1159 2072 
L 2003 2072 
Q 2672 2072 3033 1817 
Q 3394 1563 3394 1038 
Q 3394 513 3033 256 
Q 2672 0 2003 0 
L 581 0 
L 581 3500 
z
" transform="scale(0.015625)"/>
       <path id="DejaVuSans-29" d="M 513 4856 
L 1013 4856 
Q 1481 4119 1714 3412 
Q 1947 2706 1947 2009 
Q 1947 1309 1714 600 
Q 1481 -109 1013 -844 
L 513 -844 
Q 928 -128 1133 580 
Q 1338 1288 1338 2009 
Q 1338 2731 1133 3434 
Q 928 4138 513 4856 
z
" transform="scale(0.015625)"/>
      </defs>
      <use xlink:href="#DejaVuSans-412"/>
      <use xlink:href="#DejaVuSans-440" transform="translate(68.603516 0)"/>
      <use xlink:href="#DejaVuSans-435" transform="translate(132.080078 0)"/>
      <use xlink:href="#DejaVuSans-43c" transform="translate(193.603516 0)"/>
      <use xlink:href="#DejaVuSans-44f" transform="translate(269.042969 0)"/>
      <use xlink:href="#DejaVuSans-20" transform="translate(329.199219 0)"/>
      <use xlink:href="#DejaVuSans-28" transform="translate(360.986328 0)"/>
      <use xlink:href="#DejaVuSans-43c" transform="translate(400 0)"/>
      <use xlink:href="#DejaVuSans-438" transform="translate(475.439453 0)"/>
      <use xlink:href="#DejaVuSans-43d" transform="translate(540.429688 0)"/>
      <use xlink:href="#DejaVuSans-443" transform="translate(605.810547 0)"/>
      <use xlink:href="#DejaVuSans-442" transform="translate(664.990234 0)"/>
      <use xlink:href="#DejaVuSans-44b" transform="translate(723.242188 0)"/>
      <use xlink:href="#DejaVuSans-29" transform="translate(802.197266 0)"/>
     </g>
    </g>
   </g>
   <g id="matplotlib.axis_2">
    <g id="ytick_1">
     <g id="line2d_7">
      <defs>
       <path id="m889989212f" d="M 0 0 
L -8 0 
" style="stroke: #000000; stroke-width: 1.5"/>
      </defs>
      <g>
       <use xlink:href="#m889989212f" x="59.154375" y="658.757495" style="stroke: #000000; stroke-width: 1.5"/>
      </g>
     </g>
     <g id="text_8">
      <!-- 0 -->
      <g transform="translate(40.019375 663.316558) scale(0.12 -0.12)">
       <use xlink:href="#DejaVuSans-30"/>
      </g>
     </g>
    </g>
    <g id="ytick_2">
     <g id="line2d_8">
      <g>
       <use xlink:href="#m889989212f" x="59.154375" y="521.061844" style="stroke: #000000; stroke-width: 1.5"/>
      </g>
     </g>
     <g id="text_9">
      <!-- 25 -->
      <g transform="translate(32.384375 525.620907) scale(0.12 -0.12)">
       <use xlink:href="#DejaVuSans-32"/>
       <use xlink:href="#DejaVuSans-35" transform="translate(63.623047 0)"/>
      </g>
     </g>
    </g>
    <g id="ytick_3">
     <g id="line2d_9">
      <g>
       <use xlink:href="#m889989212f" x="59.154375" y="383.366193" style="stroke: #000000; stroke-width: 1.5"/>
      </g>
     </g>
     <g id="text_10">
      <!-- 50 -->
      <g transform="translate(32.384375 387.925255) scale(0.12 -0.12)">
       <use xlink:href="#DejaVuSans-35"/>
       <use xlink:href="#DejaVuSans-30" transform="translate(63.623047 0)"/>
      </g>
     </g>
    </g>
    <g id="ytick_4">
     <g id="line2d_10">
      <g>
       <use xlink:href="#m889989212f" x="59.154375" y="245.670542" style="stroke: #000000; stroke-width: 1.5"/>
      </g>
     </g>
     <g id="text_11">
      <!-- 75 -->
      <g transform="translate(32.384375 250.229604) scale(0.12 -0.12)">
       <defs>
        <path id="DejaVuSans-37" d="M 525 4666 
L 3525 4666 
L 3525 4397 
L 1831 0 
L 1172 0 
L 2766 4134 
L 525 4134 
L 525 4666 
z
" transform="scale(0.015625)"/>
       </defs>
       <use xlink:href="#DejaVuSans-37"/>
       <use xlink:href="#DejaVuSans-35" transform="translate(63.623047 0)"/>
      </g>
     </g>
    </g>
    <g id="ytick_5">
     <g id="line2d_11">
      <g>
       <use xlink:href="#m889989212f" x="59.154375" y="107.974891" style="stroke: #000000; stroke-width: 1.5"/>
      </g>
     </g>
     <g id="text_12">
      <!-- 100 -->
      <g transform="translate(24.749375 112.533953) scale(0.12 -0.12)">
       <use xlink:href="#DejaVuSans-31"/>
       <use xlink:href="#DejaVuSans-30" transform="translate(63.623047 0)"/>
       <use xlink:href="#DejaVuSans-30" transform="translate(127.246094 0)"/>
      </g>
     </g>
    </g>
    <g id="text_13">
     <!-- Интенсивность (%) -->
     <g transform="translate(17.837812 415.274375) rotate(-90) scale(0.14 -0.14)">
      <defs>
       <path id="DejaVuSans-418" d="M 4159 4666 
L 4159 0 
L 3547 0 
L 3547 3903 
L 1478 0 
L 628 0 
L 628 4666 
L 1241 4666 
L 1241 763 
L 3309 4666 
L 4159 4666 
z
" transform="scale(0.015625)"/>
       <path id="DejaVuSans-441" d="M 3122 3366 
L 3122 2828 
Q 2878 2963 2633 3030 
Q 2388 3097 2138 3097 
Q 1578 3097 1268 2742 
Q 959 2388 959 1747 
Q 959 1106 1268 751 
Q 1578 397 2138 397 
Q 2388 397 2633 464 
Q 2878 531 3122 666 
L 3122 134 
Q 2881 22 2623 -34 
Q 2366 -91 2075 -91 
Q 1284 -91 818 406 
Q 353 903 353 1747 
Q 353 2603 823 3093 
Q 1294 3584 2113 3584 
Q 2378 3584 2631 3529 
Q 2884 3475 3122 3366 
z
" transform="scale(0.015625)"/>
       <path id="DejaVuSans-432" d="M 1156 1613 
L 1156 459 
L 1975 459 
Q 2369 459 2575 607 
Q 2781 756 2781 1038 
Q 2781 1319 2575 1466 
Q 2369 1613 1975 1613 
L 1156 1613 
z
M 1156 3041 
L 1156 2072 
L 1913 2072 
Q 2238 2072 2444 2201 
Q 2650 2331 2650 2563 
Q 2650 2794 2444 2917 
Q 2238 3041 1913 3041 
L 1156 3041 
z
M 581 3500 
L 1950 3500 
Q 2566 3500 2897 3275 
Q 3228 3050 3228 2634 
Q 3228 2313 3059 2123 
Q 2891 1934 2559 1888 
Q 2956 1813 3175 1575 
Q 3394 1338 3394 981 
Q 3394 513 3033 256 
Q 2672 0 2003 0 
L 581 0 
L 581 3500 
z
" transform="scale(0.015625)"/>
       <path id="DejaVuSans-43e" d="M 1959 3097 
Q 1497 3097 1228 2736 
Q 959 2375 959 1747 
Q 959 1119 1226 758 
Q 1494 397 1959 397 
Q 2419 397 2687 759 
Q 2956 1122 2956 1747 
Q 2956 2369 2687 2733 
Q 2419 3097 1959 3097 
z
M 1959 3584 
Q 2709 3584 3137 3096 
Q 3566 2609 3566 1747 
Q 3566 888 3137 398 
Q 2709 -91 1959 -91 
Q 1206 -91 779 398 
Q 353 888 353 1747 
Q 353 2609 779 3096 
Q 1206 3584 1959 3584 
z
" transform="scale(0.015625)"/>
       <path id="DejaVuSans-44c" d="M 2781 1038 
Q 2781 1319 2576 1466 
Q 2372 1613 1978 1613 
L 1159 1613 
L 1159 459 
L 1978 459 
Q 2372 459 2576 607 
Q 2781 756 2781 1038 
z
M 581 3500 
L 1159 3500 
L 1159 2072 
L 2003 2072 
Q 2672 2072 3033 1817 
Q 3394 1563 3394 1038 
Q 3394 513 3033 256 
Q 2672 0 2003 0 
L 581 0 
L 581 3500 
z
" transform="scale(0.015625)"/>
       <path id="DejaVuSans-25" d="M 4653 2053 
Q 4381 2053 4226 1822 
Q 4072 1591 4072 1178 
Q 4072 772 4226 539 
Q 4381 306 4653 306 
Q 4919 306 5073 539 
Q 5228 772 5228 1178 
Q 5228 1588 5073 1820 
Q 4919 2053 4653 2053 
z
M 4653 2450 
Q 5147 2450 5437 2106 
Q 5728 1763 5728 1178 
Q 5728 594 5436 251 
Q 5144 -91 4653 -91 
Q 4153 -91 3862 251 
Q 3572 594 3572 1178 
Q 3572 1766 3864 2108 
Q 4156 2450 4653 2450 
z
M 1428 4353 
Q 1159 4353 1004 4120 
Q 850 3888 850 3481 
Q 850 3069 1003 2837 
Q 1156 2606 1428 2606 
Q 1700 2606 1854 2837 
Q 2009 3069 2009 3481 
Q 2009 3884 1853 4118 
Q 1697 4353 1428 4353 
z
M 4250 4750 
L 4750 4750 
L 1831 -91 
L 1331 -91 
L 4250 4750 
z
M 1428 4750 
Q 1922 4750 2215 4408 
Q 2509 4066 2509 3481 
Q 2509 2891 2217 2550 
Q 1925 2209 1428 2209 
Q 931 2209 642 2551 
Q 353 2894 353 3481 
Q 353 4063 643 4406 
Q 934 4750 1428 4750 
z
" transform="scale(0.015625)"/>
      </defs>
      <use xlink:href="#DejaVuSans-418"/>
      <use xlink:href="#DejaVuSans-43d" transform="translate(74.804688 0)"/>
      <use xlink:href="#DejaVuSans-442" transform="translate(140.185547 0)"/>
      <use xlink:href="#DejaVuSans-435" transform="translate(198.4375 0)"/>
      <use xlink:href="#DejaVuSans-43d" transform="translate(259.960938 0)"/>
      <use xlink:href="#DejaVuSans-441" transform="translate(325.341797 0)"/>
      <use xlink:href="#DejaVuSans-438" transform="translate(380.322266 0)"/>
      <use xlink:href="#DejaVuSans-432" transform="translate(445.3125 0)"/>
      <use xlink:href="#DejaVuSans-43d" transform="translate(504.248047 0)"/>
      <use xlink:href="#DejaVuSans-43e" transform="translate(569.628906 0)"/>
      <use xlink:href="#DejaVuSans-441" transform="translate(630.810547 0)"/>
      <use xlink:href="#DejaVuSans-442" transform="translate(685.791016 0)"/>
      <use xlink:href="#DejaVuSans-44c" transform="translate(744.042969 0)"/>
      <use xlink:href="#DejaVuSans-20" transform="translate(802.978516 0)"/>
      <use xlink:href="#DejaVuSans-28" transform="translate(834.765625 0)"/>
      <use xlink:href="#DejaVuSans-25" transform="translate(873.779297 0)"/>
      <use xlink:href="#DejaVuSans-29" transform="translate(968.798828 0)"/>
     </g>
    </g>
   </g>
   <g id="line2d_12">
    <path d="M 58.634489 658.429571 
L 61.356888 658.427758 
L 63.171821 658.359327 
L 64.079287 658.506263 
L 65.89422 658.362521 
L 66.801687 658.513113 
L 67.709153 658.34293 
L 69.524086 658.418054 
L 80.413683 658.466816 
L 81.321149 658.517106 
L 82.228616 658.399266 
L 83.136082 658.442212 
L 84.043549 658.355833 
L 84.951015 658.48264 
L 90.395814 658.489734 
L 92.210746 658.50593 
L 94.933146 658.494462 
L 96.748079 658.475098 
L 97.655545 658.371048 
L 98.563011 658.474734 
L 101.285411 658.491586 
L 102.192877 658.507414 
L 103.100344 658.397075 
L 104.00781 658.511724 
L 105.822743 658.463464 
L 108.545142 658.496189 
L 113.082474 658.385054 
L 113.989941 658.544177 
L 114.897407 658.410925 
L 115.804873 658.498816 
L 119.434739 658.454611 
L 121.249672 658.470656 
L 137.584068 658.384048 
L 138.491534 658.556556 
L 140.306467 658.399963 
L 143.028866 658.513591 
L 143.936333 658.393452 
L 149.381131 658.532123 
L 150.288598 658.440471 
L 154.82593 658.451338 
L 155.733396 658.441222 
L 156.640862 658.552498 
L 157.548329 658.476657 
L 158.455795 658.591336 
L 160.270728 658.488882 
L 165.715527 658.482926 
L 166.622993 658.535305 
L 168.437926 658.349798 
L 170.252859 658.45119 
L 176.605124 658.407542 
L 178.420057 658.457169 
L 185.679788 658.1483 
L 186.587254 657.997503 
L 190.21712 658.102934 
L 191.124587 657.885166 
L 192.939519 658.031054 
L 194.754452 658.047904 
L 195.661919 658.210464 
L 196.569385 658.07881 
L 197.476852 658.087657 
L 198.384318 658.223104 
L 199.291784 658.123836 
L 200.199251 658.354709 
L 201.106717 658.220904 
L 202.014184 658.365597 
L 207.458982 658.505069 
L 208.366449 658.401027 
L 209.273915 658.477757 
L 211.088848 658.442707 
L 211.996314 658.528126 
L 212.903781 658.370835 
L 214.718714 658.45718 
L 215.62618 658.371398 
L 216.533646 658.492973 
L 219.256046 658.397046 
L 221.978445 658.095727 
L 222.885911 657.723355 
L 223.793378 657.608383 
L 224.700844 657.062224 
L 226.515777 655.70712 
L 227.423243 654.759386 
L 228.33071 653.335915 
L 229.238176 651.521867 
L 230.145643 648.704415 
L 231.053109 646.537158 
L 231.960576 643.454791 
L 232.868042 640.935412 
L 233.775508 636.687054 
L 234.682975 633.619495 
L 235.590441 630.157991 
L 236.497908 625.393103 
L 238.312841 618.051602 
L 239.220307 616.935703 
L 240.127773 616.259926 
L 241.03524 614.588414 
L 241.942706 614.528979 
L 242.850173 615.437469 
L 243.757639 619.777369 
L 244.665106 621.897357 
L 245.572572 626.027872 
L 246.480038 629.546918 
L 247.387505 634.621555 
L 248.294971 638.736586 
L 250.109904 645.614541 
L 251.017371 648.47794 
L 251.924837 650.213607 
L 252.832303 652.193326 
L 254.647236 654.800222 
L 256.462169 656.237809 
L 257.369635 656.827863 
L 258.277102 657.087117 
L 259.184568 657.505915 
L 260.092035 657.665028 
L 260.999501 657.52651 
L 261.906968 657.753151 
L 267.351766 658.005153 
L 270.074165 658.078799 
L 279.14883 658.337504 
L 280.056296 658.22281 
L 283.686162 658.345996 
L 286.408561 658.423515 
L 288.223494 658.325569 
L 289.13096 658.438402 
L 290.038427 658.334999 
L 291.85336 658.361948 
L 292.760826 658.324944 
L 293.668292 658.443045 
L 294.575759 658.320571 
L 295.483225 658.448666 
L 297.298158 658.265369 
L 298.205625 658.443563 
L 300.928024 658.372865 
L 304.557889 658.242263 
L 305.465356 658.405658 
L 308.187755 658.242766 
L 309.095222 658.405101 
L 311.817621 658.343106 
L 312.725087 658.457098 
L 314.54002 658.371993 
L 315.447487 658.481797 
L 316.354953 658.362456 
L 318.169886 658.349555 
L 319.077352 658.343353 
L 319.984819 658.491785 
L 320.892285 658.356644 
L 322.707218 658.48051 
L 325.429617 658.247324 
L 326.337084 658.381749 
L 327.24455 658.328652 
L 328.152016 658.388483 
L 329.966949 658.282598 
L 330.874416 658.372951 
L 334.504281 658.318594 
L 335.411748 658.429386 
L 337.226681 658.300233 
L 338.134147 658.341265 
L 339.041614 658.176671 
L 339.94908 658.337866 
L 342.671479 658.2341 
L 344.486412 658.341217 
L 345.393879 658.215921 
L 346.301345 658.205905 
L 347.208811 658.35393 
L 348.116278 658.273262 
L 349.023744 658.42226 
L 349.931211 658.340918 
L 351.746143 658.495104 
L 353.561076 658.447238 
L 355.376009 658.404817 
L 356.283476 658.431211 
L 358.098408 658.337173 
L 359.913341 658.366097 
L 363.543207 658.408935 
L 365.35814 658.454684 
L 368.080539 658.392423 
L 374.432804 658.464144 
L 375.34027 658.345061 
L 378.06267 658.418318 
L 384.414935 658.426786 
L 385.322401 658.253137 
L 387.137334 658.497764 
L 396.211998 658.494784 
L 397.119465 658.36213 
L 398.026931 658.497125 
L 398.934397 658.406885 
L 401.656797 658.423822 
L 402.564263 658.373377 
L 403.47173 658.522886 
L 405.286662 658.401828 
L 408.009062 658.41545 
L 408.916528 658.279205 
L 410.731461 658.422535 
L 411.638927 658.457785 
L 412.546394 658.33081 
L 416.17626 658.548705 
L 417.991192 658.334385 
L 419.806125 658.458531 
L 423.435991 658.465257 
L 424.343457 658.372184 
L 427.973323 658.480131 
L 431.603189 658.425495 
L 436.140521 658.397354 
L 437.047987 658.498682 
L 437.955454 658.415506 
L 438.86292 658.479419 
L 440.677853 658.405093 
L 443.400252 658.475 
L 452.474916 658.421149 
L 456.104782 658.456134 
L 460.642114 658.442664 
L 461.549581 658.391189 
L 463.364514 658.512888 
L 464.27198 658.312566 
L 468.809312 658.407956 
L 471.531711 658.31358 
L 472.439178 658.404064 
L 475.161577 658.314589 
L 477.883976 658.466022 
L 478.791443 658.386706 
L 480.606376 658.42917 
L 482.421308 658.410727 
L 485.143708 658.522152 
L 486.051174 658.406504 
L 504.200503 658.428287 
L 505.107969 658.50662 
L 506.922902 658.473104 
L 507.830368 658.55538 
L 509.645301 658.507718 
L 510.552768 658.52467 
L 511.460234 658.410382 
L 513.275167 658.473957 
L 515.0901 658.413517 
L 516.905033 658.534412 
L 517.812499 658.373543 
L 518.719965 658.486764 
L 520.534898 658.3278 
L 521.442365 658.464686 
L 527.79463 658.269483 
L 531.424495 658.026087 
L 533.239428 657.458723 
L 535.054361 656.148958 
L 535.961827 655.192567 
L 536.869294 653.35287 
L 537.77676 651.942109 
L 538.684227 649.120962 
L 539.591693 645.736835 
L 541.406626 636.75432 
L 543.221559 623.726974 
L 544.129025 614.27362 
L 545.036492 602.219272 
L 545.943958 592.530997 
L 546.851424 580.555774 
L 547.758891 563.069183 
L 548.666357 549.65203 
L 550.48129 513.136948 
L 552.296223 471.366296 
L 553.203689 445.304175 
L 554.111156 430.383851 
L 555.018622 404.243677 
L 555.926089 368.355572 
L 558.648488 276.657604 
L 559.555954 251.641138 
L 560.463421 218.064176 
L 561.370887 167.770354 
L 562.278354 143.380587 
L 563.18582 123.794834 
L 564.093287 112.42543 
L 565.000753 117.260168 
L 565.908219 107.974891 
L 567.723152 158.703247 
L 568.630619 206.994317 
L 569.538085 266.930914 
L 571.353018 426.166794 
L 572.260484 484.343072 
L 573.167951 533.251246 
L 574.075417 574.423775 
L 574.982884 600.9479 
L 575.89035 619.028141 
L 576.797816 631.159297 
L 577.705283 638.623563 
L 578.612749 643.967661 
L 579.520216 647.980133 
L 581.335149 651.806382 
L 583.150081 653.905009 
L 584.057548 654.491549 
L 585.872481 654.778271 
L 586.779947 655.365933 
L 587.687414 655.670657 
L 592.224746 656.419949 
L 593.132212 656.252873 
L 594.039679 656.662794 
L 594.947145 656.401626 
L 595.854611 656.001214 
L 596.762078 655.909637 
L 598.577011 654.511724 
L 599.484477 653.342135 
L 600.391943 650.900548 
L 601.29941 649.175469 
L 604.021809 638.238354 
L 604.929276 633.297019 
L 605.836742 627.705524 
L 608.559141 609.124978 
L 609.466608 602.823777 
L 610.374074 599.300368 
L 611.281541 591.130408 
L 612.189007 586.912328 
L 613.096473 586.233905 
L 614.00394 584.560333 
L 614.911406 586.637049 
L 615.818873 591.801267 
L 616.726339 596.124294 
L 617.633806 605.208926 
L 618.541272 610.016387 
L 619.448738 615.831837 
L 620.356205 623.634738 
L 622.171138 635.754208 
L 623.078604 640.434106 
L 623.98607 644.498169 
L 624.893537 647.939348 
L 625.801003 650.188267 
L 626.70847 651.821723 
L 628.523403 654.472968 
L 629.430869 655.368 
L 630.338335 655.935587 
L 633.060735 656.96875 
L 633.968201 657.06889 
L 634.875668 657.347345 
L 635.783134 657.501889 
L 636.6906 657.217717 
L 637.598067 657.540641 
L 638.505533 657.604618 
L 639.413 657.531176 
L 640.320466 657.660159 
L 641.227933 657.563412 
L 642.135399 657.733538 
L 643.042865 657.734493 
L 643.950332 657.940058 
L 644.857798 657.749183 
L 645.765265 657.732322 
L 646.672731 657.953991 
L 648.487664 657.931664 
L 650.302597 657.89118 
L 651.210063 658.054658 
L 653.024996 658.049967 
L 658.469795 658.108757 
L 659.377261 657.89641 
L 660.284727 658.044379 
L 666.636992 658.104532 
L 667.544459 657.98422 
L 668.451925 658.164638 
L 671.174324 658.049159 
L 676.619123 658.166407 
L 682.063922 658.208952 
L 682.971388 658.327036 
L 684.786321 658.163535 
L 685.693787 658.087041 
L 686.601254 658.268402 
L 688.416187 658.217636 
L 689.323653 658.090254 
L 691.138586 658.184458 
L 692.953519 658.1248 
L 692.953519 658.1248 
" clip-path="url(#p1ee25a15e8)" style="fill: none; stroke: #0000ff; stroke-width: 1.5; stroke-linecap: square"/>
   </g>
   <g id="patch_3">
    <path d="M 59.154375 664.0975 
L 59.154375 25.3575 
" style="fill: none; stroke: #000000; stroke-width: 1.5; stroke-linejoin: miter; stroke-linecap: square"/>
   </g>
   <g id="patch_4">
    <path d="M 59.154375 664.0975 
L 692.329375 664.0975 
" style="fill: none; stroke: #000000; stroke-width: 1.5; stroke-linejoin: miter; stroke-linecap: square"/>
   </g>
   <g id="text_14">
    <!-- Хроматограмма МСД-1 : TIC -->
    <g transform="translate(258.768125 19.3575) scale(0.16 -0.16)">
     <defs>
      <path id="DejaVuSans-425" d="M 403 4666 
L 1081 4666 
L 2241 2931 
L 3406 4666 
L 4084 4666 
L 2584 2425 
L 4184 0 
L 3506 0 
L 2194 1984 
L 872 0 
L 191 0 
L 1856 2491 
L 403 4666 
z
" transform="scale(0.015625)"/>
      <path id="DejaVuSans-430" d="M 2194 1759 
Q 1497 1759 1228 1600 
Q 959 1441 959 1056 
Q 959 750 1161 570 
Q 1363 391 1709 391 
Q 2188 391 2477 730 
Q 2766 1069 2766 1631 
L 2766 1759 
L 2194 1759 
z
M 3341 1997 
L 3341 0 
L 2766 0 
L 2766 531 
Q 2569 213 2275 61 
Q 1981 -91 1556 -91 
Q 1019 -91 701 211 
Q 384 513 384 1019 
Q 384 1609 779 1909 
Q 1175 2209 1959 2209 
L 2766 2209 
L 2766 2266 
Q 2766 2663 2505 2880 
Q 2244 3097 1772 3097 
Q 1472 3097 1187 3025 
Q 903 2953 641 2809 
L 641 3341 
Q 956 3463 1253 3523 
Q 1550 3584 1831 3584 
Q 2591 3584 2966 3190 
Q 3341 2797 3341 1997 
z
" transform="scale(0.015625)"/>
      <path id="DejaVuSans-433" d="M 581 0 
L 581 3500 
L 3050 3500 
L 3050 3041 
L 1159 3041 
L 1159 0 
L 581 0 
z
" transform="scale(0.015625)"/>
      <path id="DejaVuSans-41c" d="M 628 4666 
L 1569 4666 
L 2759 1491 
L 3956 4666 
L 4897 4666 
L 4897 0 
L 4281 0 
L 4281 4097 
L 3078 897 
L 2444 897 
L 1241 4097 
L 1241 0 
L 628 0 
L 628 4666 
z
" transform="scale(0.015625)"/>
      <path id="DejaVuSans-421" d="M 4122 4306 
L 4122 3641 
Q 3803 3938 3442 4084 
Q 3081 4231 2675 4231 
Q 1875 4231 1450 3742 
Q 1025 3253 1025 2328 
Q 1025 1406 1450 917 
Q 1875 428 2675 428 
Q 3081 428 3442 575 
Q 3803 722 4122 1019 
L 4122 359 
Q 3791 134 3420 21 
Q 3050 -91 2638 -91 
Q 1578 -91 968 557 
Q 359 1206 359 2328 
Q 359 3453 968 4101 
Q 1578 4750 2638 4750 
Q 3056 4750 3426 4639 
Q 3797 4528 4122 4306 
z
" transform="scale(0.015625)"/>
      <path id="DejaVuSans-414" d="M 1459 531 
L 3522 531 
L 3522 4134 
L 2006 4134 
L 2006 3472 
Q 2006 1913 1656 878 
Q 1584 666 1459 531 
z
M 538 531 
Q 956 728 1075 1103 
Q 1378 2066 1378 3784 
L 1378 4666 
L 4153 4666 
L 4153 531 
L 4684 531 
L 4684 -1003 
L 4153 -1003 
L 4153 0 
L 847 0 
L 847 -1003 
L 316 -1003 
L 316 531 
L 538 531 
z
" transform="scale(0.015625)"/>
      <path id="DejaVuSans-2d" d="M 313 2009 
L 1997 2009 
L 1997 1497 
L 313 1497 
L 313 2009 
z
" transform="scale(0.015625)"/>
      <path id="DejaVuSans-3a" d="M 750 794 
L 1409 794 
L 1409 0 
L 750 0 
L 750 794 
z
M 750 3309 
L 1409 3309 
L 1409 2516 
L 750 2516 
L 750 3309 
z
" transform="scale(0.015625)"/>
      <path id="DejaVuSans-54" d="M -19 4666 
L 3928 4666 
L 3928 4134 
L 2272 4134 
L 2272 0 
L 1638 0 
L 1638 4134 
L -19 4134 
L -19 4666 
z
" transform="scale(0.015625)"/>
      <path id="DejaVuSans-49" d="M 628 4666 
L 1259 4666 
L 1259 0 
L 628 0 
L 628 4666 
z
" transform="scale(0.015625)"/>
      <path id="DejaVuSans-43" d="M 4122 4306 
L 4122 3641 
Q 3803 3938 3442 4084 
Q 3081 4231 2675 4231 
Q 1875 4231 1450 3742 
Q 1025 3253 1025 2328 
Q 1025 1406 1450 917 
Q 1875 428 2675 428 
Q 3081 428 3442 575 
Q 3803 722 4122 1019 
L 4122 359 
Q 3791 134 3420 21 
Q 3050 -91 2638 -91 
Q 1578 -91 968 557 
Q 359 1206 359 2328 
Q 359 3453 968 4101 
Q 1578 4750 2638 4750 
Q 3056 4750 3426 4639 
Q 3797 4528 4122 4306 
z
" transform="scale(0.015625)"/>
     </defs>
     <use xlink:href="#DejaVuSans-425"/>
     <use xlink:href="#DejaVuSans-440" transform="translate(68.505859 0)"/>
     <use xlink:href="#DejaVuSans-43e" transform="translate(131.982422 0)"/>
     <use xlink:href="#DejaVuSans-43c" transform="translate(193.164062 0)"/>
     <use xlink:href="#DejaVuSans-430" transform="translate(268.603516 0)"/>
     <use xlink:href="#DejaVuSans-442" transform="translate(329.882812 0)"/>
     <use xlink:href="#DejaVuSans-43e" transform="translate(388.134766 0)"/>
     <use xlink:href="#DejaVuSans-433" transform="translate(449.316406 0)"/>
     <use xlink:href="#DejaVuSans-440" transform="translate(501.855469 0)"/>
     <use xlink:href="#DejaVuSans-430" transform="translate(565.332031 0)"/>
     <use xlink:href="#DejaVuSans-43c" transform="translate(626.611328 0)"/>
     <use xlink:href="#DejaVuSans-43c" transform="translate(702.050781 0)"/>
     <use xlink:href="#DejaVuSans-430" transform="translate(777.490234 0)"/>
     <use xlink:href="#DejaVuSans-20" transform="translate(838.769531 0)"/>
     <use xlink:href="#DejaVuSans-41c" transform="translate(870.556641 0)"/>
     <use xlink:href="#DejaVuSans-421" transform="translate(956.835938 0)"/>
     <use xlink:href="#DejaVuSans-414" transform="translate(1026.660156 0)"/>
     <use xlink:href="#DejaVuSans-2d" transform="translate(1104.785156 0)"/>
     <use xlink:href="#DejaVuSans-31" transform="translate(1140.869141 0)"/>
     <use xlink:href="#DejaVuSans-20" transform="translate(1204.492188 0)"/>
     <use xlink:href="#DejaVuSans-3a" transform="translate(1236.279297 0)"/>
     <use xlink:href="#DejaVuSans-20" transform="translate(1269.970703 0)"/>
     <use xlink:href="#DejaVuSans-54" transform="translate(1301.757812 0)"/>
     <use xlink:href="#DejaVuSans-49" transform="translate(1362.841797 0)"/>
     <use xlink:href="#DejaVuSans-43" transform="translate(1392.333984 0)"/>
    </g>
   </g>
  </g>
 </g>
 <defs>
  <clipPath id="p1ee25a15e8">
   <rect x="59.154375" y="25.3575" width="633.175" height="638.74"/>
  </clipPath>
 </defs>
</svg>
