<?xml version="1.0" encoding="utf-8" standalone="no"?>
<!DOCTYPE svg PUBLIC "-//W3C//DTD SVG 1.1//EN"
  "http://www.w3.org/Graphics/SVG/1.1/DTD/svg11.dtd">
<svg xmlns:xlink="http://www.w3.org/1999/xlink" width="712.73875pt" height="711.960625pt" viewBox="0 0 712.73875 711.960625" xmlns="http://www.w3.org/2000/svg" version="1.1">
 <metadata>
  <rdf:RDF xmlns:dc="http://purl.org/dc/elements/1.1/" xmlns:cc="http://creativecommons.org/ns#" xmlns:rdf="http://www.w3.org/1999/02/22-rdf-syntax-ns#">
   <cc:Work>
    <dc:type rdf:resource="http://purl.org/dc/dcmitype/StillImage"/>
    <dc:date>2025-06-10T18:48:40.967035</dc:date>
    <dc:format>image/svg+xml</dc:format>
    <dc:creator>
     <cc:Agent>
      <dc:title>Matplotlib v3.10.3, https://matplotlib.org/</dc:title>
     </cc:Agent>
    </dc:creator>
   </cc:Work>
  </rdf:RDF>
 </metadata>
 <defs>
  <style type="text/css">*{stroke-linejoin: round; stroke-linecap: butt}</style>
 </defs>
 <g id="figure_1">
  <g id="patch_1">
   <path d="M -0 711.960625 
L 712.73875 711.960625 
L 712.73875 0 
L -0 0 
z
" style="fill: #ffffff"/>
  </g>
  <g id="axes_1">
   <g id="patch_2">
    <path d="M 43.884375 664.0975 
L 692.179375 664.0975 
L 692.179375 25.3575 
L 43.884375 25.3575 
z
" style="fill: #ffffff"/>
   </g>
   <g id="matplotlib.axis_1">
    <g id="xtick_1">
     <g id="line2d_1">
      <defs>
       <path id="m4ff4d76174" d="M 0 0 
L 0 8 
" style="stroke: #000000; stroke-width: 1.5"/>
      </defs>
      <g>
       <use xlink:href="#m4ff4d76174" x="43.884375" y="664.0975" style="stroke: #000000; stroke-width: 1.5"/>
      </g>
     </g>
     <g id="text_1">
      <!-- 21.5 -->
      <g transform="translate(30.525 684.715625) scale(0.12 -0.12)">
       <defs>
        <path id="DejaVuSans-32" d="M 1228 531 
L 3431 531 
L 3431 0 
L 469 0 
L 469 531 
Q 828 903 1448 1529 
Q 2069 2156 2228 2338 
Q 2531 2678 2651 2914 
Q 2772 3150 2772 3378 
Q 2772 3750 2511 3984 
Q 2250 4219 1831 4219 
Q 1534 4219 1204 4116 
Q 875 4013 500 3803 
L 500 4441 
Q 881 4594 1212 4672 
Q 1544 4750 1819 4750 
Q 2544 4750 2975 4387 
Q 3406 4025 3406 3419 
Q 3406 3131 3298 2873 
Q 3191 2616 2906 2266 
Q 2828 2175 2409 1742 
Q 1991 1309 1228 531 
z
" transform="scale(0.015625)"/>
        <path id="DejaVuSans-31" d="M 794 531 
L 1825 531 
L 1825 4091 
L 703 3866 
L 703 4441 
L 1819 4666 
L 2450 4666 
L 2450 531 
L 3481 531 
L 3481 0 
L 794 0 
L 794 531 
z
" transform="scale(0.015625)"/>
        <path id="DejaVuSans-2e" d="M 684 794 
L 1344 794 
L 1344 0 
L 684 0 
L 684 794 
z
" transform="scale(0.015625)"/>
        <path id="DejaVuSans-35" d="M 691 4666 
L 3169 4666 
L 3169 4134 
L 1269 4134 
L 1269 2991 
Q 1406 3038 1543 3061 
Q 1681 3084 1819 3084 
Q 2600 3084 3056 2656 
Q 3513 2228 3513 1497 
Q 3513 744 3044 326 
Q 2575 -91 1722 -91 
Q 1428 -91 1123 -41 
Q 819 9 494 109 
L 494 744 
Q 775 591 1075 516 
Q 1375 441 1709 441 
Q 2250 441 2565 725 
Q 2881 1009 2881 1497 
Q 2881 1984 2565 2268 
Q 2250 2553 1709 2553 
Q 1456 2553 1204 2497 
Q 953 2441 691 2322 
L 691 4666 
z
" transform="scale(0.015625)"/>
       </defs>
       <use xlink:href="#DejaVuSans-32"/>
       <use xlink:href="#DejaVuSans-31" transform="translate(63.623047 0)"/>
       <use xlink:href="#DejaVuSans-2e" transform="translate(127.246094 0)"/>
       <use xlink:href="#DejaVuSans-35" transform="translate(159.033203 0)"/>
      </g>
     </g>
    </g>
    <g id="xtick_2">
     <g id="line2d_2">
      <g>
       <use xlink:href="#m4ff4d76174" x="173.543375" y="664.0975" style="stroke: #000000; stroke-width: 1.5"/>
      </g>
     </g>
     <g id="text_2">
      <!-- 22.0 -->
      <g transform="translate(160.184 684.715625) scale(0.12 -0.12)">
       <defs>
        <path id="DejaVuSans-30" d="M 2034 4250 
Q 1547 4250 1301 3770 
Q 1056 3291 1056 2328 
Q 1056 1369 1301 889 
Q 1547 409 2034 409 
Q 2525 409 2770 889 
Q 3016 1369 3016 2328 
Q 3016 3291 2770 3770 
Q 2525 4250 2034 4250 
z
M 2034 4750 
Q 2819 4750 3233 4129 
Q 3647 3509 3647 2328 
Q 3647 1150 3233 529 
Q 2819 -91 2034 -91 
Q 1250 -91 836 529 
Q 422 1150 422 2328 
Q 422 3509 836 4129 
Q 1250 4750 2034 4750 
z
" transform="scale(0.015625)"/>
       </defs>
       <use xlink:href="#DejaVuSans-32"/>
       <use xlink:href="#DejaVuSans-32" transform="translate(63.623047 0)"/>
       <use xlink:href="#DejaVuSans-2e" transform="translate(127.246094 0)"/>
       <use xlink:href="#DejaVuSans-30" transform="translate(159.033203 0)"/>
      </g>
     </g>
    </g>
    <g id="xtick_3">
     <g id="line2d_3">
      <g>
       <use xlink:href="#m4ff4d76174" x="303.202375" y="664.0975" style="stroke: #000000; stroke-width: 1.5"/>
      </g>
     </g>
     <g id="text_3">
      <!-- 22.5 -->
      <g transform="translate(289.843 684.715625) scale(0.12 -0.12)">
       <use xlink:href="#DejaVuSans-32"/>
       <use xlink:href="#DejaVuSans-32" transform="translate(63.623047 0)"/>
       <use xlink:href="#DejaVuSans-2e" transform="translate(127.246094 0)"/>
       <use xlink:href="#DejaVuSans-35" transform="translate(159.033203 0)"/>
      </g>
     </g>
    </g>
    <g id="xtick_4">
     <g id="line2d_4">
      <g>
       <use xlink:href="#m4ff4d76174" x="432.861375" y="664.0975" style="stroke: #000000; stroke-width: 1.5"/>
      </g>
     </g>
     <g id="text_4">
      <!-- 23.0 -->
      <g transform="translate(419.502 684.715625) scale(0.12 -0.12)">
       <defs>
        <path id="DejaVuSans-33" d="M 2597 2516 
Q 3050 2419 3304 2112 
Q 3559 1806 3559 1356 
Q 3559 666 3084 287 
Q 2609 -91 1734 -91 
Q 1441 -91 1130 -33 
Q 819 25 488 141 
L 488 750 
Q 750 597 1062 519 
Q 1375 441 1716 441 
Q 2309 441 2620 675 
Q 2931 909 2931 1356 
Q 2931 1769 2642 2001 
Q 2353 2234 1838 2234 
L 1294 2234 
L 1294 2753 
L 1863 2753 
Q 2328 2753 2575 2939 
Q 2822 3125 2822 3475 
Q 2822 3834 2567 4026 
Q 2313 4219 1838 4219 
Q 1578 4219 1281 4162 
Q 984 4106 628 3988 
L 628 4550 
Q 988 4650 1302 4700 
Q 1616 4750 1894 4750 
Q 2613 4750 3031 4423 
Q 3450 4097 3450 3541 
Q 3450 3153 3228 2886 
Q 3006 2619 2597 2516 
z
" transform="scale(0.015625)"/>
       </defs>
       <use xlink:href="#DejaVuSans-32"/>
       <use xlink:href="#DejaVuSans-33" transform="translate(63.623047 0)"/>
       <use xlink:href="#DejaVuSans-2e" transform="translate(127.246094 0)"/>
       <use xlink:href="#DejaVuSans-30" transform="translate(159.033203 0)"/>
      </g>
     </g>
    </g>
    <g id="xtick_5">
     <g id="line2d_5">
      <g>
       <use xlink:href="#m4ff4d76174" x="562.520375" y="664.0975" style="stroke: #000000; stroke-width: 1.5"/>
      </g>
     </g>
     <g id="text_5">
      <!-- 23.5 -->
      <g transform="translate(549.161 684.715625) scale(0.12 -0.12)">
       <use xlink:href="#DejaVuSans-32"/>
       <use xlink:href="#DejaVuSans-33" transform="translate(63.623047 0)"/>
       <use xlink:href="#DejaVuSans-2e" transform="translate(127.246094 0)"/>
       <use xlink:href="#DejaVuSans-35" transform="translate(159.033203 0)"/>
      </g>
     </g>
    </g>
    <g id="xtick_6">
     <g id="line2d_6">
      <g>
       <use xlink:href="#m4ff4d76174" x="692.179375" y="664.0975" style="stroke: #000000; stroke-width: 1.5"/>
      </g>
     </g>
     <g id="text_6">
      <!-- 24.0 -->
      <g transform="translate(678.82 684.715625) scale(0.12 -0.12)">
       <defs>
        <path id="DejaVuSans-34" d="M 2419 4116 
L 825 1625 
L 2419 1625 
L 2419 4116 
z
M 2253 4666 
L 3047 4666 
L 3047 1625 
L 3713 1625 
L 3713 1100 
L 3047 1100 
L 3047 0 
L 2419 0 
L 2419 1100 
L 313 1100 
L 313 1709 
L 2253 4666 
z
" transform="scale(0.015625)"/>
       </defs>
       <use xlink:href="#DejaVuSans-32"/>
       <use xlink:href="#DejaVuSans-34" transform="translate(63.623047 0)"/>
       <use xlink:href="#DejaVuSans-2e" transform="translate(127.246094 0)"/>
       <use xlink:href="#DejaVuSans-30" transform="translate(159.033203 0)"/>
      </g>
     </g>
    </g>
    <g id="text_7">
     <!-- Время (минуты) -->
     <g transform="translate(309.146563 701.849062) scale(0.14 -0.14)">
      <defs>
       <path id="DejaVuSans-412" d="M 1259 2228 
L 1259 519 
L 2272 519 
Q 2781 519 3026 730 
Q 3272 941 3272 1375 
Q 3272 1813 3026 2020 
Q 2781 2228 2272 2228 
L 1259 2228 
z
M 1259 4147 
L 1259 2741 
L 2194 2741 
Q 2656 2741 2882 2914 
Q 3109 3088 3109 3444 
Q 3109 3797 2882 3972 
Q 2656 4147 2194 4147 
L 1259 4147 
z
M 628 4666 
L 2241 4666 
Q 2963 4666 3353 4366 
Q 3744 4066 3744 3513 
Q 3744 3084 3544 2831 
Q 3344 2578 2956 2516 
Q 3422 2416 3680 2098 
Q 3938 1781 3938 1306 
Q 3938 681 3513 340 
Q 3088 0 2303 0 
L 628 0 
L 628 4666 
z
" transform="scale(0.015625)"/>
       <path id="DejaVuSans-440" d="M 1159 525 
L 1159 -1331 
L 581 -1331 
L 581 3500 
L 1159 3500 
L 1159 2969 
Q 1341 3281 1617 3432 
Q 1894 3584 2278 3584 
Q 2916 3584 3314 3078 
Q 3713 2572 3713 1747 
Q 3713 922 3314 415 
Q 2916 -91 2278 -91 
Q 1894 -91 1617 61 
Q 1341 213 1159 525 
z
M 3116 1747 
Q 3116 2381 2855 2742 
Q 2594 3103 2138 3103 
Q 1681 3103 1420 2742 
Q 1159 2381 1159 1747 
Q 1159 1113 1420 752 
Q 1681 391 2138 391 
Q 2594 391 2855 752 
Q 3116 1113 3116 1747 
z
" transform="scale(0.015625)"/>
       <path id="DejaVuSans-435" d="M 3597 1894 
L 3597 1613 
L 953 1613 
Q 991 1019 1311 708 
Q 1631 397 2203 397 
Q 2534 397 2845 478 
Q 3156 559 3463 722 
L 3463 178 
Q 3153 47 2828 -22 
Q 2503 -91 2169 -91 
Q 1331 -91 842 396 
Q 353 884 353 1716 
Q 353 2575 817 3079 
Q 1281 3584 2069 3584 
Q 2775 3584 3186 3129 
Q 3597 2675 3597 1894 
z
M 3022 2063 
Q 3016 2534 2758 2815 
Q 2500 3097 2075 3097 
Q 1594 3097 1305 2825 
Q 1016 2553 972 2059 
L 3022 2063 
z
" transform="scale(0.015625)"/>
       <path id="DejaVuSans-43c" d="M 581 3500 
L 1422 3500 
L 2416 1156 
L 3413 3500 
L 4247 3500 
L 4247 0 
L 3669 0 
L 3669 2950 
L 2703 672 
L 2128 672 
L 1159 2950 
L 1159 0 
L 581 0 
L 581 3500 
z
" transform="scale(0.015625)"/>
       <path id="DejaVuSans-44f" d="M 1181 2491 
Q 1181 2231 1381 2084 
Q 1581 1938 1953 1938 
L 2728 1938 
L 2728 3041 
L 1953 3041 
Q 1581 3041 1381 2897 
Q 1181 2753 1181 2491 
z
M 363 0 
L 1431 1534 
Q 1069 1616 828 1830 
Q 588 2044 588 2491 
Q 588 2997 923 3248 
Q 1259 3500 1938 3500 
L 3306 3500 
L 3306 0 
L 2728 0 
L 2728 1478 
L 2013 1478 
L 981 0 
L 363 0 
z
" transform="scale(0.015625)"/>
       <path id="DejaVuSans-20" transform="scale(0.015625)"/>
       <path id="DejaVuSans-28" d="M 1984 4856 
Q 1566 4138 1362 3434 
Q 1159 2731 1159 2009 
Q 1159 1288 1364 580 
Q 1569 -128 1984 -844 
L 1484 -844 
Q 1016 -109 783 600 
Q 550 1309 550 2009 
Q 550 2706 781 3412 
Q 1013 4119 1484 4856 
L 1984 4856 
z
" transform="scale(0.015625)"/>
       <path id="DejaVuSans-438" d="M 3578 3500 
L 3578 0 
L 3006 0 
L 3006 2809 
L 1319 0 
L 581 0 
L 581 3500 
L 1153 3500 
L 1153 697 
L 2838 3500 
L 3578 3500 
z
" transform="scale(0.015625)"/>
       <path id="DejaVuSans-43d" d="M 581 3500 
L 1159 3500 
L 1159 2072 
L 3025 2072 
L 3025 3500 
L 3603 3500 
L 3603 0 
L 3025 0 
L 3025 1613 
L 1159 1613 
L 1159 0 
L 581 0 
L 581 3500 
z
" transform="scale(0.015625)"/>
       <path id="DejaVuSans-443" d="M 2059 -325 
Q 1816 -950 1584 -1140 
Q 1353 -1331 966 -1331 
L 506 -1331 
L 506 -850 
L 844 -850 
Q 1081 -850 1212 -737 
Q 1344 -625 1503 -206 
L 1606 56 
L 191 3500 
L 800 3500 
L 1894 763 
L 2988 3500 
L 3597 3500 
L 2059 -325 
z
" transform="scale(0.015625)"/>
       <path id="DejaVuSans-442" d="M 188 3500 
L 3541 3500 
L 3541 3041 
L 2147 3041 
L 2147 0 
L 1581 0 
L 1581 3041 
L 188 3041 
L 188 3500 
z
" transform="scale(0.015625)"/>
       <path id="DejaVuSans-44b" d="M 3907 3500 
L 4482 3500 
L 4482 0 
L 3907 0 
L 3907 3500 
z
M 4195 3584 
L 4195 3584 
z
M 2781 1038 
Q 2781 1319 2576 1466 
Q 2372 1613 1978 1613 
L 1159 1613 
L 1159 459 
L 1978 459 
Q 2372 459 2576 607 
Q 2781 756 2781 1038 
z
M 581 3500 
L 1159 3500 
L 1159 2072 
L 2003 2072 
Q 2672 2072 3033 1817 
Q 3394 1563 3394 1038 
Q 3394 513 3033 256 
Q 2672 0 2003 0 
L 581 0 
L 581 3500 
z
" transform="scale(0.015625)"/>
       <path id="DejaVuSans-29" d="M 513 4856 
L 1013 4856 
Q 1481 4119 1714 3412 
Q 1947 2706 1947 2009 
Q 1947 1309 1714 600 
Q 1481 -109 1013 -844 
L 513 -844 
Q 928 -128 1133 580 
Q 1338 1288 1338 2009 
Q 1338 2731 1133 3434 
Q 928 4138 513 4856 
z
" transform="scale(0.015625)"/>
      </defs>
      <use xlink:href="#DejaVuSans-412"/>
      <use xlink:href="#DejaVuSans-440" transform="translate(68.603516 0)"/>
      <use xlink:href="#DejaVuSans-435" transform="translate(132.080078 0)"/>
      <use xlink:href="#DejaVuSans-43c" transform="translate(193.603516 0)"/>
      <use xlink:href="#DejaVuSans-44f" transform="translate(269.042969 0)"/>
      <use xlink:href="#DejaVuSans-20" transform="translate(329.199219 0)"/>
      <use xlink:href="#DejaVuSans-28" transform="translate(360.986328 0)"/>
      <use xlink:href="#DejaVuSans-43c" transform="translate(400 0)"/>
      <use xlink:href="#DejaVuSans-438" transform="translate(475.439453 0)"/>
      <use xlink:href="#DejaVuSans-43d" transform="translate(540.429688 0)"/>
      <use xlink:href="#DejaVuSans-443" transform="translate(605.810547 0)"/>
      <use xlink:href="#DejaVuSans-442" transform="translate(664.990234 0)"/>
      <use xlink:href="#DejaVuSans-44b" transform="translate(723.242188 0)"/>
      <use xlink:href="#DejaVuSans-29" transform="translate(802.197266 0)"/>
     </g>
    </g>
   </g>
   <g id="matplotlib.axis_2">
    <g id="ytick_1">
     <g id="line2d_7">
      <defs>
       <path id="md46791cfc7" d="M 0 0 
L -8 0 
" style="stroke: #000000; stroke-width: 1.5"/>
      </defs>
      <g>
       <use xlink:href="#md46791cfc7" x="43.884375" y="658.757287" style="stroke: #000000; stroke-width: 1.5"/>
      </g>
     </g>
     <g id="text_8">
      <!-- 0 -->
      <g transform="translate(24.749375 663.316349) scale(0.12 -0.12)">
       <use xlink:href="#DejaVuSans-30"/>
      </g>
     </g>
    </g>
    <g id="ytick_2">
     <g id="line2d_8">
      <g>
       <use xlink:href="#md46791cfc7" x="43.884375" y="574.419302" style="stroke: #000000; stroke-width: 1.5"/>
      </g>
     </g>
     <g id="text_9">
      <!-- 1 -->
      <g transform="translate(24.749375 578.978365) scale(0.12 -0.12)">
       <use xlink:href="#DejaVuSans-31"/>
      </g>
     </g>
    </g>
    <g id="ytick_3">
     <g id="line2d_9">
      <g>
       <use xlink:href="#md46791cfc7" x="43.884375" y="490.081317" style="stroke: #000000; stroke-width: 1.5"/>
      </g>
     </g>
     <g id="text_10">
      <!-- 2 -->
      <g transform="translate(24.749375 494.64038) scale(0.12 -0.12)">
       <use xlink:href="#DejaVuSans-32"/>
      </g>
     </g>
    </g>
    <g id="ytick_4">
     <g id="line2d_10">
      <g>
       <use xlink:href="#md46791cfc7" x="43.884375" y="405.743333" style="stroke: #000000; stroke-width: 1.5"/>
      </g>
     </g>
     <g id="text_11">
      <!-- 3 -->
      <g transform="translate(24.749375 410.302395) scale(0.12 -0.12)">
       <use xlink:href="#DejaVuSans-33"/>
      </g>
     </g>
    </g>
    <g id="ytick_5">
     <g id="line2d_11">
      <g>
       <use xlink:href="#md46791cfc7" x="43.884375" y="321.405348" style="stroke: #000000; stroke-width: 1.5"/>
      </g>
     </g>
     <g id="text_12">
      <!-- 4 -->
      <g transform="translate(24.749375 325.96441) scale(0.12 -0.12)">
       <use xlink:href="#DejaVuSans-34"/>
      </g>
     </g>
    </g>
    <g id="ytick_6">
     <g id="line2d_12">
      <g>
       <use xlink:href="#md46791cfc7" x="43.884375" y="237.067363" style="stroke: #000000; stroke-width: 1.5"/>
      </g>
     </g>
     <g id="text_13">
      <!-- 5 -->
      <g transform="translate(24.749375 241.626426) scale(0.12 -0.12)">
       <use xlink:href="#DejaVuSans-35"/>
      </g>
     </g>
    </g>
    <g id="ytick_7">
     <g id="line2d_13">
      <g>
       <use xlink:href="#md46791cfc7" x="43.884375" y="152.729378" style="stroke: #000000; stroke-width: 1.5"/>
      </g>
     </g>
     <g id="text_14">
      <!-- 6 -->
      <g transform="translate(24.749375 157.288441) scale(0.12 -0.12)">
       <defs>
        <path id="DejaVuSans-36" d="M 2113 2584 
Q 1688 2584 1439 2293 
Q 1191 2003 1191 1497 
Q 1191 994 1439 701 
Q 1688 409 2113 409 
Q 2538 409 2786 701 
Q 3034 994 3034 1497 
Q 3034 2003 2786 2293 
Q 2538 2584 2113 2584 
z
M 3366 4563 
L 3366 3988 
Q 3128 4100 2886 4159 
Q 2644 4219 2406 4219 
Q 1781 4219 1451 3797 
Q 1122 3375 1075 2522 
Q 1259 2794 1537 2939 
Q 1816 3084 2150 3084 
Q 2853 3084 3261 2657 
Q 3669 2231 3669 1497 
Q 3669 778 3244 343 
Q 2819 -91 2113 -91 
Q 1303 -91 875 529 
Q 447 1150 447 2328 
Q 447 3434 972 4092 
Q 1497 4750 2381 4750 
Q 2619 4750 2861 4703 
Q 3103 4656 3366 4563 
z
" transform="scale(0.015625)"/>
       </defs>
       <use xlink:href="#DejaVuSans-36"/>
      </g>
     </g>
    </g>
    <g id="ytick_8">
     <g id="line2d_14">
      <g>
       <use xlink:href="#md46791cfc7" x="43.884375" y="68.391394" style="stroke: #000000; stroke-width: 1.5"/>
      </g>
     </g>
     <g id="text_15">
      <!-- 7 -->
      <g transform="translate(24.749375 72.950456) scale(0.12 -0.12)">
       <defs>
        <path id="DejaVuSans-37" d="M 525 4666 
L 3525 4666 
L 3525 4397 
L 1831 0 
L 1172 0 
L 2766 4134 
L 525 4134 
L 525 4666 
z
" transform="scale(0.015625)"/>
       </defs>
       <use xlink:href="#DejaVuSans-37"/>
      </g>
     </g>
    </g>
    <g id="text_16">
     <!-- Интенсивность (мВ*с) -->
     <g transform="translate(17.837813 426.055469) rotate(-90) scale(0.14 -0.14)">
      <defs>
       <path id="DejaVuSans-418" d="M 4159 4666 
L 4159 0 
L 3547 0 
L 3547 3903 
L 1478 0 
L 628 0 
L 628 4666 
L 1241 4666 
L 1241 763 
L 3309 4666 
L 4159 4666 
z
" transform="scale(0.015625)"/>
       <path id="DejaVuSans-441" d="M 3122 3366 
L 3122 2828 
Q 2878 2963 2633 3030 
Q 2388 3097 2138 3097 
Q 1578 3097 1268 2742 
Q 959 2388 959 1747 
Q 959 1106 1268 751 
Q 1578 397 2138 397 
Q 2388 397 2633 464 
Q 2878 531 3122 666 
L 3122 134 
Q 2881 22 2623 -34 
Q 2366 -91 2075 -91 
Q 1284 -91 818 406 
Q 353 903 353 1747 
Q 353 2603 823 3093 
Q 1294 3584 2113 3584 
Q 2378 3584 2631 3529 
Q 2884 3475 3122 3366 
z
" transform="scale(0.015625)"/>
       <path id="DejaVuSans-432" d="M 1156 1613 
L 1156 459 
L 1975 459 
Q 2369 459 2575 607 
Q 2781 756 2781 1038 
Q 2781 1319 2575 1466 
Q 2369 1613 1975 1613 
L 1156 1613 
z
M 1156 3041 
L 1156 2072 
L 1913 2072 
Q 2238 2072 2444 2201 
Q 2650 2331 2650 2563 
Q 2650 2794 2444 2917 
Q 2238 3041 1913 3041 
L 1156 3041 
z
M 581 3500 
L 1950 3500 
Q 2566 3500 2897 3275 
Q 3228 3050 3228 2634 
Q 3228 2313 3059 2123 
Q 2891 1934 2559 1888 
Q 2956 1813 3175 1575 
Q 3394 1338 3394 981 
Q 3394 513 3033 256 
Q 2672 0 2003 0 
L 581 0 
L 581 3500 
z
" transform="scale(0.015625)"/>
       <path id="DejaVuSans-43e" d="M 1959 3097 
Q 1497 3097 1228 2736 
Q 959 2375 959 1747 
Q 959 1119 1226 758 
Q 1494 397 1959 397 
Q 2419 397 2687 759 
Q 2956 1122 2956 1747 
Q 2956 2369 2687 2733 
Q 2419 3097 1959 3097 
z
M 1959 3584 
Q 2709 3584 3137 3096 
Q 3566 2609 3566 1747 
Q 3566 888 3137 398 
Q 2709 -91 1959 -91 
Q 1206 -91 779 398 
Q 353 888 353 1747 
Q 353 2609 779 3096 
Q 1206 3584 1959 3584 
z
" transform="scale(0.015625)"/>
       <path id="DejaVuSans-44c" d="M 2781 1038 
Q 2781 1319 2576 1466 
Q 2372 1613 1978 1613 
L 1159 1613 
L 1159 459 
L 1978 459 
Q 2372 459 2576 607 
Q 2781 756 2781 1038 
z
M 581 3500 
L 1159 3500 
L 1159 2072 
L 2003 2072 
Q 2672 2072 3033 1817 
Q 3394 1563 3394 1038 
Q 3394 513 3033 256 
Q 2672 0 2003 0 
L 581 0 
L 581 3500 
z
" transform="scale(0.015625)"/>
       <path id="DejaVuSans-2a" d="M 3009 3897 
L 1888 3291 
L 3009 2681 
L 2828 2375 
L 1778 3009 
L 1778 1831 
L 1422 1831 
L 1422 3009 
L 372 2375 
L 191 2681 
L 1313 3291 
L 191 3897 
L 372 4206 
L 1422 3572 
L 1422 4750 
L 1778 4750 
L 1778 3572 
L 2828 4206 
L 3009 3897 
z
" transform="scale(0.015625)"/>
      </defs>
      <use xlink:href="#DejaVuSans-418"/>
      <use xlink:href="#DejaVuSans-43d" transform="translate(74.804688 0)"/>
      <use xlink:href="#DejaVuSans-442" transform="translate(140.185547 0)"/>
      <use xlink:href="#DejaVuSans-435" transform="translate(198.4375 0)"/>
      <use xlink:href="#DejaVuSans-43d" transform="translate(259.960938 0)"/>
      <use xlink:href="#DejaVuSans-441" transform="translate(325.341797 0)"/>
      <use xlink:href="#DejaVuSans-438" transform="translate(380.322266 0)"/>
      <use xlink:href="#DejaVuSans-432" transform="translate(445.3125 0)"/>
      <use xlink:href="#DejaVuSans-43d" transform="translate(504.248047 0)"/>
      <use xlink:href="#DejaVuSans-43e" transform="translate(569.628906 0)"/>
      <use xlink:href="#DejaVuSans-441" transform="translate(630.810547 0)"/>
      <use xlink:href="#DejaVuSans-442" transform="translate(685.791016 0)"/>
      <use xlink:href="#DejaVuSans-44c" transform="translate(744.042969 0)"/>
      <use xlink:href="#DejaVuSans-20" transform="translate(802.978516 0)"/>
      <use xlink:href="#DejaVuSans-28" transform="translate(834.765625 0)"/>
      <use xlink:href="#DejaVuSans-43c" transform="translate(873.779297 0)"/>
      <use xlink:href="#DejaVuSans-412" transform="translate(949.21875 0)"/>
      <use xlink:href="#DejaVuSans-2a" transform="translate(1017.822266 0)"/>
      <use xlink:href="#DejaVuSans-441" transform="translate(1067.822266 0)"/>
      <use xlink:href="#DejaVuSans-29" transform="translate(1122.802734 0)"/>
     </g>
    </g>
    <g id="text_17">
     <!-- 1e7 -->
     <g transform="translate(43.884375 22.3575) scale(0.1 -0.1)">
      <defs>
       <path id="DejaVuSans-65" d="M 3597 1894 
L 3597 1613 
L 953 1613 
Q 991 1019 1311 708 
Q 1631 397 2203 397 
Q 2534 397 2845 478 
Q 3156 559 3463 722 
L 3463 178 
Q 3153 47 2828 -22 
Q 2503 -91 2169 -91 
Q 1331 -91 842 396 
Q 353 884 353 1716 
Q 353 2575 817 3079 
Q 1281 3584 2069 3584 
Q 2775 3584 3186 3129 
Q 3597 2675 3597 1894 
z
M 3022 2063 
Q 3016 2534 2758 2815 
Q 2500 3097 2075 3097 
Q 1594 3097 1305 2825 
Q 1016 2553 972 2059 
L 3022 2063 
z
" transform="scale(0.015625)"/>
      </defs>
      <use xlink:href="#DejaVuSans-31"/>
      <use xlink:href="#DejaVuSans-65" transform="translate(63.623047 0)"/>
      <use xlink:href="#DejaVuSans-37" transform="translate(125.146484 0)"/>
     </g>
    </g>
   </g>
   <g id="line2d_15">
    <path d="M 43.352074 658.42935 
L 46.139483 658.427537 
L 47.997756 658.359103 
L 48.926893 658.506045 
L 50.785165 658.362297 
L 51.714302 658.512895 
L 52.643438 658.342705 
L 54.501711 658.417832 
L 65.651348 658.466596 
L 66.580484 658.516889 
L 67.509621 658.399043 
L 68.438757 658.441991 
L 69.367893 658.355609 
L 70.29703 658.482421 
L 75.871848 658.489515 
L 77.730121 658.505712 
L 80.51753 658.494243 
L 82.375803 658.474879 
L 83.30494 658.370824 
L 84.234076 658.474514 
L 87.021485 658.491367 
L 87.950622 658.507196 
L 88.879758 658.396853 
L 89.808894 658.511506 
L 91.667167 658.463244 
L 94.454576 658.495971 
L 99.100259 658.384831 
L 100.029395 658.54396 
L 100.958531 658.410703 
L 101.887668 658.498597 
L 105.604213 658.45439 
L 107.462486 658.470436 
L 124.186942 658.383825 
L 125.116078 658.55634 
L 126.974351 658.399741 
L 129.76176 658.513373 
L 130.690896 658.39323 
L 136.265715 658.531906 
L 137.194851 658.44025 
L 141.840533 658.451117 
L 142.76967 658.441001 
L 143.698806 658.552281 
L 144.627942 658.476437 
L 145.557079 658.591121 
L 147.415352 658.488663 
L 152.99017 658.482707 
L 153.919307 658.535088 
L 155.777579 658.349573 
L 157.635852 658.45097 
L 164.139807 658.40732 
L 165.99808 658.456949 
L 173.431171 658.148068 
L 174.360308 657.997265 
L 178.076853 658.1027 
L 179.00599 657.884924 
L 180.864262 658.030817 
L 182.722535 658.047668 
L 183.651672 658.210234 
L 184.580808 658.078575 
L 185.509944 658.087423 
L 186.439081 658.222874 
L 187.368217 658.123602 
L 188.297354 658.354485 
L 189.22649 658.220675 
L 190.155626 658.365373 
L 195.730445 658.50485 
L 196.659581 658.400805 
L 197.588718 658.477537 
L 199.446991 658.442486 
L 200.376127 658.527909 
L 201.305263 658.370612 
L 203.163536 658.45696 
L 204.092673 658.371174 
L 205.021809 658.492754 
L 207.809218 658.396823 
L 210.596627 658.095493 
L 211.525764 657.723106 
L 212.4549 657.60813 
L 213.384037 657.061949 
L 215.242309 655.706793 
L 216.171446 654.759022 
L 217.100582 653.335495 
L 218.029719 651.521376 
L 218.958855 648.703814 
L 219.887992 646.536473 
L 220.817128 643.453985 
L 221.746264 640.934508 
L 222.675401 636.685984 
L 223.604537 633.618306 
L 224.533674 630.156667 
L 225.46281 625.391593 
L 227.321083 618.049805 
L 228.250219 616.933863 
L 229.179356 616.258059 
L 230.108492 614.586482 
L 231.037628 614.527045 
L 231.966765 615.435571 
L 232.895901 619.775639 
L 233.825038 621.89571 
L 234.754174 626.026387 
L 235.68331 629.54557 
L 236.612447 634.620404 
L 237.541583 638.735596 
L 239.399856 645.61382 
L 240.328992 648.47733 
L 241.258129 650.213065 
L 242.187265 652.192861 
L 244.045538 654.79986 
L 245.903811 656.237503 
L 246.832947 656.82758 
L 247.762084 657.086843 
L 248.69122 657.505658 
L 249.620357 657.664777 
L 250.549493 657.526253 
L 251.478629 657.752904 
L 257.053448 658.004915 
L 259.840857 658.078565 
L 269.132221 658.337279 
L 270.061358 658.222581 
L 273.777903 658.345772 
L 276.565312 658.423293 
L 278.423585 658.325343 
L 279.352722 658.438181 
L 280.281858 658.334775 
L 282.140131 658.361724 
L 283.069267 658.324719 
L 283.998404 658.442825 
L 284.92754 658.320345 
L 285.856676 658.448446 
L 287.714949 658.265141 
L 288.644086 658.443342 
L 291.431495 658.372642 
L 295.148041 658.242035 
L 296.077177 658.405436 
L 298.864586 658.242538 
L 299.793723 658.404879 
L 302.581132 658.342881 
L 303.510268 658.456878 
L 305.368541 658.37177 
L 306.297677 658.481578 
L 307.226814 658.362233 
L 309.085087 658.349331 
L 310.014223 658.343128 
L 310.943359 658.491566 
L 311.872496 658.35642 
L 313.730769 658.48029 
L 316.518178 658.247096 
L 317.447314 658.381526 
L 318.376451 658.328427 
L 319.305587 658.388261 
L 321.16386 658.282371 
L 322.092996 658.372728 
L 325.809542 658.318368 
L 326.738678 658.429165 
L 328.596951 658.300007 
L 329.526088 658.34104 
L 330.455224 658.17644 
L 331.38436 658.337641 
L 334.17177 658.233871 
L 336.030042 658.340993 
L 336.959179 658.215691 
L 337.888315 658.205675 
L 338.817452 658.353705 
L 339.746588 658.273035 
L 340.675724 658.422038 
L 341.604861 658.340693 
L 343.463134 658.494886 
L 345.321407 658.447017 
L 347.179679 658.404595 
L 348.108816 658.430989 
L 349.967089 658.336949 
L 351.825361 658.365874 
L 355.541907 658.408713 
L 357.40018 658.454464 
L 360.187589 658.392201 
L 366.691544 658.463924 
L 367.62068 658.344837 
L 370.40809 658.418096 
L 376.912044 658.426565 
L 377.841181 658.252909 
L 379.699454 658.497545 
L 388.990818 658.494566 
L 389.919954 658.361906 
L 390.849091 658.496907 
L 391.778227 658.406663 
L 394.565636 658.423601 
L 395.494773 658.373154 
L 396.423909 658.522668 
L 398.282182 658.401606 
L 401.069591 658.415229 
L 401.998727 658.278978 
L 403.857 658.422314 
L 404.786137 658.457565 
L 405.715273 658.330585 
L 409.431819 658.548489 
L 411.290091 658.33416 
L 413.148364 658.458311 
L 416.86491 658.465037 
L 417.794046 658.371961 
L 421.510592 658.479912 
L 425.227138 658.425274 
L 429.87282 658.397131 
L 430.801956 658.498463 
L 431.731092 658.415284 
L 432.660229 658.479199 
L 434.518502 658.40487 
L 437.305911 658.47478 
L 446.597275 658.420927 
L 450.313821 658.455914 
L 454.959503 658.442443 
L 455.888639 658.390967 
L 457.746912 658.512671 
L 458.676048 658.31234 
L 463.32173 658.407734 
L 466.10914 658.313354 
L 467.038276 658.403842 
L 469.825685 658.314363 
L 472.613094 658.465802 
L 473.542231 658.386483 
L 475.400504 658.428949 
L 477.258776 658.410505 
L 480.046186 658.521934 
L 480.975322 658.406282 
L 499.55805 658.428066 
L 500.487187 658.506402 
L 502.345459 658.472885 
L 503.274596 658.555163 
L 505.132869 658.5075 
L 506.062005 658.524453 
L 506.991141 658.41016 
L 508.849414 658.473738 
L 510.707687 658.413295 
L 512.56596 658.534195 
L 513.495096 658.37332 
L 514.424233 658.486545 
L 516.282506 658.327575 
L 517.211642 658.464466 
L 523.715597 658.269255 
L 527.432142 658.02585 
L 529.290415 657.458464 
L 531.148688 656.148648 
L 532.077824 655.192219 
L 533.006961 653.352451 
L 533.936097 651.941635 
L 534.865234 649.120377 
L 535.79437 645.736118 
L 537.652643 636.753253 
L 538.581779 630.617818 
L 539.510916 623.725399 
L 540.440052 614.271676 
L 541.369189 602.216858 
L 542.298325 592.528205 
L 543.227461 580.552514 
L 544.156598 563.06524 
L 545.085734 549.647564 
L 546.944007 513.131057 
L 548.80228 471.358776 
L 549.731416 445.295638 
L 550.660553 430.374731 
L 551.589689 404.233537 
L 552.518825 368.344032 
L 553.447962 337.27052 
L 554.377098 309.945785 
L 555.306235 276.642486 
L 556.235371 251.625043 
L 557.164507 218.046771 
L 558.093644 167.750986 
L 559.02278 143.360268 
L 559.951917 123.77375 
L 560.881053 112.403903 
L 561.81019 117.238829 
L 562.739326 107.95319 
L 564.597599 158.683526 
L 565.526735 206.976479 
L 566.455872 266.915415 
L 568.314144 426.157509 
L 569.243281 484.336058 
L 570.172417 533.24614 
L 571.101554 574.420276 
L 572.03069 600.945435 
L 572.959826 619.026383 
L 573.888963 631.158012 
L 574.818099 638.622569 
L 575.747236 643.966876 
L 576.676372 647.979504 
L 578.534645 651.805902 
L 580.392918 653.904611 
L 581.322054 654.491175 
L 583.180327 654.777908 
L 584.109463 655.365593 
L 585.0386 655.670328 
L 589.684282 656.419649 
L 590.613418 656.252567 
L 591.542555 656.662503 
L 592.471691 656.401326 
L 593.400827 656.000898 
L 594.329964 655.909317 
L 596.188237 654.51135 
L 597.117373 653.341716 
L 598.046509 650.900033 
L 598.975646 649.174886 
L 601.763055 638.237345 
L 602.692191 633.295817 
L 603.621328 627.704104 
L 606.408737 609.122832 
L 607.337873 602.821386 
L 608.26701 599.297839 
L 609.196146 591.127561 
L 610.125283 586.909316 
L 611.054419 586.230867 
L 611.983556 584.557229 
L 612.912692 586.634027 
L 613.841828 591.798446 
L 614.770965 596.121641 
L 615.700101 605.206628 
L 616.629238 610.014276 
L 617.558374 615.829953 
L 618.48751 623.633159 
L 620.345783 635.753102 
L 621.27492 640.433182 
L 622.204056 644.497404 
L 623.133192 647.938718 
L 624.062329 650.187724 
L 624.991465 651.821244 
L 626.849738 654.472593 
L 627.778874 655.367659 
L 628.708011 655.935268 
L 631.49542 656.968472 
L 632.424556 657.068615 
L 633.353693 657.347082 
L 634.282829 657.501632 
L 635.211966 657.217448 
L 636.141102 657.540385 
L 637.070239 657.604365 
L 637.999375 657.530919 
L 638.928511 657.659907 
L 639.857648 657.563157 
L 640.786784 657.733289 
L 641.715921 657.734245 
L 642.645057 657.939818 
L 643.574193 657.748935 
L 644.50333 657.732073 
L 645.432466 657.953751 
L 647.290739 657.931423 
L 649.149012 657.890937 
L 650.078148 658.054422 
L 651.936421 658.049731 
L 657.511239 658.108524 
L 658.440376 657.896168 
L 659.369512 658.044142 
L 665.873467 658.104298 
L 666.802604 657.983982 
L 667.73174 658.164406 
L 670.519149 658.048923 
L 676.093968 658.166176 
L 681.668786 658.208722 
L 682.597922 658.326811 
L 684.456195 658.163303 
L 685.385332 658.086806 
L 686.314468 658.268174 
L 688.172741 658.217407 
L 689.101877 658.09002 
L 690.96015 658.184227 
L 692.818423 658.124567 
L 692.818423 658.124567 
" clip-path="url(#pf705619384)" style="fill: none; stroke: #0000ff; stroke-width: 1.5; stroke-linecap: square"/>
   </g>
   <g id="patch_3">
    <path d="M 43.884375 664.0975 
L 43.884375 25.3575 
" style="fill: none; stroke: #000000; stroke-width: 1.5; stroke-linejoin: miter; stroke-linecap: square"/>
   </g>
   <g id="patch_4">
    <path d="M 43.884375 664.0975 
L 692.179375 664.0975 
" style="fill: none; stroke: #000000; stroke-width: 1.5; stroke-linejoin: miter; stroke-linecap: square"/>
   </g>
   <g id="text_18">
    <!-- Хроматограмма МСД-1 : TIC -->
    <g transform="translate(251.058125 19.3575) scale(0.16 -0.16)">
     <defs>
      <path id="DejaVuSans-425" d="M 403 4666 
L 1081 4666 
L 2241 2931 
L 3406 4666 
L 4084 4666 
L 2584 2425 
L 4184 0 
L 3506 0 
L 2194 1984 
L 872 0 
L 191 0 
L 1856 2491 
L 403 4666 
z
" transform="scale(0.015625)"/>
      <path id="DejaVuSans-430" d="M 2194 1759 
Q 1497 1759 1228 1600 
Q 959 1441 959 1056 
Q 959 750 1161 570 
Q 1363 391 1709 391 
Q 2188 391 2477 730 
Q 2766 1069 2766 1631 
L 2766 1759 
L 2194 1759 
z
M 3341 1997 
L 3341 0 
L 2766 0 
L 2766 531 
Q 2569 213 2275 61 
Q 1981 -91 1556 -91 
Q 1019 -91 701 211 
Q 384 513 384 1019 
Q 384 1609 779 1909 
Q 1175 2209 1959 2209 
L 2766 2209 
L 2766 2266 
Q 2766 2663 2505 2880 
Q 2244 3097 1772 3097 
Q 1472 3097 1187 3025 
Q 903 2953 641 2809 
L 641 3341 
Q 956 3463 1253 3523 
Q 1550 3584 1831 3584 
Q 2591 3584 2966 3190 
Q 3341 2797 3341 1997 
z
" transform="scale(0.015625)"/>
      <path id="DejaVuSans-433" d="M 581 0 
L 581 3500 
L 3050 3500 
L 3050 3041 
L 1159 3041 
L 1159 0 
L 581 0 
z
" transform="scale(0.015625)"/>
      <path id="DejaVuSans-41c" d="M 628 4666 
L 1569 4666 
L 2759 1491 
L 3956 4666 
L 4897 4666 
L 4897 0 
L 4281 0 
L 4281 4097 
L 3078 897 
L 2444 897 
L 1241 4097 
L 1241 0 
L 628 0 
L 628 4666 
z
" transform="scale(0.015625)"/>
      <path id="DejaVuSans-421" d="M 4122 4306 
L 4122 3641 
Q 3803 3938 3442 4084 
Q 3081 4231 2675 4231 
Q 1875 4231 1450 3742 
Q 1025 3253 1025 2328 
Q 1025 1406 1450 917 
Q 1875 428 2675 428 
Q 3081 428 3442 575 
Q 3803 722 4122 1019 
L 4122 359 
Q 3791 134 3420 21 
Q 3050 -91 2638 -91 
Q 1578 -91 968 557 
Q 359 1206 359 2328 
Q 359 3453 968 4101 
Q 1578 4750 2638 4750 
Q 3056 4750 3426 4639 
Q 3797 4528 4122 4306 
z
" transform="scale(0.015625)"/>
      <path id="DejaVuSans-414" d="M 1459 531 
L 3522 531 
L 3522 4134 
L 2006 4134 
L 2006 3472 
Q 2006 1913 1656 878 
Q 1584 666 1459 531 
z
M 538 531 
Q 956 728 1075 1103 
Q 1378 2066 1378 3784 
L 1378 4666 
L 4153 4666 
L 4153 531 
L 4684 531 
L 4684 -1003 
L 4153 -1003 
L 4153 0 
L 847 0 
L 847 -1003 
L 316 -1003 
L 316 531 
L 538 531 
z
" transform="scale(0.015625)"/>
      <path id="DejaVuSans-2d" d="M 313 2009 
L 1997 2009 
L 1997 1497 
L 313 1497 
L 313 2009 
z
" transform="scale(0.015625)"/>
      <path id="DejaVuSans-3a" d="M 750 794 
L 1409 794 
L 1409 0 
L 750 0 
L 750 794 
z
M 750 3309 
L 1409 3309 
L 1409 2516 
L 750 2516 
L 750 3309 
z
" transform="scale(0.015625)"/>
      <path id="DejaVuSans-54" d="M -19 4666 
L 3928 4666 
L 3928 4134 
L 2272 4134 
L 2272 0 
L 1638 0 
L 1638 4134 
L -19 4134 
L -19 4666 
z
" transform="scale(0.015625)"/>
      <path id="DejaVuSans-49" d="M 628 4666 
L 1259 4666 
L 1259 0 
L 628 0 
L 628 4666 
z
" transform="scale(0.015625)"/>
      <path id="DejaVuSans-43" d="M 4122 4306 
L 4122 3641 
Q 3803 3938 3442 4084 
Q 3081 4231 2675 4231 
Q 1875 4231 1450 3742 
Q 1025 3253 1025 2328 
Q 1025 1406 1450 917 
Q 1875 428 2675 428 
Q 3081 428 3442 575 
Q 3803 722 4122 1019 
L 4122 359 
Q 3791 134 3420 21 
Q 3050 -91 2638 -91 
Q 1578 -91 968 557 
Q 359 1206 359 2328 
Q 359 3453 968 4101 
Q 1578 4750 2638 4750 
Q 3056 4750 3426 4639 
Q 3797 4528 4122 4306 
z
" transform="scale(0.015625)"/>
     </defs>
     <use xlink:href="#DejaVuSans-425"/>
     <use xlink:href="#DejaVuSans-440" transform="translate(68.505859 0)"/>
     <use xlink:href="#DejaVuSans-43e" transform="translate(131.982422 0)"/>
     <use xlink:href="#DejaVuSans-43c" transform="translate(193.164062 0)"/>
     <use xlink:href="#DejaVuSans-430" transform="translate(268.603516 0)"/>
     <use xlink:href="#DejaVuSans-442" transform="translate(329.882812 0)"/>
     <use xlink:href="#DejaVuSans-43e" transform="translate(388.134766 0)"/>
     <use xlink:href="#DejaVuSans-433" transform="translate(449.316406 0)"/>
     <use xlink:href="#DejaVuSans-440" transform="translate(501.855469 0)"/>
     <use xlink:href="#DejaVuSans-430" transform="translate(565.332031 0)"/>
     <use xlink:href="#DejaVuSans-43c" transform="translate(626.611328 0)"/>
     <use xlink:href="#DejaVuSans-43c" transform="translate(702.050781 0)"/>
     <use xlink:href="#DejaVuSans-430" transform="translate(777.490234 0)"/>
     <use xlink:href="#DejaVuSans-20" transform="translate(838.769531 0)"/>
     <use xlink:href="#DejaVuSans-41c" transform="translate(870.556641 0)"/>
     <use xlink:href="#DejaVuSans-421" transform="translate(956.835938 0)"/>
     <use xlink:href="#DejaVuSans-414" transform="translate(1026.660156 0)"/>
     <use xlink:href="#DejaVuSans-2d" transform="translate(1104.785156 0)"/>
     <use xlink:href="#DejaVuSans-31" transform="translate(1140.869141 0)"/>
     <use xlink:href="#DejaVuSans-20" transform="translate(1204.492188 0)"/>
     <use xlink:href="#DejaVuSans-3a" transform="translate(1236.279297 0)"/>
     <use xlink:href="#DejaVuSans-20" transform="translate(1269.970703 0)"/>
     <use xlink:href="#DejaVuSans-54" transform="translate(1301.757812 0)"/>
     <use xlink:href="#DejaVuSans-49" transform="translate(1362.841797 0)"/>
     <use xlink:href="#DejaVuSans-43" transform="translate(1392.333984 0)"/>
    </g>
   </g>
  </g>
 </g>
 <defs>
  <clipPath id="pf705619384">
   <rect x="43.884375" y="25.3575" width="648.295" height="638.74"/>
  </clipPath>
 </defs>
</svg>
